<?xml version="1.0" encoding="UTF-8"?>
<svg id="_Слой_2" data-name="Слой 2" xmlns="http://www.w3.org/2000/svg" viewBox="0 0 141.93 44.82">
  <defs>
    <style>
      .cls-1 {
        fill: #efdc00;
      }
    </style>
  </defs>
  <g id="Layer_1" data-name="Layer 1">
    <g>
      <path class="cls-1" d="M0,43.2c0-6.84,3.69-11.1,10.37-15.78,6.57-4.56,7.14-7.44,7.14-12.6V5.94c0-2.58-.46-4.92-5.18-4.92C9.56,1.02,3.23,3,3.23,6.18c0,3.48,8.87,3.12,8.87,6.54,0,1.5-2.3,2.34-5.18,2.34-3.46,0-6.34-2.58-6.34-6.24C.58,2.58,7.83,.12,14.29,.12,22.46,.12,28.69,4.68,28.69,11.82c0,6.12-6.11,9.78-14.29,14.76-8.64,5.28-10.6,8.22-11.98,12.72H26.61l.58-7.92c0-.3,.23-.36,.69-.36s.58,.06,.58,.36l-.92,13.08H0v-1.26Z"/>
      <path class="cls-1" d="M49.65,25.08c0-2.64-1.61-3.96-4.84-3.96h-5.88c-.35,0-.69-.24-.69-.42,0-.24,.35-.36,.69-.36h6.34c2.3,0,3.92-.84,3.92-2.34V3.84c0-2.04-1.61-3.12-3.8-3.12-4.03,0-8.99,2.46-8.99,5.52,0,2.64,8.06,2.64,8.06,5.22,0,1.32-1.5,2.28-4.61,2.28-3.69,0-5.99-1.8-5.99-4.86,0-5.46,4.84-8.88,12.56-8.88,8.29,0,13.59,4.02,13.59,10.32,0,5.64-3.8,8.7-12.56,10.38,5.3,.78,13.71,2.04,13.71,11.58,0,11.28-12.56,12.54-15.78,12.54-7.37,0-12.44-3.9-12.44-9.6,0-3.84,2.65-6.18,6.91-6.18,2.76,0,4.84,1.08,4.84,2.82,0,3.66-9.22,3.54-9.22,6.3,0,3.3,4.72,5.94,9.33,5.94,2.65,0,4.84-1.44,4.84-3.24v-15.78Z"/>
      <path class="cls-1" d="M76.27,16.14c0,1.92-2.3,3.36-5.07,3.36s-5.07-1.44-5.07-3.36,2.3-3.48,5.07-3.48,5.07,1.56,5.07,3.48Zm0,25.14c0,1.92-2.3,3.36-5.07,3.36s-5.07-1.44-5.07-3.36,2.3-3.48,5.07-3.48,5.07,1.56,5.07,3.48Z"/>
      <path class="cls-1" d="M109.44,30.42c0,9-6.34,14.4-14.4,14.4s-13.94-5.4-13.94-14.4V14.76c0-9.24,5.07-14.76,14.17-14.76s14.17,5.52,14.17,15.06v15.36Zm-17.74,10.2c0,2.76,1.61,3.48,3.69,3.48,1.96,0,3.46-.72,3.46-3.48V3.3c0-1.68-1.38-2.58-3.57-2.58s-3.57,.66-3.57,2.58V40.62Z"/>
      <path class="cls-1" d="M141.93,30.42c0,9-6.34,14.4-14.4,14.4s-13.94-5.4-13.94-14.4V14.76c0-9.24,5.07-14.76,14.17-14.76s14.17,5.52,14.17,15.06v15.36Zm-17.74,10.2c0,2.76,1.61,3.48,3.69,3.48,1.96,0,3.46-.72,3.46-3.48V3.3c0-1.68-1.38-2.58-3.57-2.58s-3.57,.66-3.57,2.58V40.62Z"/>
    </g>
  </g>
</svg>