<?xml version="1.0" encoding="UTF-8"?>
<svg id="_Слой_2" data-name="Слой 2" xmlns="http://www.w3.org/2000/svg" viewBox="0 0 135.25 44.82">
  <defs>
    <style>
      .cls-1 {
        fill: #efdc00;
      }
    </style>
  </defs>
  <g id="Layer_1" data-name="Layer 1">
    <g>
      <path class="cls-1" d="M16.24,.36V43.68h3.92c.46,0,.58,.06,.58,.42,0,.3-.12,.36-.58,.36H.58c-.46,0-.58-.06-.58-.36,0-.36,.12-.42,.58-.42H5.53V8.34c0-.6,.23-1.2,.58-1.62-1.15,.9-4.38,2.28-5.53,2.28-.35,0-.58-.12-.58-.42,0-.12,.12-.18,.35-.24C6.34,6.06,8.06,3.84,9.45,.36h6.8Z"/>
      <path class="cls-1" d="M24.42,32.88c14.75-11.1,13.82-16.56,13.82-26.76,0-3.84,2.54-6.12,6.68-6.12,3.57,0,5.18,1.86,5.18,5.52,0,8.16-12.67,18-23.16,26.58h11.29v-2.46c4.95-4.08,8.53-7.56,9.33-11.16h1.38v13.62h5.76c.35,0,.58,.06,.58,.36s-.23,.42-.58,.42h-5.76v10.8h3.57c.69,0,.92,.18,.92,.42s-.23,.36-.92,.36h-19.24c-.35,0-.58-.12-.58-.36s.12-.42,.58-.42h4.95v-10.8h-13.82Z"/>
      <path class="cls-1" d="M69.58,16.14c0,1.92-2.3,3.36-5.07,3.36s-5.07-1.44-5.07-3.36,2.3-3.48,5.07-3.48,5.07,1.56,5.07,3.48Zm0,25.14c0,1.92-2.3,3.36-5.07,3.36s-5.07-1.44-5.07-3.36,2.3-3.48,5.07-3.48,5.07,1.56,5.07,3.48Z"/>
      <path class="cls-1" d="M102.76,30.42c0,9-6.34,14.4-14.4,14.4s-13.94-5.4-13.94-14.4V14.76c0-9.24,5.07-14.76,14.17-14.76s14.17,5.52,14.17,15.06v15.36Zm-17.74,10.2c0,2.76,1.61,3.48,3.69,3.48,1.96,0,3.46-.72,3.46-3.48V3.3c0-1.68-1.38-2.58-3.57-2.58s-3.57,.66-3.57,2.58V40.62Z"/>
      <path class="cls-1" d="M135.25,30.42c0,9-6.34,14.4-14.4,14.4s-13.94-5.4-13.94-14.4V14.76c0-9.24,5.07-14.76,14.17-14.76s14.17,5.52,14.17,15.06v15.36Zm-17.74,10.2c0,2.76,1.61,3.48,3.69,3.48,1.96,0,3.46-.72,3.46-3.48V3.3c0-1.68-1.38-2.58-3.57-2.58s-3.57,.66-3.57,2.58V40.62Z"/>
    </g>
  </g>
</svg>