<?xml version="1.0" encoding="UTF-8"?>
<svg id="_Слой_2" data-name="Слой 2" xmlns="http://www.w3.org/2000/svg" viewBox="0 0 135.25 45.84">
  <defs>
    <style>
      .cls-1 {
        fill: #efdc00;
      }
    </style>
  </defs>
  <g id="Layer_1" data-name="Layer 1">
    <g>
      <path class="cls-1" d="M16.24,1.38V44.7h3.92c.46,0,.58,.06,.58,.42,0,.3-.12,.36-.58,.36H.58c-.46,0-.58-.06-.58-.36,0-.36,.12-.42,.58-.42H5.53V9.36c0-.6,.23-1.2,.58-1.62-1.15,.9-4.38,2.28-5.53,2.28-.35,0-.58-.12-.58-.42,0-.12,.12-.18,.35-.24C6.34,7.08,8.06,4.86,9.45,1.38h6.8Z"/>
      <path class="cls-1" d="M29.15,1.38h22.46l.23-1.08c0-.18,.23-.3,.69-.3,.35,0,.58,.06,.58,.3l-.69,5.88c0,.24-.35,.36-1.04,.36H30.64l-.69,12.96c3.34-3.78,6.22-5.1,11.06-5.1,2.54,0,4.95,.54,6.68,1.5,5.07,2.64,6.68,6.48,6.68,15.18,0,6.66-1.61,10.08-5.99,12.54-2.53,1.38-5.64,2.16-9.22,2.16-7.37,0-12.44-3.84-12.44-9.54,0-3.84,2.65-6.18,6.91-6.18,2.77,0,4.84,1.08,4.84,2.82,0,3.78-8.99,3.48-8.99,6.36,0,3.42,4.49,5.76,9.1,5.76,2.65,0,4.72-1.26,4.72-3.24V18.84c0-2.34-1.27-3.54-3.57-3.54-5.65,0-10.14,4.56-10.6,10.62,0,.3-.23,.42-.69,.42-.35,0-.58-.18-.58-.42L29.15,1.38Z"/>
      <path class="cls-1" d="M69.58,17.16c0,1.92-2.3,3.36-5.07,3.36s-5.07-1.44-5.07-3.36,2.3-3.48,5.07-3.48,5.07,1.56,5.07,3.48Zm0,25.14c0,1.92-2.3,3.36-5.07,3.36s-5.07-1.44-5.07-3.36,2.3-3.48,5.07-3.48,5.07,1.56,5.07,3.48Z"/>
      <path class="cls-1" d="M102.76,31.44c0,9-6.34,14.4-14.4,14.4s-13.94-5.4-13.94-14.4V15.78c0-9.24,5.07-14.76,14.17-14.76s14.17,5.52,14.17,15.06v15.36Zm-17.74,10.2c0,2.76,1.61,3.48,3.69,3.48,1.96,0,3.46-.72,3.46-3.48V4.32c0-1.68-1.38-2.58-3.57-2.58s-3.57,.66-3.57,2.58V41.64Z"/>
      <path class="cls-1" d="M135.25,31.44c0,9-6.34,14.4-14.4,14.4s-13.94-5.4-13.94-14.4V15.78c0-9.24,5.07-14.76,14.17-14.76s14.17,5.52,14.17,15.06v15.36Zm-17.74,10.2c0,2.76,1.61,3.48,3.69,3.48,1.96,0,3.46-.72,3.46-3.48V4.32c0-1.68-1.38-2.58-3.57-2.58s-3.57,.66-3.57,2.58V41.64Z"/>
    </g>
  </g>
</svg>