<?xml version="1.0" encoding="UTF-8"?>
<svg id="_Слой_2" data-name="Слой 2" xmlns="http://www.w3.org/2000/svg" xmlns:xlink="http://www.w3.org/1999/xlink" viewBox="0 0 610.17 1053.86">
  <defs>
    <style>
      .cls-1 {
        stroke: #fff;
        stroke-width: 2px;
      }

      .cls-1, .cls-2, .cls-3 {
        fill: none;
      }

      .cls-1, .cls-3, .cls-4 {
        stroke-miterlimit: 10;
      }

      .cls-5, .cls-4 {
        fill: #d2a901;
      }

      .cls-6 {
        clip-path: url(#clippath);
      }

      .cls-3, .cls-4 {
        stroke: #d2a901;
      }
    </style>
    <clipPath id="clippath">
      <rect class="cls-2" width="460.21" height="829"/>
    </clipPath>
  </defs>
  <g id="Layer_1" data-name="Layer 1">
    <g>
      <path class="cls-4" d="M332.47,1046.24l13.05-12.64c4.45-4.32,5.15-6.63,5.15-8.73,0-3.5-3.13-6.5-7.62-6.5-4.24,0-7.16,2.47-8.97,5.8l-.78-.45c1.94-3.58,5.15-6.17,9.8-6.17,5.06,0,8.48,3.29,8.48,7.25v.08c0,2.51-.78,4.73-5.52,9.39l-12.1,11.69h18.03v.82h-19.51v-.54Z"/>
      <path class="cls-4" d="M361.29,1018.78l-5.39,2.43-.37-.78,5.89-2.68h.74v29.02h-.86v-27.99Z"/>
      <path class="cls-4" d="M381.87,1036.52v-.08c0-5.8,4.57-10.75,10.54-10.75,3.79,0,6.13,1.65,8.23,3.83l-.62,.58c-1.85-1.98-4.2-3.58-7.66-3.58-5.48,0-9.59,4.49-9.59,9.88v.08c0,5.39,4.2,9.96,9.63,9.96,3.5,0,5.93-1.73,7.74-3.83l.62,.58c-1.94,2.26-4.57,4.08-8.4,4.08-5.93,0-10.5-4.94-10.5-10.75Z"/>
      <path class="cls-4" d="M404.35,1036.48v-.08c0-6.09,4.16-10.7,9.88-10.7,6.5,0,9.47,5.72,9.47,10.87v.17h-18.4c.12,5.93,4.36,9.72,9.39,9.72,3.17,0,5.97-1.85,7.62-4.16l.7,.49c-1.77,2.59-4.73,4.49-8.36,4.49-5.6,0-10.29-4.2-10.29-10.79Zm18.4-.54c-.21-4.69-3.09-9.43-8.56-9.43-5.1,0-8.69,4.03-8.89,9.43h17.46Z"/>
      <path class="cls-4" d="M429.79,1026.19h.86v9.8h16.22v-9.8h.87v20.58h-.87v-10h-16.22v10h-.86v-20.58Z"/>
      <path class="cls-4" d="M461.86,1026.97h-9.43v-.78h19.72v.78h-9.43v19.8h-.86v-19.8Z"/>
      <path class="cls-4" d="M474.46,1046.77l7.16-8.48c-3.79-.45-6.17-2.72-6.13-6.01v-.04c0-3.46,2.96-6.05,7.45-6.05h10.09v20.58h-.86v-8.4h-9.55l-7.04,8.4h-1.11Zm8.44-19.84c-4.08,0-6.55,2.18-6.55,5.31v.04c0,3.09,2.39,5.35,6.63,5.35h9.18v-10.71h-9.26Z"/>
      <path class="cls-4" d="M502.95,1044.42c-2.02-2.02-3.21-5.02-3.21-8.97v-.12c0-11.4,2.02-16.14,11.9-17.91l6.22-1.11,.16,.87-6.17,1.07c-8.81,1.52-10.83,5.39-11.28,14.82,1.65-4.73,5.97-6.75,10.09-6.75,5.8,0,10.09,4.69,10.09,10.33v.08c0,5.8-4.2,10.54-10.54,10.54-2.92,0-5.35-.95-7.25-2.84Zm16.88-7.66v-.08c0-5.23-3.95-9.55-9.22-9.55-5.68,0-9.92,4.32-9.92,9.1v.04c0,6.05,4.16,10.17,9.51,10.17,5.89,0,9.63-4.32,9.63-9.67Z"/>
      <path class="cls-4" d="M526.95,1026.19h.86v6.38c1.19-3.95,4.73-6.88,9.51-6.88,5.97,0,10.29,4.78,10.29,10.75v.08c0,5.97-4.32,10.75-10.29,10.75-4.78,0-8.32-2.92-9.51-6.88v12.97h-.86v-27.17Zm19.76,10.37v-.08c0-5.48-3.79-9.96-9.43-9.96s-9.51,4.57-9.51,9.92v.08c0,5.31,3.95,9.92,9.51,9.92s9.43-4.36,9.43-9.88Z"/>
      <path class="cls-4" d="M551.94,1046.77l7.16-8.48c-3.79-.45-6.17-2.72-6.13-6.01v-.04c0-3.46,2.96-6.05,7.45-6.05h10.09v20.58h-.86v-8.4h-9.55l-7.04,8.4h-1.11Zm8.44-19.84c-4.08,0-6.55,2.18-6.55,5.31v.04c0,3.09,2.39,5.35,6.63,5.35h9.18v-10.71h-9.26Z"/>
    </g>
    <g>
      <path class="cls-4" d="M608.44,105.15v.95l-27.58,9.06,27.67,8.77v.7l-27.71,8.81,27.62,9.06v.91l-29.02-9.59v-.78l27.42-8.77-27.42-8.73v-.78l29.02-9.59Z"/>
      <path class="cls-4" d="M589.91,144.92h.08c6.09,0,10.7,4.16,10.7,9.88,0,6.5-5.72,9.47-10.87,9.47h-.17v-18.4c-5.93,.12-9.72,4.36-9.72,9.39,0,3.17,1.85,5.97,4.16,7.62l-.49,.7c-2.59-1.77-4.49-4.73-4.49-8.36,0-5.6,4.2-10.29,10.79-10.29Zm.54,18.4c4.69-.21,9.43-3.09,9.43-8.56,0-5.1-4.03-8.69-9.43-8.89v17.46Z"/>
      <path class="cls-4" d="M589.87,169.01h.08c5.97,0,10.75,4.32,10.75,10.29,0,4.78-2.92,8.32-6.88,9.51h15.85v.86h-30.05v-.86h6.38c-3.95-1.19-6.88-4.73-6.88-9.51,0-5.97,4.78-10.29,10.75-10.29Zm0,19.84h.08c5.31,0,9.92-3.95,9.92-9.51s-4.36-9.43-9.88-9.43h-.08c-5.48,0-9.96,3.79-9.96,9.43s4.57,9.51,9.92,9.51Z"/>
      <path class="cls-4" d="M589.87,195.97h.08c5.97,0,10.75,4.32,10.75,10.29,0,4.78-2.92,8.32-6.88,9.51h15.85v.86h-30.05v-.86h6.38c-3.95-1.19-6.88-4.73-6.88-9.51,0-5.97,4.78-10.29,10.75-10.29Zm0,19.84h.08c5.31,0,9.92-3.95,9.92-9.51s-4.36-9.43-9.88-9.43h-.08c-5.48,0-9.96,3.79-9.96,9.43s4.57,9.51,9.92,9.51Z"/>
      <path class="cls-4" d="M600.2,224.54v.86h-20.58v-.86h20.58Zm8.23-.21v1.28h-2.35v-1.28h2.35Z"/>
      <path class="cls-4" d="M600.2,233.31v.86h-5.64c2.51,.66,6.13,3.38,6.13,8.27,0,5.56-3.75,8.65-9.43,8.65h-11.65v-.86h11.57c5.15,0,8.69-2.68,8.69-7.86,0-4.57-3.91-8.19-8.85-8.19h-11.4v-.86h20.58Z"/>
      <path class="cls-4" d="M576.08,257.93l.7,.54c-2.02,2.63-3.05,5.52-3.05,8.81,0,5.48,3.09,9.14,9.18,9.14h4.2c-3.5-1.52-5.97-5.02-5.97-9.26,0-5.6,4.32-10.17,9.72-10.17h.08c5.35,0,9.76,4.57,9.76,10.17,0,4.24-2.47,7.74-5.97,9.26h5.48v.86h-17.46c-3.13,0-5.52-.95-7.2-2.63-1.77-1.77-2.63-4.28-2.63-7.37,0-3.46,1.07-6.5,3.17-9.35Zm14.74,18.57h.08c4.82,0,8.97-4.16,8.97-9.3s-3.99-9.26-8.89-9.26h-.08c-4.94,0-8.93,4.12-8.93,9.26s4.03,9.3,8.85,9.3Z"/>
      <path class="cls-4" d="M589.87,295.93h.08c5.97,0,10.75,4.32,10.75,10.29,0,4.78-2.92,8.32-6.88,9.51h15.85v.86h-30.05v-.86h6.38c-3.95-1.19-6.88-4.73-6.88-9.51,0-5.97,4.78-10.29,10.75-10.29Zm0,19.84h.08c5.31,0,9.92-3.95,9.92-9.51s-4.36-9.43-9.88-9.43h-.08c-5.48,0-9.96,3.79-9.96,9.43s4.57,9.51,9.92,9.51Z"/>
      <path class="cls-4" d="M585.3,322.52h.08c4.32,0,6.55,4.08,6.55,9.18,0,2.92-.49,5.64-1.28,7.74h1.73c4.98,0,7.33-2.96,7.33-7.78,0-2.59-.7-4.69-1.73-6.83l.74-.33c1.11,2.31,1.81,4.53,1.81,7.2,0,2.88-.74,5.06-2.26,6.59-1.28,1.28-3.25,2.02-5.85,2.02h-12.8v-.86h4.86c-2.43-.86-5.35-3.95-5.35-9.22,0-4.03,2.1-7.7,6.18-7.7Zm1.85,16.92h2.63c.82-2.18,1.32-4.57,1.32-7.7,0-4.65-1.89-8.32-5.68-8.32h-.08c-3.62,0-5.39,3.21-5.39,6.83,0,5.48,3.58,9.18,7.21,9.18Z"/>
      <path class="cls-4" d="M600.2,364.02v.91l-21-9.55c-5.27-2.43-6.3-3.91-6.3-6.59,0-1.44,.49-2.92,1.11-3.87l.7,.41c-.54,.95-1.03,2.31-1.03,3.46,0,2.43,.99,3.66,5.93,5.97l20.58-9.92v.95l-19.68,9.39,19.68,8.85Z"/>
    </g>
    <g>
      <g>
        <path class="cls-5" d="M71.33,956.86h-2.66c-.35,0-.44-.08-.44-.47,0-.47,.09-.55,.44-.55h2.66v-55.47h-2.66c-.35,0-.44-.08-.44-.55,0-.39,.09-.47,.44-.47h12.59c7.27,0,13.21,4.93,13.21,12.99,0,10.64-6.92,12.44-10.2,13.53,4.88,1.41,10.64,5.71,10.64,14.79,0,10.17-5.14,16.19-14.1,16.19h-9.49Zm8.87-56.48v25.03h2.3c1.68,0,3.1-.63,3.1-3.44v-17.84c0-2.66-1.24-3.76-3.81-3.76h-1.6Zm0,55.47h1.51c2.22,0,4.08-.86,4.08-3.68v-21.51c0-2.58-1.42-4.22-3.37-4.22h-2.22v29.42Z"/>
        <path class="cls-5" d="M101.21,900.38h-2.66c-.35,0-.44-.08-.44-.55,0-.39,.09-.47,.44-.47h13.03c.35,0,.44,.08,.44,.47,0,.47-.09,.55-.44,.55h-1.51v31.06c0,.7-.09,1.72-.18,2.5h.18l7.09-19.64v-13.93h-1.51c-.35,0-.44-.08-.44-.55,0-.39,.09-.47,.44-.47h13.03c.35,0,.44,.08,.44,.47,0,.47-.09,.55-.44,.55h-2.66v55.47h2.66c.35,0,.44,.08,.44,.55,0,.39-.09,.47-.44,.47h-13.03c-.35,0-.44-.08-.44-.47,0-.47,.09-.55,.44-.55h1.51v-35.44c0-.55,.09-2.11,.18-2.89h-.18l-7.09,19.79v18.54h1.51c.35,0,.44,.08,.44,.55,0,.39-.09,.47-.44,.47h-13.03c-.35,0-.44-.08-.44-.47,0-.47,.09-.55,.44-.55h2.66v-55.47Z"/>
        <path class="cls-5" d="M154.24,955.85c.35,0,.44,.23,.44,.47v.08c0,.23-.09,.47-.44,.47h-16.85c-.35,0-.44-.23-.44-.47v-.08c0-.23,.09-.47,.44-.47h3.99v-55.47h-.98c-5.05,0-7.45,22.61-7.45,23.31,0,.47-.27,.55-.62,.55s-.53-.24-.53-.55v-24.33h28.02v24.33c0,.31-.18,.55-.53,.55s-.62-.08-.62-.55c0-.7-2.13-23.31-7.36-23.31h-1.06v55.47h3.99Z"/>
        <path class="cls-5" d="M182.53,955.85h1.86c.35,0,.53,.23,.53,.55,0,.23-.18,.47-.53,.47h-12.15c-.35,0-.44-.08-.44-.47,0-.47,.09-.55,.44-.55h1.77l-2.04-17.52h-6.56l-1.33,10.01c-.18,1.41-.35,2.27-.35,3.91,0,2.27,1.15,3.6,3.64,3.6,.35,0,.44,.16,.44,.55,0,.31-.09,.47-.44,.47h-8.69c-.27,0-.44-.08-.44-.47,0-.47,.09-.55,.44-.55,1.86,0,3.64-1.8,4.08-5.55l5.32-44.98-.53-4.22-1.24,.16c-.18,0-.44-.16-.44-.62,0-.24,.09-.31,.35-.39l9.58-1.33,6.74,56.95Zm-10.73-18.54l-3.01-28.4-3.19,28.4h6.21Z"/>
        <path class="cls-5" d="M210.81,955.85h2.66c.35,0,.44,.08,.44,.55,0,.39-.09,.47-.44,.47h-14.19c-.36,0-.44-.08-.44-.47,0-.47,.09-.55,.44-.55h2.66v-55.47h-3.9c-1.6,0-1.86,.47-1.95,3.68l-.62,40.45c-.09,7.9-1.06,12.83-6.21,12.83-3.64,0-6.12-3.21-6.12-7.59,0-3.68,1.77-5.95,4.61-5.95,1.24,0,3.1,.78,3.1,2.74,0,3.52-5.59,2.11-5.59,6.18,0,1.64,1.24,3.6,4.17,3.6,3.81,0,4.79-4.3,4.88-11.97l.62-40.29c0-1.88-.71-3.68-4.26-3.68h-2.66c-.35,0-.44-.08-.44-.55,0-.39,.09-.47,.44-.47h25.45c.35,0,.44,.08,.44,.47,0,.47-.09,.55-.44,.55h-2.66v55.47Z"/>
        <path class="cls-5" d="M220.12,900.38h-2.66c-.35,0-.44-.08-.44-.55,0-.39,.09-.47,.44-.47h13.03c.35,0,.44,.08,.44,.47,0,.47-.09,.55-.44,.55h-1.51v31.06c0,.7-.09,1.72-.18,2.5h.18l7.09-19.64v-13.93h-1.51c-.35,0-.44-.08-.44-.55,0-.39,.09-.47,.44-.47h13.03c.35,0,.44,.08,.44,.47,0,.47-.09,.55-.44,.55h-2.66v55.47h2.66c.35,0,.44,.08,.44,.55,0,.39-.09,.47-.44,.47h-13.03c-.35,0-.44-.08-.44-.47,0-.47,.09-.55,.44-.55h1.51v-35.44c0-.55,.09-2.11,.18-2.89h-.18l-7.09,19.79v18.54h1.51c.35,0,.44,.08,.44,.55,0,.39-.09,.47-.44,.47h-13.03c-.35,0-.44-.08-.44-.47,0-.47,.09-.55,.44-.55h2.66v-55.47Z"/>
        <path class="cls-5" d="M253.82,900.38h-2.66c-.35,0-.44-.08-.44-.55,0-.39,.09-.47,.44-.47h13.03c.35,0,.44,.08,.44,.47,0,.47-.09,.55-.44,.55h-1.51v31.06c0,.7-.09,1.72-.18,2.5h.18l7.09-19.64v-13.93h-1.51c-.35,0-.44-.08-.44-.55,0-.39,.09-.47,.44-.47h13.03c.35,0,.44,.08,.44,.47,0,.47-.09,.55-.44,.55h-2.66v55.47h2.66c.35,0,.44,.08,.44,.55,0,.39-.09,.47-.44,.47h-13.03c-.35,0-.44-.08-.44-.47,0-.47,.09-.55,.44-.55h1.51v-35.44c0-.55,.09-2.11,.18-2.89h-.18l-7.09,19.79v18.54h1.51c.35,0,.44,.08,.44,.55,0,.39-.09,.47-.44,.47h-13.03c-.35,0-.44-.08-.44-.47,0-.47,.09-.55,.44-.55h2.66v-55.47Zm18.35-7.67c0-1.25-2.39-1.25-2.39-3.36,0-1.72,1.33-2.89,3.37-2.89,1.77,0,3.19,1.56,3.19,3.44,0,4.22-5.32,6.49-10.02,6.49s-10.2-2.27-10.2-6.49c0-1.88,1.24-3.44,3.28-3.44,1.77,0,3.28,1.33,3.28,2.89,0,2.11-2.31,2.11-2.31,3.36,0,2.03,3.81,2.66,5.94,2.66s5.85-.63,5.85-2.66Z"/>
      </g>
      <g>
        <path class="cls-5" d="M340.95,955.59h-2.66c-.35,0-.44-.08-.44-.47,0-.47,.09-.55,.44-.55h2.66v-55.47h-2.66c-.35,0-.44-.08-.44-.55,0-.39,.09-.47,.44-.47h12.59c7.27,0,13.21,4.93,13.21,12.99,0,10.64-6.92,12.44-10.2,13.53,4.88,1.41,10.64,5.71,10.64,14.79,0,10.17-5.14,16.19-14.1,16.19h-9.49Zm8.87-56.48v25.03h2.3c1.68,0,3.1-.63,3.1-3.44v-17.84c0-2.66-1.24-3.76-3.81-3.76h-1.6Zm0,55.47h1.51c2.22,0,4.08-.86,4.08-3.68v-21.51c0-2.58-1.42-4.22-3.37-4.22h-2.22v29.42Z"/>
        <path class="cls-5" d="M389.63,954.58h1.86c.35,0,.53,.23,.53,.55,0,.23-.18,.47-.53,.47h-12.15c-.35,0-.44-.08-.44-.47,0-.47,.09-.55,.44-.55h1.77l-2.04-17.52h-6.56l-1.33,10.01c-.18,1.41-.35,2.27-.35,3.91,0,2.27,1.15,3.6,3.64,3.6,.35,0,.44,.16,.44,.55,0,.31-.09,.47-.44,.47h-8.69c-.27,0-.44-.08-.44-.47,0-.47,.09-.55,.44-.55,1.86,0,3.64-1.8,4.08-5.55l5.32-44.98-.53-4.22-1.24,.16c-.18,0-.44-.16-.44-.62,0-.24,.09-.31,.35-.39l9.58-1.33,6.74,56.95Zm-10.73-18.54l-3.01-28.4-3.19,28.4h6.21Z"/>
        <path class="cls-5" d="M417.92,954.58h2.66c.35,0,.44,.08,.44,.55,0,.39-.09,.47-.44,.47h-14.19c-.36,0-.44-.08-.44-.47,0-.47,.09-.55,.44-.55h2.66v-55.47h-3.9c-1.6,0-1.86,.47-1.95,3.68l-.62,40.45c-.09,7.9-1.06,12.83-6.21,12.83-3.64,0-6.12-3.21-6.12-7.59,0-3.68,1.77-5.95,4.61-5.95,1.24,0,3.1,.78,3.1,2.74,0,3.52-5.59,2.11-5.59,6.18,0,1.64,1.24,3.6,4.17,3.6,3.81,0,4.79-4.3,4.88-11.97l.62-40.29c0-1.88-.71-3.68-4.26-3.68h-2.66c-.35,0-.44-.08-.44-.55,0-.39,.09-.47,.44-.47h25.45c.35,0,.44,.08,.44,.47,0,.47-.09,.55-.44,.55h-2.66v55.47Z"/>
        <path class="cls-5" d="M427.23,899.11h-2.66c-.35,0-.44-.08-.44-.55,0-.39,.09-.47,.44-.47h24.38v18.23c0,.39-.09,.47-.53,.47-.53,0-.62-.08-.62-.47,0-8.14-3.99-17.21-9.22-17.21h-2.48v24.17c0,.63,.27,.86,.71,.86,2.57,0,5.41-4.54,5.41-10.64v-1.33c0-.39,.09-.47,.53-.47s.53,.08,.53,.47v25.03c0,.31-.18,.39-.53,.39s-.53-.08-.53-.39v-1.1c0-3.99-2.04-10.95-5.41-10.95-.35,0-.71,.47-.71,1.17v28.24h2.84c6.65,0,8.87-17.45,8.87-22.53,0-.39,.18-.47,.62-.47s.53,.08,.53,.47v23.55h-24.38c-.35,0-.44-.08-.44-.47,0-.47,.09-.55,.44-.55h2.66v-55.47Z"/>
        <path class="cls-5" d="M456.05,899.11h-2.66c-.35,0-.44-.08-.44-.55,0-.39,.09-.47,.44-.47h12.77c7.54,0,13.48,6.18,13.48,15.65v2.35c0,9.08-5.85,14.86-13.39,14.86h-1.33v23.63h2.66c.36,0,.44,.08,.44,.55,0,.39-.09,.47-.44,.47h-14.19c-.35,0-.44-.08-.44-.47,0-.47,.09-.55,.44-.55h2.66v-55.47Zm8.87,0v30.82h1.77c2.04,0,3.81-1.02,3.81-4.22v-22.76c0-2.43-1.15-3.83-3.19-3.83h-2.39Z"/>
        <path class="cls-5" d="M485.4,899.11h-2.66c-.35,0-.44-.08-.44-.55,0-.39,.09-.47,.44-.47h13.03c.35,0,.44,.08,.44,.47,0,.47-.09,.55-.44,.55h-1.51v31.06c0,.7-.09,1.72-.18,2.5h.18l7.09-19.64v-13.93h-1.51c-.35,0-.44-.08-.44-.55,0-.39,.09-.47,.44-.47h13.03c.35,0,.44,.08,.44,.47,0,.47-.09,.55-.44,.55h-2.66v55.47h2.66c.35,0,.44,.08,.44,.55,0,.39-.09,.47-.44,.47h-13.03c-.35,0-.44-.08-.44-.47,0-.47,.09-.55,.44-.55h1.51v-35.44c0-.55,.09-2.11,.18-2.89h-.18l-7.09,19.79v18.54h1.51c.35,0,.44,.08,.44,.55,0,.39-.09,.47-.44,.47h-13.03c-.35,0-.44-.08-.44-.47,0-.47,.09-.55,.44-.55h2.66v-55.47Z"/>
        <path class="cls-5" d="M533.9,926.57h-1.6c-2.93,0-3.81,1.09-3.81,3.99v18.46c0,5.01-3.28,7.12-7,7.12-5.05,0-7.36-3.52-7.36-9.7,0-.47,.09-.55,.53-.55s.53,.08,.53,.55c0,5.4,1.68,7.04,3.1,7.04,.89,0,1.33-.55,1.33-1.72v-13.93c0-8.84,6.03-10.64,10.46-11.73-3.19-.94-11-3.29-11-13.77,0-8.21,5.32-14.24,12.59-14.24h13.74c.35,0,.44,.08,.44,.47,0,.47-.09,.55-.44,.55h-2.66v55.47h2.66c.35,0,.44,.08,.44,.55,0,.39-.09,.47-.44,.47h-14.19c-.35,0-.44-.08-.44-.47,0-.47,.09-.55,.44-.55h2.66v-28.01Zm-5.67-24.02v19.4c0,2.19,1.33,3.6,3.46,3.6h2.22v-26.44h-2.22c-2.66,0-3.46,1.17-3.46,3.44Z"/>
      </g>
      <path class="cls-5" d="M295.91,925.44h8.5v-8.29h5.31v8.29h8.5v4.84h-8.5v8.29h-5.31v-8.29h-8.5v-4.84Z"/>
    </g>
    <g class="cls-6">
      <rect class="cls-1" x="23.74" y="24.46" width="571.27" height="1011.34"/>
    </g>
    <polyline class="cls-3" points="305.78 1035.27 21.82 1035.27 21.82 828.88 21.82 828.45"/>
    <polyline class="cls-3" points="593.1 405.65 593.1 1035.27 584.24 1035.27"/>
    <polyline class="cls-3" points="523.52 24.93 538.35 24.93 553.77 24.93 593.1 24.93 593.1 76.27"/>
  </g>
</svg>