<?xml version="1.0" encoding="UTF-8"?>
<svg id="_Слой_2" data-name="Слой 2" xmlns="http://www.w3.org/2000/svg" viewBox="0 0 699.18 698.66">
  <defs>
    <style>
      .cls-1 {
        fill: #c46017;
      }

      .cls-2 {
        fill: #fac18f;
      }

      .cls-3 {
        fill: #c35f18;
      }

      .cls-4 {
        fill: #fbe9dc;
      }
    </style>
  </defs>
  <g id="Layer_1" data-name="Layer 1">
    <rect class="cls-4" width="698.55" height="698.55"/>
    <g>
      <path class="cls-1" d="M423.7,130.96c-1.94,.51-3.99,.81-6.13,.81-4.51,0-6.91-1.78-6.91-6.39v-5.1h.59v5.1c0,4.21,2.21,5.83,6.34,5.83,1.94,0,4.24-.32,6.1-.84v-10.09h.59v18.89h-.59v-8.2Z"/>
      <path class="cls-1" d="M429.91,120.27h13.2v.54h-12.6v8.58h11.44v.54h-11.44v8.69h12.74v.54h-13.33v-18.89Z"/>
      <path class="cls-1" d="M452.5,120.81h-6.83v-.54h14.25v.54h-6.83v18.35h-.59v-18.35Z"/>
      <path class="cls-1" d="M463.46,120.27h7.74c2.24,0,3.89,.54,4.97,1.62,.81,.81,1.21,1.86,1.21,3.13v.05c0,2.35-1.48,3.94-3.64,4.45,2.59,.35,4.64,2.21,4.64,4.7v.05c0,3.13-2.46,4.88-6.75,4.88h-8.18v-18.89Zm13.33,4.78c0-2.59-2.05-4.24-5.61-4.24h-7.12v8.53h7.58c2.81,0,5.15-1.35,5.15-4.24v-.05Zm1,9.2c0-2.86-2.59-4.37-5.69-4.37h-8.04v8.74h7.58c3.91,0,6.15-1.59,6.15-4.32v-.05Z"/>
      <path class="cls-1" d="M483.03,120.27h13.2v.54h-12.6v8.58h11.44v.54h-11.44v8.69h12.74v.54h-13.33v-18.89Z"/>
      <path class="cls-1" d="M500.87,120.27h6.64c4.64,0,7.26,2.1,7.26,5.67v.05c0,3.67-2.81,5.75-7.37,5.75h-5.94v7.42h-.59v-18.89Zm6.53,10.93c4.21,0,6.77-1.81,6.77-5.18v-.05c0-3.24-2.48-5.15-6.72-5.15h-5.99v10.39h5.94Z"/>
      <path class="cls-1" d="M518.93,120.27h12.2v.54h-11.6v18.35h-.59v-18.89Z"/>
      <path class="cls-1" d="M409.72,178.8l8.55-8.28c2.92-2.83,3.37-4.34,3.37-5.72,0-2.29-2.05-4.26-4.99-4.26-2.78,0-4.7,1.62-5.88,3.8l-.51-.3c1.27-2.35,3.37-4.05,6.42-4.05,3.32,0,5.56,2.16,5.56,4.75v.05c0,1.65-.51,3.1-3.62,6.15l-7.93,7.66h11.82v.54h-12.79v-.35Z"/>
      <path class="cls-1" d="M428.61,160.8l-3.53,1.59-.24-.51,3.86-1.75h.48v19.02h-.57v-18.35Z"/>
      <path class="cls-1" d="M442.52,169.76v-.05c0-5.29,3.89-9.77,9.28-9.77,3.56,0,5.42,1.32,7.18,3l-.4,.41c-1.51-1.43-3.4-2.86-6.8-2.86-5.05,0-8.66,4.26-8.66,9.2v.05c0,4.97,3.7,9.2,8.66,9.2,3.05,0,5.4-1.43,6.88-3.08l.43,.4c-1.65,1.73-4.05,3.21-7.34,3.21-5.31,0-9.23-4.4-9.23-9.72Z"/>
      <path class="cls-1" d="M462.95,160.26h13.2v.54h-12.6v8.58h11.44v.54h-11.44v8.69h12.74v.54h-13.33v-18.89Z"/>
      <path class="cls-1" d="M480.79,160.26h.59v9.09h13.49v-9.09h.59v18.89h-.59v-9.26h-13.49v9.26h-.59v-18.89Z"/>
      <path class="cls-1" d="M505.84,160.8h-6.83v-.54h14.25v.54h-6.83v18.35h-.59v-18.35Z"/>
      <path class="cls-1" d="M530.45,179.15h-.59v-8.23h-6.99l-6.26,8.23h-.76l6.31-8.26c-3.86-.13-6.21-2.16-6.21-5.26v-.03c0-3.1,2.48-5.34,6.94-5.34h7.56v18.89Zm-7.56-18.35c-4.1,0-6.34,2-6.34,4.83v.03c0,2.78,2.19,4.72,6.18,4.72h7.12v-9.58h-6.96Z"/>
      <path class="cls-1" d="M536.07,160.26h13.09v.54h-12.49v8.12h6.96c4.53,0,7.04,1.78,7.04,5.02v.05c0,3.37-2.7,5.15-7.21,5.15h-7.39v-18.89Zm7.42,18.35c4.1,0,6.58-1.59,6.58-4.59v-.05c0-2.81-2.21-4.51-6.45-4.51h-6.96v9.15h6.83Z"/>
      <path class="cls-1" d="M554.97,160.26h6.64c4.64,0,7.26,2.1,7.26,5.67v.05c0,3.67-2.81,5.75-7.37,5.75h-5.94v7.42h-.59v-18.89Zm6.53,10.93c4.21,0,6.77-1.81,6.77-5.18v-.05c0-3.24-2.48-5.15-6.72-5.15h-5.99v10.39h5.94Z"/>
      <path class="cls-1" d="M586.95,179.15h-.59v-8.23h-6.99l-6.26,8.23h-.76l6.31-8.26c-3.86-.13-6.21-2.16-6.21-5.26v-.03c0-3.1,2.48-5.34,6.94-5.34h7.55v18.89Zm-7.55-18.35c-4.1,0-6.34,2-6.34,4.83v.03c0,2.78,2.18,4.72,6.18,4.72h7.12v-9.58h-6.96Z"/>
      <path class="cls-1" d="M413.31,200.79l-3.53,1.59-.24-.51,3.86-1.75h.48v19.02h-.57v-18.35Z"/>
      <path class="cls-1" d="M418.63,216.44l.46-.41c1.29,1.59,3.53,2.89,6.02,2.89,3.45,0,5.88-2.21,5.88-5.34v-.05c0-3.02-2.54-5.05-5.78-5.05-1.51,0-3.18,.3-5.02,1.27l-.35-.19,.57-9.31h10.07v.54h-9.53l-.48,8.2c1.51-.73,3.08-1.05,4.8-1.05,3.56,0,6.31,2.24,6.31,5.56v.05c0,3.45-2.67,5.91-6.5,5.91-2.59,0-5.07-1.38-6.45-3.02Z"/>
      <path class="cls-1" d="M434.96,205.64h.97v1.4h-.97v-1.4Zm0,12.09h.97v1.4h-.97v-1.4Z"/>
      <path class="cls-1" d="M438.06,216.09l.49-.38c1.38,1.86,3.59,3.21,6.31,3.21,3,0,5.51-1.94,5.51-4.64v-.05c0-3.32-2.86-4.69-7.02-4.69h-.65l-.19-.38,7.34-8.37h-10.77v-.54h11.55v.43l-7.29,8.31c4.67,0,7.61,1.67,7.61,5.21v.05c0,3.02-2.78,5.21-6.13,5.21-2.94,0-5.26-1.4-6.77-3.37Z"/>
      <path class="cls-1" d="M454.15,209.72v-.05c0-5.15,2.81-9.74,7.72-9.74s7.72,4.56,7.72,9.74v.05c0,5.15-2.81,9.74-7.72,9.74s-7.72-4.56-7.72-9.74Zm14.84,.03v-.05c0-4.8-2.59-9.23-7.15-9.23s-7.1,4.34-7.1,9.18v.05c0,4.8,2.59,9.23,7.15,9.23s7.1-4.34,7.1-9.18Z"/>
    </g>
    <g>
      <path class="cls-1" d="M139.89,488.25h9.66v.51h-9.09v12.98h-.57v-13.49Z"/>
      <path class="cls-1" d="M148.85,500.34h.97v1.4h-.97v-1.4Z"/>
      <path class="cls-1" d="M162.45,482.86h14.54v18.89h-.59v-18.35h-13.36v18.35h-.59v-18.89Z"/>
      <path class="cls-1" d="M181.19,498.02v-.05c0-2.83,2.67-4.29,6.02-4.29,1.92,0,3.7,.32,5.07,.84v-1.13c0-3.26-1.94-4.8-5.1-4.8-1.7,0-3.08,.46-4.48,1.13l-.22-.49c1.51-.73,2.97-1.19,4.72-1.19,1.89,0,3.32,.49,4.32,1.48,.84,.84,1.32,2.13,1.32,3.83v8.39h-.57v-3.18c-.57,1.59-2.59,3.51-6.05,3.51-2.64,0-5.05-1.38-5.05-4.05Zm11.09-1.21v-1.73c-1.43-.54-3-.86-5.05-.86-3.05,0-5.45,1.24-5.45,3.72v.05c0,2.37,2.1,3.54,4.48,3.54,3.59,0,6.02-2.35,6.02-4.72Z"/>
      <path class="cls-1" d="M197.6,488.25h6.94c2.73,0,4.37,1.16,4.37,3.29v.03c0,1.54-1.08,2.86-3,3.21,2.08,.3,3.51,1.51,3.51,3.37v.03c0,2.08-1.67,3.59-4.78,3.56h-7.04v-13.49Zm6.61,6.29c2.48,0,4.08-1.05,4.1-2.97v-.03c.03-1.73-1.3-2.81-3.81-2.78h-6.34v5.77h6.05Zm-6.05,6.69h6.48c2.73,0,4.18-1.24,4.18-3.08v-.03c0-1.75-1.48-3.1-4.61-3.08h-6.05v6.18Z"/>
      <path class="cls-1" d="M225.02,501.74h-.62l-5.99-12.85-5.96,12.85h-.59l6.31-13.6h.49l6.37,13.6Z"/>
      <path class="cls-1" d="M226.97,495.05v-.05c0-3.75,2.78-7.07,7.02-7.07s7.02,3.24,7.02,7.02v.05c0,3.8-2.78,7.07-7.02,7.07s-7.02-3.24-7.02-7.02Zm13.44-.03v-.05c0-3.56-2.67-6.5-6.45-6.5s-6.39,2.94-6.39,6.5v.05c0,3.56,2.67,6.5,6.45,6.5s6.39-2.94,6.39-6.5Z"/>
      <path class="cls-1" d="M245.05,488.25h6.94c2.73,0,4.37,1.16,4.37,3.29v.03c0,1.54-1.08,2.86-3,3.21,2.08,.3,3.51,1.51,3.51,3.37v.03c0,2.08-1.67,3.59-4.78,3.56h-7.04v-13.49Zm6.61,6.29c2.48,0,4.08-1.05,4.1-2.97v-.03c.03-1.73-1.3-2.81-3.81-2.78h-6.34v5.77h6.05Zm-6.05,6.69h6.48c2.73,0,4.18-1.24,4.18-3.08v-.03c0-1.75-1.48-3.1-4.61-3.08h-6.05v6.18Z"/>
      <path class="cls-1" d="M260.06,495.02v-.05c0-3.8,3-7.04,6.91-7.04,2.48,0,4.02,1.08,5.4,2.51l-.4,.38c-1.21-1.3-2.75-2.35-5.02-2.35-3.59,0-6.29,2.94-6.29,6.48v.05c0,3.54,2.75,6.53,6.31,6.53,2.29,0,3.89-1.13,5.07-2.51l.4,.38c-1.27,1.48-3,2.67-5.5,2.67-3.89,0-6.88-3.24-6.88-7.04Z"/>
      <path class="cls-1" d="M276.71,494.67h3.24l6.34-6.42h.76l-6.64,6.69,7.07,6.8h-.78l-6.8-6.56h-3.18v6.56h-.57v-13.49h.57v6.42Z"/>
      <path class="cls-1" d="M289.64,503.58c.62-.3,.73-.86,.7-1.84h-.49v-1.4h.97v1.24c0,1.54-.27,2.05-1,2.35l-.19-.35Z"/>
      <path class="cls-1" d="M57.19,514.85h.57l8.23,11.71,8.23-11.71h.54v18.89h-.59v-17.89l-8.18,11.66h-.03l-8.18-11.66v17.89h-.59v-18.89Z"/>
      <path class="cls-1" d="M78.94,530.01v-.05c0-2.83,2.67-4.29,6.02-4.29,1.92,0,3.7,.32,5.07,.84v-1.13c0-3.26-1.94-4.8-5.1-4.8-1.7,0-3.08,.46-4.48,1.13l-.22-.49c1.51-.73,2.97-1.19,4.72-1.19,1.89,0,3.32,.49,4.32,1.48,.84,.84,1.32,2.13,1.32,3.83v8.39h-.57v-3.18c-.57,1.59-2.59,3.51-6.05,3.51-2.64,0-5.05-1.38-5.05-4.05Zm11.09-1.21v-1.73c-1.43-.54-3-.86-5.05-.86-3.05,0-5.45,1.24-5.45,3.72v.05c0,2.37,2.1,3.54,4.48,3.54,3.59,0,6.02-2.35,6.02-4.72Z"/>
      <path class="cls-1" d="M95.35,520.24h.57v4.18c.78-2.59,3.1-4.51,6.23-4.51,3.91,0,6.75,3.13,6.75,7.04v.05c0,3.91-2.83,7.04-6.75,7.04-3.13,0-5.45-1.92-6.23-4.51v8.5h-.57v-17.81Zm12.95,6.8v-.05c0-3.59-2.48-6.53-6.18-6.53s-6.23,3-6.23,6.5v.05c0,3.48,2.59,6.5,6.23,6.5s6.18-2.86,6.18-6.48Z"/>
      <path class="cls-1" d="M113.03,520.24h.57v12.63l10.82-12.63h.51v13.49h-.57v-12.63l-10.82,12.63h-.51v-13.49Z"/>
      <path class="cls-1" d="M129.96,520.24h.57v12.63l10.82-12.63h.51v13.49h-.57v-12.63l-10.82,12.63h-.51v-13.49Z"/>
      <path class="cls-1" d="M146.88,520.24h.57v6.42h10.63v-6.42h.57v13.49h-.57v-6.56h-10.63v6.56h-.57v-13.49Z"/>
      <path class="cls-1" d="M162.72,527.02v-.05c0-3.8,3-7.04,6.91-7.04,2.48,0,4.02,1.08,5.4,2.51l-.4,.38c-1.21-1.3-2.75-2.35-5.02-2.35-3.59,0-6.29,2.94-6.29,6.48v.05c0,3.54,2.75,6.53,6.31,6.53,2.29,0,3.89-1.13,5.07-2.51l.4,.38c-1.27,1.48-3,2.67-5.5,2.67-3.89,0-6.88-3.24-6.88-7.04Z"/>
      <path class="cls-1" d="M179.38,526.67h3.24l6.34-6.42h.76l-6.64,6.69,7.07,6.8h-.78l-6.8-6.56h-3.18v6.56h-.57v-13.49h.57v6.42Z"/>
      <path class="cls-1" d="M191.77,530.01v-.05c0-2.83,2.67-4.29,6.02-4.29,1.92,0,3.7,.32,5.07,.84v-1.13c0-3.26-1.94-4.8-5.1-4.8-1.7,0-3.08,.46-4.48,1.13l-.22-.49c1.51-.73,2.97-1.19,4.72-1.19,1.89,0,3.32,.49,4.32,1.48,.84,.84,1.32,2.13,1.32,3.83v8.39h-.57v-3.18c-.57,1.59-2.59,3.51-6.05,3.51-2.64,0-5.05-1.38-5.05-4.05Zm11.09-1.21v-1.73c-1.43-.54-3-.86-5.05-.86-3.05,0-5.45,1.24-5.45,3.72v.05c0,2.37,2.1,3.54,4.48,3.54,3.59,0,6.02-2.35,6.02-4.72Z"/>
      <path class="cls-1" d="M207.02,533.74l4.7-5.56c-2.48-.3-4.05-1.78-4.02-3.94v-.03c0-2.27,1.94-3.97,4.88-3.97h6.61v13.49h-.57v-5.51h-6.26l-4.62,5.51h-.73Zm5.53-13.01c-2.67,0-4.29,1.43-4.29,3.48v.03c0,2.02,1.57,3.51,4.34,3.51h6.02v-7.02h-6.07Z"/>
      <path class="cls-1" d="M243.51,520.24h.59l-6.26,13.76c-1.59,3.45-2.56,4.13-4.32,4.13-.94,0-1.92-.32-2.54-.73l.27-.46c.62,.35,1.51,.67,2.26,.67,1.59,0,2.4-.65,3.91-3.89l-6.5-13.49h.62l6.15,12.9,5.8-12.9Z"/>
      <path class="cls-1" d="M257.79,533.74h-.62l-5.99-12.85-5.96,12.85h-.59l6.31-13.6h.48l6.37,13.6Z"/>
      <path class="cls-1" d="M260.6,532.33h.97v1.4h-.97v-1.4Z"/>
      <path class="cls-1" d="M283.62,528.8h-11.12l-.16-.35,11.36-13.74h.49v13.55h3.1v.54h-3.1v4.94h-.57v-4.94Zm0-.54v-12.63l-10.44,12.63h10.44Z"/>
      <path class="cls-1" d="M289.64,535.57c.62-.3,.73-.86,.7-1.84h-.49v-1.4h.97v1.24c0,1.54-.27,2.05-1,2.35l-.19-.35Z"/>
      <path class="cls-1" d="M142.64,549.16c1.81-1.48,4.32-2.64,7.26-2.64,3.91,0,6.56,2,6.56,4.83v.03c0,2.73-2.13,4.34-4.69,4.78,2.75,.3,5.1,1.86,5.1,4.67v.03c0,3.21-3.27,5.21-7.07,5.21-3.1,0-5.29-.86-7.37-2.46l.38-.43c2.05,1.59,4.21,2.35,6.99,2.35,3.37,0,6.48-1.73,6.48-4.67v-.03c0-2.62-2.24-4.37-6.42-4.37h-3.45v-.54h3.35c3.56,0,6.13-1.7,6.13-4.51v-.03c0-2.51-2.4-4.32-5.96-4.32-2.83,0-5.05,1.11-6.88,2.51l-.38-.4Z"/>
      <path class="cls-1" d="M159.86,562v-.05c0-2.83,2.67-4.29,6.02-4.29,1.92,0,3.7,.32,5.07,.84v-1.13c0-3.26-1.94-4.8-5.1-4.8-1.7,0-3.08,.46-4.48,1.13l-.22-.49c1.51-.73,2.97-1.19,4.72-1.19,1.89,0,3.32,.49,4.32,1.48,.84,.84,1.32,2.13,1.32,3.83v8.39h-.57v-3.18c-.57,1.59-2.59,3.51-6.05,3.51-2.64,0-5.05-1.38-5.05-4.05Zm11.09-1.21v-1.73c-1.43-.54-3-.86-5.05-.86-3.05,0-5.45,1.24-5.45,3.72v.05c0,2.37,2.1,3.54,4.48,3.54,3.59,0,6.02-2.35,6.02-4.72Z"/>
      <path class="cls-1" d="M176.27,552.23h.57l6.42,8.96,6.39-8.96h.57v13.49h-.57v-12.52l-6.37,8.82h-.08l-6.37-8.82v12.52h-.57v-13.49Z"/>
      <path class="cls-1" d="M194.28,559.03v-.05c0-3.75,2.78-7.07,7.02-7.07s7.02,3.24,7.02,7.02v.05c0,3.8-2.78,7.07-7.02,7.07s-7.02-3.24-7.02-7.02Zm13.44-.03v-.05c0-3.56-2.67-6.5-6.45-6.5s-6.39,2.94-6.39,6.5v.05c0,3.56,2.67,6.5,6.45,6.5s6.39-2.94,6.39-6.5Z"/>
      <path class="cls-1" d="M212.93,558.66h3.24l6.34-6.42h.76l-6.64,6.69,7.07,6.8h-.78l-6.8-6.56h-3.18v6.56h-.57v-13.49h.57v6.42Z"/>
      <path class="cls-1" d="M235.25,546.84h13.09v.54h-12.49v8.12h6.96c4.53,0,7.04,1.78,7.04,5.02v.05c0,3.37-2.7,5.15-7.21,5.15h-7.39v-18.89Zm7.42,18.35c4.1,0,6.58-1.59,6.58-4.59v-.05c0-2.81-2.21-4.51-6.45-4.51h-6.96v9.15h6.83Z"/>
      <path class="cls-1" d="M268.99,565.73v-17.92l-14.33,17.92h-.51v-18.89h.59v17.92l14.33-17.92h.51v18.89h-.59Z"/>
      <path class="cls-1" d="M275.2,546.84h14.54v18.89h-.59v-18.35h-13.36v18.35h-.59v-18.89Z"/>
    </g>
    <rect class="cls-2" x=".69" y=".34" width="349.28" height="349.28"/>
    <rect class="cls-2" x="350.01" y="349.48" width="349.18" height="349.18"/>
    <g>
      <path class="cls-3" d="M103.88,171.23h1.11c3.96,0,6.45-2.11,6.45-4.85v-6.43c0-3.98,3.32-4.99,6.54-4.99,2.95,0,4.79,.96,4.79,2.16s-1.57,2.02-3.59,2.02c-1.38,0-2.12-.29-3.04-.77-.65-.34-1.11-.48-1.66-.48-1.01,0-1.84,.77-1.84,2.78v5.66c0,2.5-1.75,4.37-4.98,5.09,4.61,.67,10.87,1.87,10.87,7.29v9.45c0,.72,.65,1.06,1.57,1.06,1.47,0,3.22-1.01,3.22-4.32,0-.29,.09-.34,.55-.34s.55,.05,.55,.34c0,3.79-2.4,5.95-7.65,5.95-3.87,0-7.28-1.3-7.28-4.37v-12.24c0-1.78-.92-2.4-3.96-2.4h-1.66v18.04h2.76c.37,0,.46,.05,.46,.34,0,.24-.09,.29-.46,.29h-14.74c-.37,0-.46-.05-.46-.29,0-.29,.09-.34,.46-.34h2.76v-34.03h-2.76c-.37,0-.46-.05-.46-.34,0-.24,.09-.29,.46-.29h14.74c.37,0,.46,.05,.46,.29,0,.29-.09,.34-.46,.34h-2.76v15.36Z"/>
      <path class="cls-3" d="M150.42,172.81c0,13.63-5.53,18.09-12.44,18.09s-12.44-4.46-12.44-18.09,5.53-17.95,12.44-17.95,12.44,4.46,12.44,17.95Zm-15.39,13.68c0,2.88,1.29,3.79,2.95,3.79s2.95-.91,2.95-3.79v-27.21c0-2.88-1.29-3.79-2.95-3.79s-2.95,.91-2.95,3.79v27.21Z"/>
      <path class="cls-3" d="M157.79,155.87h-2.76c-.37,0-.46-.05-.46-.34,0-.24,.09-.29,.46-.29h25.06v14.93c0,.19-.18,.34-.55,.34s-.64-.05-.64-.34c0-.43-2.21-14.3-7.65-14.3h-4.24v34.03h2.76c.37,0,.46,.05,.46,.34,0,.24-.09,.29-.46,.29h-14.74c-.37,0-.46-.05-.46-.29,0-.29,.09-.34,.46-.34h2.76v-34.03Z"/>
      <path class="cls-3" d="M210.58,189.89v11.18c0,.24-.09,.29-.55,.29-.55,0-.65-.05-.65-.29,0-4.99-4.15-10.56-9.58-10.56h-8.85c-5.44,0-9.58,5.57-9.58,10.56,0,.24-.09,.29-.64,.29-.46,0-.55-.05-.55-.29v-11.18h2.4c3.5-1.39,5.34-4.94,5.71-10.94l1.29-20.83c.09-1.15-.65-2.26-4.24-2.26h-2.76c-.37,0-.46-.05-.46-.34,0-.24,.09-.29,.46-.29h26.44c.37,0,.46,.05,.46,.29,0,.29-.09,.34-.46,.34h-2.76v34.03h4.33Zm-13.54-34.03h-2.86c-1.84,0-3.32,.19-3.41,2.26l-1.29,20.83c-.37,6.09-1.2,9.07-2.76,10.94h10.32v-34.03Z"/>
      <path class="cls-3" d="M235.55,189.89h1.94c.37,0,.55,.14,.55,.34,0,.14-.18,.29-.55,.29h-12.62c-.37,0-.46-.05-.46-.29,0-.29,.09-.34,.46-.34h1.84l-2.12-10.75h-6.82l-1.38,6.14c-.18,.86-.37,1.39-.37,2.4,0,1.39,1.2,2.21,3.78,2.21,.37,0,.46,.1,.46,.34,0,.19-.09,.29-.46,.29h-9.03c-.28,0-.46-.05-.46-.29,0-.29,.09-.34,.46-.34,1.94,0,3.78-1.1,4.24-3.41l5.53-27.59-.55-2.59-1.29,.1c-.18,0-.46-.1-.46-.38,0-.14,.09-.19,.37-.24l9.95-.82,7,34.94Zm-11.15-11.37l-3.13-17.42-3.32,17.42h6.45Z"/>
      <path class="cls-3" d="M251.4,158.65c0-1.82-1.29-3.12-3.5-3.12-3.32,0-7,2.74-7,5.52,0,2.5,6.91,2.3,6.91,5.14,0,.86-1.29,1.58-3.22,1.58-3.22,0-5.53-1.49-5.53-4.51,0-4.85,4.33-8.4,10.23-8.4,6.54,0,10.41,2.64,10.41,7.05,0,4.17-1.2,5.61-7.74,9.36-1.66,.96-6.63,3.89-6.63,6.86,0,1.63,2.12,2.93,4.79,2.93,2.86,0,4.7-1.1,4.7-2.83,0-1.82-2.3-1.06-2.3-2.4,0-.48,.55-.77,1.2-.77,1.29,0,2.3,1.34,2.3,3.02,0,2.21-2.3,3.6-5.9,3.6s-5.99-1.63-5.99-3.84c0-1.15,.74-2.3,3.04-4.65,3.41-3.46,4.24-5.47,4.24-7.97v-6.58Zm2.76,29.32c0,1.54-1.84,2.69-4.05,2.69s-4.05-1.15-4.05-2.69,1.84-2.78,4.05-2.78,4.05,1.25,4.05,2.78Z"/>
    </g>
    <g>
      <path class="cls-3" d="M473.14,504.81h-2.76c-.37,0-.46-.05-.46-.34,0-.24,.09-.29,.46-.29h25.06v14.93c0,.19-.18,.34-.55,.34s-.64-.05-.64-.34c0-.43-2.21-14.3-7.65-14.3h-4.24v34.03h2.76c.37,0,.46,.05,.46,.34,0,.24-.09,.29-.46,.29h-14.74c-.37,0-.46-.05-.46-.29,0-.29,.09-.34,.46-.34h2.76v-34.03Z"/>
      <path class="cls-3" d="M525.93,538.84v11.18c0,.24-.09,.29-.55,.29-.55,0-.65-.05-.65-.29,0-4.99-4.15-10.56-9.58-10.56h-8.85c-5.44,0-9.58,5.57-9.58,10.56,0,.24-.09,.29-.64,.29-.46,0-.55-.05-.55-.29v-11.18h2.39c3.5-1.39,5.34-4.94,5.71-10.94l1.29-20.83c.09-1.15-.65-2.26-4.24-2.26h-2.76c-.37,0-.46-.05-.46-.34,0-.24,.09-.29,.46-.29h26.44c.37,0,.46,.05,.46,.29,0,.29-.09,.34-.46,.34h-2.76v34.03h4.33Zm-13.54-34.03h-2.86c-1.84,0-3.32,.19-3.41,2.26l-1.29,20.83c-.37,6.09-1.2,9.07-2.76,10.94h10.32v-34.03Z"/>
      <path class="cls-3" d="M531.37,504.81h-2.76c-.37,0-.46-.05-.46-.34,0-.24,.09-.29,.46-.29h25.34v11.18c0,.24-.09,.29-.55,.29-.55,0-.64-.05-.64-.29,0-4.99-4.15-10.56-9.58-10.56h-2.58v14.83c0,.38,.28,.53,.74,.53,2.67,0,5.62-2.78,5.62-6.53v-.82c0-.24,.09-.29,.55-.29s.55,.05,.55,.29v15.36c0,.19-.18,.24-.55,.24s-.55-.05-.55-.24v-.67c0-2.45-2.12-6.72-5.62-6.72-.37,0-.74,.29-.74,.72v17.32h2.95c6.91,0,9.21-10.7,9.21-13.82,0-.24,.18-.29,.64-.29s.55,.05,.55,.29v14.45h-25.34c-.37,0-.46-.05-.46-.29,0-.29,.09-.34,.46-.34h2.76v-34.03Z"/>
      <path class="cls-3" d="M571.17,507.6c0-1.82-1.29-3.12-3.5-3.12-3.32,0-7,2.74-7,5.52,0,2.5,6.91,2.3,6.91,5.14,0,.86-1.29,1.58-3.22,1.58-3.22,0-5.53-1.49-5.53-4.51,0-4.85,4.33-8.4,10.23-8.4,6.54,0,10.41,2.64,10.41,7.05,0,4.17-1.2,5.61-7.74,9.36-1.66,.96-6.63,3.89-6.63,6.86,0,1.63,2.12,2.93,4.79,2.93,2.86,0,4.7-1.1,4.7-2.83,0-1.82-2.3-1.06-2.3-2.4,0-.48,.55-.77,1.2-.77,1.29,0,2.3,1.34,2.3,3.02,0,2.21-2.3,3.6-5.9,3.6s-5.99-1.63-5.99-3.84c0-1.15,.74-2.3,3.04-4.65,3.41-3.46,4.24-5.47,4.24-7.97v-6.58Zm2.76,29.32c0,1.54-1.84,2.69-4.05,2.69s-4.05-1.15-4.05-2.69,1.84-2.78,4.05-2.78,4.05,1.25,4.05,2.78Z"/>
    </g>
  </g>
</svg>