<?xml version="1.0" encoding="UTF-8"?>
<svg id="_Слой_2" data-name="Слой 2" xmlns="http://www.w3.org/2000/svg" viewBox="0 0 433.73 102.61">
  <defs>
    <style>
      .cls-1 {
        fill: #8f3662;
      }
    </style>
  </defs>
  <g id="Layer_1" data-name="Layer 1">
    <g>
      <path class="cls-1" d="M160.78,42.21h-2.39c-.32,0-.4-.06-.4-.34,0-.34,.08-.4,.4-.4h2.39V1.08h-2.39c-.32,0-.4-.06-.4-.4,0-.29,.08-.34,.4-.34h11.31c6.53,0,11.87,3.59,11.87,9.46,0,7.75-6.21,9.06-9.16,9.85,4.38,1.03,9.56,4.16,9.56,10.77,0,7.41-4.62,11.79-12.67,11.79h-8.52ZM168.74,1.08V19.31h2.07c1.51,0,2.79-.46,2.79-2.51V3.82c0-1.94-1.12-2.73-3.43-2.73h-1.43Zm0,40.38h1.35c1.99,0,3.66-.63,3.66-2.68v-15.66c0-1.88-1.27-3.08-3.03-3.08h-1.99v21.42Z"/>
      <path class="cls-1" d="M204.51,41.47h1.67c.32,0,.48,.17,.48,.4,0,.17-.16,.34-.48,.34h-10.92c-.32,0-.4-.06-.4-.34,0-.34,.08-.4,.4-.4h1.59l-1.83-12.76h-5.9l-1.2,7.29c-.16,1.03-.32,1.65-.32,2.85,0,1.65,1.04,2.62,3.27,2.62,.32,0,.4,.11,.4,.4,0,.23-.08,.34-.4,.34h-7.81c-.24,0-.4-.06-.4-.34,0-.34,.08-.4,.4-.4,1.67,0,3.27-1.31,3.67-4.04l4.78-32.75-.48-3.08-1.12,.12c-.16,0-.4-.12-.4-.46,0-.17,.08-.23,.32-.29l8.6-.97,6.05,41.47Zm-9.64-13.5l-2.71-20.68-2.87,20.68h5.58Z"/>
      <path class="cls-1" d="M209.69,1.08h-2.39c-.32,0-.4-.06-.4-.4,0-.29,.08-.34,.4-.34h11.55c.32,0,.4,.06,.4,.34,0,.34-.08,.4-.4,.4h-1.35V41.47h4.78V1.08h-1.35c-.32,0-.4-.06-.4-.4,0-.29,.08-.34,.4-.34h10.52c.32,0,.4,.06,.4,.34,0,.34-.08,.4-.4,.4h-1.35V41.47h4.78V1.08h-1.35c-.32,0-.4-.06-.4-.4,0-.29,.08-.34,.4-.34h11.55c.32,0,.4,.06,.4,.34,0,.34-.08,.4-.4,.4h-2.39V41.47h2.39c.32,0,.4,.06,.4,.4,0,.29-.08,.34-.4,.34h-37.76c-.32,0-.4-.06-.4-.34,0-.34,.08-.4,.4-.4h2.39V1.08Z"/>
      <path class="cls-1" d="M250.65,1.08h-2.39c-.32,0-.4-.06-.4-.4,0-.29,.08-.34,.4-.34h11.71c.32,0,.4,.06,.4,.34,0,.34-.08,.4-.4,.4h-1.35V23.7c0,.51-.08,1.25-.16,1.82h.16l6.37-14.3V1.08h-1.35c-.32,0-.4-.06-.4-.4,0-.29,.08-.34,.4-.34h11.71c.32,0,.4,.06,.4,.34,0,.34-.08,.4-.4,.4h-2.39V41.47h2.39c.32,0,.4,.06,.4,.4,0,.29-.08,.34-.4,.34h-11.71c-.32,0-.4-.06-.4-.34,0-.34,.08-.4,.4-.4h1.35V15.66c0-.4,.08-1.54,.16-2.11h-.16l-6.37,14.41v13.5h1.35c.32,0,.4,.06,.4,.4,0,.29-.08,.34-.4,.34h-11.71c-.32,0-.4-.06-.4-.34,0-.34,.08-.4,.4-.4h2.39V1.08Z"/>
      <path class="cls-1" d="M2.79,102.21H.4c-.32,0-.4-.06-.4-.34,0-.34,.08-.4,.4-.4H2.79V61.08H.4c-.32,0-.4-.06-.4-.4,0-.29,.08-.34,.4-.34H11.71c6.53,0,11.87,3.59,11.87,9.46,0,7.75-6.21,9.06-9.16,9.85,4.38,1.03,9.56,4.16,9.56,10.77,0,7.41-4.62,11.79-12.67,11.79H2.79Zm7.97-41.12v18.23h2.07c1.51,0,2.79-.46,2.79-2.51v-12.99c0-1.94-1.12-2.73-3.43-2.73h-1.43Zm0,40.38h1.35c1.99,0,3.66-.63,3.66-2.68v-15.66c0-1.88-1.27-3.08-3.03-3.08h-1.99v21.42Z"/>
      <path class="cls-1" d="M29.64,61.08h-2.39c-.32,0-.4-.06-.4-.4,0-.29,.08-.34,.4-.34h11.71c.32,0,.4,.06,.4,.34,0,.34-.08,.4-.4,.4h-1.35v22.61c0,.51-.08,1.25-.16,1.82h.16l6.37-14.3v-10.14h-1.35c-.32,0-.4-.06-.4-.4,0-.29,.08-.34,.4-.34h11.71c.32,0,.4,.06,.4,.34,0,.34-.08,.4-.4,.4h-2.39v40.38h2.39c.32,0,.4,.06,.4,.4,0,.29-.08,.34-.4,.34h-11.71c-.32,0-.4-.06-.4-.34,0-.34,.08-.4,.4-.4h1.35v-25.8c0-.4,.08-1.54,.16-2.11h-.16l-6.37,14.41v13.5h1.35c.32,0,.4,.06,.4,.4,0,.29-.08,.34-.4,.34h-11.71c-.32,0-.4-.06-.4-.34,0-.34,.08-.4,.4-.4h2.39V61.08Z"/>
      <path class="cls-1" d="M77.28,101.47c.32,0,.4,.17,.4,.34v.06c0,.17-.08,.34-.4,.34h-15.14c-.32,0-.4-.17-.4-.34v-.06c0-.17,.08-.34,.4-.34h3.58V61.08h-.88c-4.54,0-6.69,16.46-6.69,16.97,0,.34-.24,.4-.56,.4s-.48-.17-.48-.4v-17.71h25.17v17.71c0,.23-.16,.4-.48,.4s-.56-.06-.56-.4c0-.51-1.91-16.97-6.61-16.97h-.96v40.38h3.58Z"/>
      <path class="cls-1" d="M102.69,101.47h1.67c.32,0,.48,.17,.48,.4,0,.17-.16,.34-.48,.34h-10.92c-.32,0-.4-.06-.4-.34,0-.34,.08-.4,.4-.4h1.59l-1.83-12.76h-5.9l-1.2,7.29c-.16,1.03-.32,1.65-.32,2.85,0,1.65,1.04,2.62,3.27,2.62,.32,0,.4,.11,.4,.4,0,.23-.08,.34-.4,.34h-7.81c-.24,0-.4-.06-.4-.34,0-.34,.08-.4,.4-.4,1.67,0,3.27-1.31,3.67-4.04l4.78-32.75-.48-3.08-1.12,.12c-.16,0-.4-.12-.4-.46,0-.17,.08-.23,.32-.29l8.6-.97,6.05,41.47Zm-9.64-13.5l-2.71-20.68-2.87,20.68h5.58Z"/>
      <path class="cls-1" d="M128.11,101.47h2.39c.32,0,.4,.06,.4,.4,0,.29-.08,.34-.4,.34h-12.75c-.32,0-.4-.06-.4-.34,0-.34,.08-.4,.4-.4h2.39V61.08h-3.5c-1.43,0-1.67,.34-1.75,2.68l-.56,29.45c-.08,5.75-.96,9.34-5.58,9.34-3.27,0-5.5-2.33-5.5-5.53,0-2.68,1.59-4.33,4.14-4.33,1.12,0,2.79,.57,2.79,1.99,0,2.56-5.02,1.54-5.02,4.5,0,1.2,1.12,2.62,3.74,2.62,3.43,0,4.3-3.13,4.38-8.71l.56-29.33c0-1.37-.64-2.68-3.82-2.68h-2.39c-.32,0-.4-.06-.4-.4,0-.29,.08-.34,.4-.34h22.86c.32,0,.4,.06,.4,.34,0,.34-.08,.4-.4,.4h-2.39v40.38Z"/>
      <path class="cls-1" d="M136.48,61.08h-2.39c-.32,0-.4-.06-.4-.4,0-.29,.08-.34,.4-.34h11.71c.32,0,.4,.06,.4,.34,0,.34-.08,.4-.4,.4h-1.35v22.61c0,.51-.08,1.25-.16,1.82h.16l6.37-14.3v-10.14h-1.35c-.32,0-.4-.06-.4-.4,0-.29,.08-.34,.4-.34h11.71c.32,0,.4,.06,.4,.34,0,.34-.08,.4-.4,.4h-2.39v40.38h2.39c.32,0,.4,.06,.4,.4,0,.29-.08,.34-.4,.34h-11.71c-.32,0-.4-.06-.4-.34,0-.34,.08-.4,.4-.4h1.35v-25.8c0-.4,.08-1.54,.16-2.11h-.16l-6.37,14.41v13.5h1.35c.32,0,.4,.06,.4,.4,0,.29-.08,.34-.4,.34h-11.71c-.32,0-.4-.06-.4-.34,0-.34,.08-.4,.4-.4h2.39V61.08Z"/>
      <path class="cls-1" d="M166.75,61.08h-2.39c-.32,0-.4-.06-.4-.4,0-.29,.08-.34,.4-.34h11.71c.32,0,.4,.06,.4,.34,0,.34-.08,.4-.4,.4h-1.35v22.61c0,.51-.08,1.25-.16,1.82h.16l6.37-14.3v-10.14h-1.35c-.32,0-.4-.06-.4-.4,0-.29,.08-.34,.4-.34h11.71c.32,0,.4,.06,.4,.34,0,.34-.08,.4-.4,.4h-2.39v40.38h2.39c.32,0,.4,.06,.4,.4,0,.29-.08,.34-.4,.34h-11.71c-.32,0-.4-.06-.4-.34,0-.34,.08-.4,.4-.4h1.35v-25.8c0-.4,.08-1.54,.16-2.11h-.16l-6.37,14.41v13.5h1.35c.32,0,.4,.06,.4,.4,0,.29-.08,.34-.4,.34h-11.71c-.32,0-.4-.06-.4-.34,0-.34,.08-.4,.4-.4h2.39V61.08Zm16.49-5.58c0-.91-2.15-.91-2.15-2.45,0-1.25,1.2-2.11,3.03-2.11,1.59,0,2.87,1.14,2.87,2.51,0,3.08-4.78,4.73-9,4.73s-9.16-1.65-9.16-4.73c0-1.37,1.12-2.51,2.95-2.51,1.59,0,2.95,.97,2.95,2.11,0,1.54-2.07,1.54-2.07,2.45,0,1.48,3.43,1.94,5.34,1.94s5.26-.46,5.26-1.94Z"/>
      <path class="cls-1" d="M208.18,61.08h-2.39c-.32,0-.4-.06-.4-.4,0-.29,.08-.34,.4-.34h11.71c.32,0,.4,.06,.4,.34,0,.34-.08,.4-.4,.4h-1.35v22.61c0,.51-.08,1.25-.16,1.82h.16l6.37-14.3v-10.14h-1.35c-.32,0-.4-.06-.4-.4,0-.29,.08-.34,.4-.34h11.71c.32,0,.4,.06,.4,.34,0,.34-.08,.4-.4,.4h-2.39v40.38h2.39c.32,0,.4,.06,.4,.4,0,.29-.08,.34-.4,.34h-11.71c-.32,0-.4-.06-.4-.34,0-.34,.08-.4,.4-.4h1.35v-25.8c0-.4,.08-1.54,.16-2.11h-.16l-6.37,14.41v13.5h1.35c.32,0,.4,.06,.4,.4,0,.29-.08,.34-.4,.34h-11.71c-.32,0-.4-.06-.4-.34,0-.34,.08-.4,.4-.4h2.39V61.08Z"/>
      <path class="cls-1" d="M249.61,102.21h-2.39c-.32,0-.4-.06-.4-.34,0-.34,.08-.4,.4-.4h2.39V61.08h-2.39c-.32,0-.4-.06-.4-.4,0-.29,.08-.34,.4-.34h11.31c6.53,0,11.87,3.59,11.87,9.46,0,7.75-6.21,9.06-9.16,9.85,4.38,1.03,9.56,4.16,9.56,10.77,0,7.41-4.62,11.79-12.67,11.79h-8.52Zm7.97-41.12v18.23h2.07c1.51,0,2.79-.46,2.79-2.51v-12.99c0-1.94-1.12-2.73-3.43-2.73h-1.43Zm0,40.38h1.35c1.99,0,3.66-.63,3.66-2.68v-15.66c0-1.88-1.27-3.08-3.03-3.08h-1.99v21.42Z"/>
      <path class="cls-1" d="M293.35,101.47h1.67c.32,0,.48,.17,.48,.4,0,.17-.16,.34-.48,.34h-10.92c-.32,0-.4-.06-.4-.34,0-.34,.08-.4,.4-.4h1.59l-1.83-12.76h-5.9l-1.2,7.29c-.16,1.03-.32,1.65-.32,2.85,0,1.65,1.04,2.62,3.27,2.62,.32,0,.4,.11,.4,.4,0,.23-.08,.34-.4,.34h-7.81c-.24,0-.4-.06-.4-.34,0-.34,.08-.4,.4-.4,1.67,0,3.27-1.31,3.67-4.04l4.78-32.75-.48-3.08-1.12,.12c-.16,0-.4-.12-.4-.46,0-.17,.08-.23,.32-.29l8.6-.97,6.05,41.47Zm-9.64-13.5l-2.71-20.68-2.87,20.68h5.58Z"/>
      <path class="cls-1" d="M318.76,101.47h2.39c.32,0,.4,.06,.4,.4,0,.29-.08,.34-.4,.34h-12.75c-.32,0-.4-.06-.4-.34,0-.34,.08-.4,.4-.4h2.39V61.08h-3.51c-1.43,0-1.67,.34-1.75,2.68l-.56,29.45c-.08,5.75-.96,9.34-5.58,9.34-3.27,0-5.5-2.33-5.5-5.53,0-2.68,1.59-4.33,4.14-4.33,1.12,0,2.79,.57,2.79,1.99,0,2.56-5.02,1.54-5.02,4.5,0,1.2,1.12,2.62,3.74,2.62,3.43,0,4.3-3.13,4.38-8.71l.56-29.33c0-1.37-.64-2.68-3.82-2.68h-2.39c-.32,0-.4-.06-.4-.4,0-.29,.08-.34,.4-.34h22.86c.32,0,.4,.06,.4,.34,0,.34-.08,.4-.4,.4h-2.39v40.38Z"/>
      <path class="cls-1" d="M327.13,61.08h-2.39c-.32,0-.4-.06-.4-.4,0-.29,.08-.34,.4-.34h21.91v13.27c0,.29-.08,.34-.48,.34-.48,0-.56-.06-.56-.34,0-5.92-3.58-12.53-8.29-12.53h-2.23v17.6c0,.46,.24,.63,.64,.63,2.31,0,4.86-3.3,4.86-7.75v-.97c0-.29,.08-.34,.48-.34s.48,.06,.48,.34v18.23c0,.23-.16,.29-.48,.29s-.48-.06-.48-.29v-.8c0-2.9-1.83-7.97-4.86-7.97-.32,0-.64,.34-.64,.86v20.56h2.55c5.98,0,7.97-12.7,7.97-16.4,0-.29,.16-.34,.56-.34s.48,.06,.48,.34v17.14h-21.91c-.32,0-.4-.06-.4-.34,0-.34,.08-.4,.4-.4h2.39V61.08Z"/>
      <path class="cls-1" d="M353.02,61.08h-2.39c-.32,0-.4-.06-.4-.4,0-.29,.08-.34,.4-.34h11.47c6.77,0,12.11,4.5,12.11,11.39v1.71c0,6.61-5.26,10.82-12.03,10.82h-1.19v17.2h2.39c.32,0,.4,.06,.4,.4,0,.29-.08,.34-.4,.34h-12.75c-.32,0-.4-.06-.4-.34,0-.34,.08-.4,.4-.4h2.39V61.08Zm7.97,0v22.44h1.59c1.83,0,3.43-.74,3.43-3.07v-16.58c0-1.77-1.04-2.79-2.87-2.79h-2.15Z"/>
      <path class="cls-1" d="M379.4,61.08h-2.39c-.32,0-.4-.06-.4-.4,0-.29,.08-.34,.4-.34h11.71c.32,0,.4,.06,.4,.34,0,.34-.08,.4-.4,.4h-1.35v22.61c0,.51-.08,1.25-.16,1.82h.16l6.37-14.3v-10.14h-1.35c-.32,0-.4-.06-.4-.4,0-.29,.08-.34,.4-.34h11.71c.32,0,.4,.06,.4,.34,0,.34-.08,.4-.4,.4h-2.39v40.38h2.39c.32,0,.4,.06,.4,.4,0,.29-.08,.34-.4,.34h-11.71c-.32,0-.4-.06-.4-.34,0-.34,.08-.4,.4-.4h1.35v-25.8c0-.4,.08-1.54,.16-2.11h-.16l-6.37,14.41v13.5h1.35c.32,0,.4,.06,.4,.4,0,.29-.08,.34-.4,.34h-11.71c-.32,0-.4-.06-.4-.34,0-.34,.08-.4,.4-.4h2.39V61.08Z"/>
      <path class="cls-1" d="M422.97,81.07h-1.43c-2.63,0-3.43,.8-3.43,2.91v13.44c0,3.65-2.95,5.18-6.29,5.18-4.54,0-6.61-2.56-6.61-7.06,0-.34,.08-.4,.48-.4s.48,.06,.48,.4c0,3.93,1.51,5.13,2.79,5.13,.8,0,1.19-.4,1.19-1.25v-10.14c0-6.44,5.42-7.75,9.4-8.54-2.87-.68-9.88-2.39-9.88-10.02,0-5.98,4.78-10.37,11.31-10.37h12.35c.32,0,.4,.06,.4,.34,0,.34-.08,.4-.4,.4h-2.39v40.38h2.39c.32,0,.4,.06,.4,.4,0,.29-.08,.34-.4,.34h-12.75c-.32,0-.4-.06-.4-.34,0-.34,.08-.4,.4-.4h2.39v-20.39Zm-5.1-17.49v14.13c0,1.59,1.2,2.62,3.11,2.62h1.99v-19.25h-1.99c-2.39,0-3.11,.85-3.11,2.51Z"/>
    </g>
  </g>
</svg>