<?xml version="1.0" encoding="UTF-8"?>
<svg id="_Слой_2" data-name="Слой 2" xmlns="http://www.w3.org/2000/svg" viewBox="0 0 698.55 1153.67">
  <defs>
    <style>
      .cls-1 {
        fill: #efdc00;
      }

      .cls-2 {
        fill: #fdf5b3;
      }

      .cls-3 {
        fill: none;
        stroke: #e8d12f;
        stroke-miterlimit: 10;
      }

      .cls-4 {
        fill: #715f1e;
      }

      .cls-5 {
        fill: #e8d12f;
      }
    </style>
  </defs>
  <g id="Layer_1" data-name="Layer 1">
    <rect class="cls-2" width="698.55" height="1153.67"/>
    <g>
      <path class="cls-4" d="M325.58,130.03h11.69v13.5h-.57v-12.98h-10.55v12.98h-.57v-13.5Z"/>
      <path class="cls-4" d="M341.32,136.83v-.05c0-3.75,2.78-7.07,7.02-7.07s7.02,3.24,7.02,7.02v.05c0,3.81-2.78,7.07-7.02,7.07s-7.02-3.24-7.02-7.02Zm13.44-.03v-.05c0-3.56-2.67-6.5-6.45-6.5s-6.4,2.94-6.4,6.5v.05c0,3.56,2.67,6.51,6.45,6.51s6.4-2.94,6.4-6.51Z"/>
      <path class="cls-4" d="M371.34,143.02h1.65v4.29h-.57v-3.78h-15.36v3.78h-.57v-4.29h1.65l6.32-13.09h.54l6.34,13.09Zm-12.61,0h11.99l-5.99-12.39-5.99,12.39Z"/>
      <path class="cls-4" d="M374.77,139.8v-.05c0-2.83,2.67-4.29,6.02-4.29,1.92,0,3.7,.32,5.07,.84v-1.13c0-3.27-1.94-4.8-5.1-4.8-1.7,0-3.08,.46-4.48,1.13l-.22-.49c1.51-.73,2.97-1.19,4.72-1.19,1.89,0,3.32,.49,4.32,1.48,.84,.84,1.32,2.13,1.32,3.83v8.39h-.57v-3.19c-.57,1.59-2.59,3.51-6.05,3.51-2.64,0-5.05-1.38-5.05-4.05Zm11.09-1.21v-1.73c-1.43-.54-3-.86-5.05-.86-3.05,0-5.45,1.24-5.45,3.73v.05c0,2.38,2.11,3.54,4.48,3.54,3.59,0,6.02-2.35,6.02-4.72Z"/>
      <path class="cls-4" d="M400.88,138.32c-1.4,.41-3,.67-4.72,.67-3.64,0-5.67-1.4-5.67-4.75v-4.21h.57v4.18c0,3.02,1.83,4.24,5.1,4.24,1.65,0,3.24-.27,4.72-.67v-7.75h.57v13.5h-.57v-5.21Z"/>
      <path class="cls-4" d="M405.34,139.8v-.05c0-2.83,2.67-4.29,6.02-4.29,1.92,0,3.7,.32,5.07,.84v-1.13c0-3.27-1.94-4.8-5.1-4.8-1.7,0-3.08,.46-4.48,1.13l-.22-.49c1.51-.73,2.97-1.19,4.72-1.19,1.89,0,3.32,.49,4.32,1.48,.84,.84,1.32,2.13,1.32,3.83v8.39h-.57v-3.19c-.57,1.59-2.59,3.51-6.05,3.51-2.64,0-5.05-1.38-5.05-4.05Zm11.09-1.21v-1.73c-1.43-.54-3-.86-5.05-.86-3.05,0-5.45,1.24-5.45,3.73v.05c0,2.38,2.11,3.54,4.48,3.54,3.59,0,6.02-2.35,6.02-4.72Z"/>
      <path class="cls-4" d="M434.09,130.54h-6.18v-.51h12.93v.51h-6.18v12.98h-.57v-12.98Z"/>
      <path class="cls-4" d="M443.92,130.03h.57v4.18c.78-2.59,3.1-4.51,6.24-4.51,3.91,0,6.75,3.13,6.75,7.04v.05c0,3.91-2.83,7.05-6.75,7.05-3.13,0-5.45-1.92-6.24-4.51v8.5h-.57v-17.81Zm12.96,6.8v-.05c0-3.59-2.48-6.53-6.18-6.53s-6.24,3-6.24,6.5v.05c0,3.48,2.59,6.51,6.24,6.51s6.18-2.86,6.18-6.48Z"/>
      <path class="cls-4" d="M460.47,139.8v-.05c0-2.83,2.67-4.29,6.02-4.29,1.92,0,3.7,.32,5.07,.84v-1.13c0-3.27-1.94-4.8-5.1-4.8-1.7,0-3.08,.46-4.48,1.13l-.22-.49c1.51-.73,2.97-1.19,4.72-1.19,1.89,0,3.32,.49,4.32,1.48,.84,.84,1.32,2.13,1.32,3.83v8.39h-.57v-3.19c-.57,1.59-2.59,3.51-6.05,3.51-2.64,0-5.05-1.38-5.05-4.05Zm11.09-1.21v-1.73c-1.43-.54-3-.86-5.05-.86-3.05,0-5.45,1.24-5.45,3.73v.05c0,2.38,2.11,3.54,4.48,3.54,3.59,0,6.02-2.35,6.02-4.72Z"/>
      <path class="cls-4" d="M476.88,130.03h.57v6.42h10.63v-6.42h.57v13.5h-.57v-6.56h-10.63v6.56h-.57v-13.5Z"/>
      <path class="cls-4" d="M492.73,136.81v-.05c0-3.81,3-7.04,6.91-7.04,2.48,0,4.02,1.08,5.4,2.51l-.4,.38c-1.21-1.3-2.75-2.35-5.02-2.35-3.59,0-6.29,2.94-6.29,6.48v.05c0,3.54,2.75,6.53,6.32,6.53,2.29,0,3.89-1.13,5.08-2.51l.4,.38c-1.27,1.49-3,2.67-5.51,2.67-3.89,0-6.88-3.24-6.88-7.05Z"/>
      <path class="cls-4" d="M516.36,147.85v-4.26c-5.7-.08-8.93-2.73-8.93-6.75v-.05c0-4.02,3.21-6.72,8.93-6.8v-6.15h.57v6.15c5.7,.08,8.91,2.73,8.91,6.75v.05c0,4.08-3.21,6.72-8.91,6.8v4.26h-.57Zm-8.34-11.04c0,3.73,2.92,6.26,8.34,6.26v-12.58c-5.4,.03-8.34,2.46-8.34,6.26v.05Zm17.22-.05c0-3.75-2.89-6.18-8.31-6.26v12.58c5.43-.03,8.31-2.46,8.31-6.26v-.05Z"/>
      <path class="cls-4" d="M528.91,136.78v-.05c0-4,2.73-7.02,6.48-7.02,4.26,0,6.21,3.75,6.21,7.13v.11h-12.07c.08,3.89,2.86,6.37,6.15,6.37,2.08,0,3.91-1.21,4.99-2.73l.46,.32c-1.16,1.7-3.1,2.94-5.48,2.94-3.67,0-6.75-2.75-6.75-7.07Zm12.07-.35c-.14-3.08-2.03-6.18-5.62-6.18-3.35,0-5.7,2.65-5.83,6.18h11.45Z"/>
      <path class="cls-4" d="M545.6,130.03h.57v4.18c.78-2.59,3.1-4.51,6.24-4.51,3.91,0,6.75,3.13,6.75,7.04v.05c0,3.91-2.83,7.05-6.75,7.05-3.13,0-5.45-1.92-6.24-4.51v8.5h-.57v-17.81Zm12.96,6.8v-.05c0-3.59-2.48-6.53-6.18-6.53s-6.24,3-6.24,6.5v.05c0,3.48,2.59,6.51,6.24,6.51s6.18-2.86,6.18-6.48Z"/>
      <path class="cls-4" d="M562.15,139.8v-.05c0-2.83,2.67-4.29,6.02-4.29,1.92,0,3.7,.32,5.07,.84v-1.13c0-3.27-1.94-4.8-5.1-4.8-1.7,0-3.08,.46-4.48,1.13l-.22-.49c1.51-.73,2.97-1.19,4.72-1.19,1.89,0,3.32,.49,4.32,1.48,.84,.84,1.32,2.13,1.32,3.83v8.39h-.57v-3.19c-.57,1.59-2.59,3.51-6.05,3.51-2.64,0-5.05-1.38-5.05-4.05Zm11.09-1.21v-1.73c-1.43-.54-3-.86-5.05-.86-3.05,0-5.45,1.24-5.45,3.73v.05c0,2.38,2.11,3.54,4.48,3.54,3.59,0,6.02-2.35,6.02-4.72Z"/>
      <path class="cls-4" d="M362.11,168.46h3.24l6.34-6.42h.76l-6.64,6.69,7.07,6.8h-.78l-6.8-6.56h-3.19v6.56h-.57v-13.5h.57v6.42Z"/>
      <path class="cls-4" d="M384.14,162.03h.57l6.42,8.96,6.4-8.96h.57v13.5h-.57v-12.52l-6.37,8.83h-.08l-6.37-8.83v12.52h-.57v-13.5Z"/>
      <path class="cls-4" d="M402.34,174.12h.97v1.4h-.97v-1.4Z"/>
      <path class="cls-4" d="M415.95,156.63h.57l8.23,11.71,8.23-11.71h.54v18.89h-.59v-17.9l-8.18,11.66h-.03l-8.18-11.66v17.9h-.59v-18.89Z"/>
      <path class="cls-4" d="M437.87,168.83v-.05c0-3.75,2.78-7.07,7.02-7.07s7.02,3.24,7.02,7.02v.05c0,3.81-2.78,7.07-7.02,7.07s-7.02-3.24-7.02-7.02Zm13.44-.03v-.05c0-3.56-2.67-6.5-6.45-6.5s-6.4,2.94-6.4,6.5v.05c0,3.56,2.67,6.51,6.45,6.51s6.4-2.94,6.4-6.51Z"/>
      <path class="cls-4" d="M455.02,168.81v-.05c0-3.81,3-7.04,6.91-7.04,2.48,0,4.02,1.08,5.4,2.51l-.4,.38c-1.21-1.3-2.75-2.35-5.02-2.35-3.59,0-6.29,2.94-6.29,6.48v.05c0,3.54,2.75,6.53,6.32,6.53,2.29,0,3.89-1.13,5.08-2.51l.4,.38c-1.27,1.49-3,2.67-5.51,2.67-3.89,0-6.88-3.24-6.88-7.05Z"/>
      <path class="cls-4" d="M471.67,168.46h3.24l6.34-6.42h.76l-6.64,6.69,7.07,6.8h-.78l-6.8-6.56h-3.19v6.56h-.57v-13.5h.57v6.42Z"/>
      <path class="cls-4" d="M483.96,168.83v-.05c0-3.75,2.78-7.07,7.02-7.07s7.02,3.24,7.02,7.02v.05c0,3.81-2.78,7.07-7.02,7.07s-7.02-3.24-7.02-7.02Zm13.44-.03v-.05c0-3.56-2.67-6.5-6.45-6.5s-6.4,2.94-6.4,6.5v.05c0,3.56,2.67,6.51,6.45,6.51s6.4-2.94,6.4-6.51Z"/>
      <path class="cls-4" d="M502.05,162.03h6.94c2.73,0,4.37,1.16,4.37,3.29v.03c0,1.54-1.08,2.86-3,3.21,2.08,.3,3.51,1.51,3.51,3.37v.03c0,2.08-1.67,3.59-4.78,3.56h-7.04v-13.5Zm6.61,6.29c2.48,0,4.08-1.05,4.1-2.97v-.03c.03-1.73-1.3-2.81-3.81-2.78h-6.34v5.78h6.05Zm-6.05,6.69h6.48c2.73,0,4.18-1.24,4.18-3.08v-.03c0-1.75-1.48-3.1-4.62-3.08h-6.05v6.18Z"/>
      <path class="cls-4" d="M517.06,168.81v-.05c0-3.81,3-7.04,6.91-7.04,2.48,0,4.02,1.08,5.4,2.51l-.4,.38c-1.21-1.3-2.75-2.35-5.02-2.35-3.59,0-6.29,2.94-6.29,6.48v.05c0,3.54,2.75,6.53,6.32,6.53,2.29,0,3.89-1.13,5.08-2.51l.4,.38c-1.27,1.49-3,2.67-5.51,2.67-3.89,0-6.88-3.24-6.88-7.05Z"/>
      <path class="cls-4" d="M533.72,168.46h3.24l6.34-6.42h.76l-6.64,6.69,7.07,6.8h-.78l-6.8-6.56h-3.19v6.56h-.57v-13.5h.57v6.42Z"/>
      <path class="cls-4" d="M546.11,171.8v-.05c0-2.83,2.67-4.29,6.02-4.29,1.92,0,3.7,.32,5.07,.84v-1.13c0-3.27-1.94-4.8-5.1-4.8-1.7,0-3.08,.46-4.48,1.13l-.22-.49c1.51-.73,2.97-1.19,4.72-1.19,1.89,0,3.32,.49,4.32,1.48,.84,.84,1.32,2.13,1.32,3.83v8.39h-.57v-3.19c-.57,1.59-2.59,3.51-6.05,3.51-2.64,0-5.05-1.38-5.05-4.05Zm11.09-1.21v-1.73c-1.43-.54-3-.86-5.05-.86-3.05,0-5.45,1.24-5.45,3.73v.05c0,2.38,2.11,3.54,4.48,3.54,3.59,0,6.02-2.35,6.02-4.72Z"/>
      <path class="cls-4" d="M561.37,175.53l4.7-5.56c-2.48-.3-4.05-1.78-4.02-3.94v-.03c0-2.27,1.94-3.97,4.89-3.97h6.61v13.5h-.57v-5.51h-6.26l-4.62,5.51h-.73Zm5.53-13.01c-2.67,0-4.29,1.43-4.29,3.48v.03c0,2.03,1.57,3.51,4.35,3.51h6.02v-7.02h-6.07Z"/>
    </g>
    <g>
      <path class="cls-4" d="M372.26,304.16h-6.18v-.51h12.93v.51h-6.18v12.98h-.57v-12.98Z"/>
      <path class="cls-4" d="M380.31,310.45v-.05c0-3.75,2.78-7.07,7.02-7.07s7.02,3.24,7.02,7.02v.05c0,3.81-2.78,7.07-7.02,7.07s-7.02-3.24-7.02-7.02Zm13.44-.03v-.05c0-3.56-2.67-6.5-6.45-6.5s-6.4,2.94-6.4,6.5v.05c0,3.56,2.67,6.51,6.45,6.51s6.4-2.94,6.4-6.51Z"/>
      <path class="cls-4" d="M398.4,303.65h.57v4.18c.78-2.59,3.1-4.51,6.24-4.51,3.91,0,6.75,3.13,6.75,7.04v.05c0,3.91-2.83,7.05-6.75,7.05-3.13,0-5.45-1.92-6.24-4.51v8.5h-.57v-17.81Zm12.96,6.8v-.05c0-3.59-2.48-6.53-6.18-6.53s-6.24,3-6.24,6.5v.05c0,3.48,2.59,6.51,6.24,6.51s6.18-2.86,6.18-6.48Z"/>
      <path class="cls-4" d="M424.58,310.07h3.02l6.1-6.42h.76l-6.37,6.69,6.78,6.8h-.76l-6.5-6.56h-3.02v6.56h-.57v-6.56h-3.02l-6.5,6.56h-.76l6.77-6.8-6.37-6.69h.76l6.07,6.42h3.05v-6.42h.57v6.42Z"/>
      <path class="cls-4" d="M436.46,310.4v-.05c0-4,2.73-7.02,6.48-7.02,4.26,0,6.21,3.75,6.21,7.13v.11h-12.07c.08,3.89,2.86,6.37,6.15,6.37,2.08,0,3.91-1.21,4.99-2.73l.46,.32c-1.16,1.7-3.1,2.94-5.48,2.94-3.67,0-6.75-2.75-6.75-7.07Zm12.07-.35c-.14-3.08-2.03-6.18-5.62-6.18-3.35,0-5.7,2.65-5.83,6.18h11.45Z"/>
      <path class="cls-4" d="M452.21,310.42v-.05c0-3.81,3-7.04,6.91-7.04,2.48,0,4.02,1.08,5.4,2.51l-.4,.38c-1.21-1.3-2.75-2.35-5.02-2.35-3.59,0-6.29,2.94-6.29,6.48v.05c0,3.54,2.75,6.53,6.32,6.53,2.29,0,3.89-1.13,5.08-2.51l.4,.38c-1.27,1.49-3,2.67-5.51,2.67-3.89,0-6.88-3.24-6.88-7.05Z"/>
      <path class="cls-4" d="M472.13,304.16h-6.18v-.51h12.93v.51h-6.18v12.98h-.57v-12.98Z"/>
      <path class="cls-4" d="M481.96,303.65h6.94c2.73,0,4.37,1.16,4.37,3.29v.03c0,1.54-1.08,2.86-3,3.21,2.08,.3,3.51,1.51,3.51,3.37v.03c0,2.08-1.67,3.59-4.78,3.56h-7.04v-13.5Zm6.61,6.29c2.48,0,4.08-1.05,4.1-2.97v-.03c.03-1.73-1.3-2.81-3.81-2.78h-6.34v5.78h6.05Zm-6.05,6.69h6.48c2.73,0,4.18-1.24,4.18-3.08v-.03c0-1.75-1.48-3.1-4.62-3.08h-6.05v6.18Z"/>
      <path class="cls-4" d="M496.97,310.4v-.05c0-4,2.73-7.02,6.48-7.02,4.26,0,6.21,3.75,6.21,7.13v.11h-12.07c.08,3.89,2.86,6.37,6.15,6.37,2.08,0,3.91-1.21,4.99-2.73l.46,.32c-1.16,1.7-3.1,2.94-5.48,2.94-3.67,0-6.75-2.75-6.75-7.07Zm12.07-.35c-.14-3.08-2.03-6.18-5.62-6.18-3.35,0-5.7,2.65-5.83,6.18h11.45Z"/>
      <path class="cls-4" d="M513.66,303.65h.57v6.42h10.63v-6.42h.57v13.5h-.57v-6.56h-10.63v6.56h-.57v-13.5Z"/>
      <path class="cls-4" d="M530.45,303.65h.57v6.42h10.63v-6.42h.57v13.5h-.57v-6.56h-10.63v6.56h-.57v-13.5Z"/>
      <path class="cls-4" d="M546.11,313.42v-.05c0-2.83,2.67-4.29,6.02-4.29,1.92,0,3.7,.32,5.07,.84v-1.13c0-3.27-1.94-4.8-5.1-4.8-1.7,0-3.08,.46-4.48,1.13l-.22-.49c1.51-.73,2.97-1.19,4.72-1.19,1.89,0,3.32,.49,4.32,1.48,.84,.84,1.32,2.13,1.32,3.83v8.39h-.57v-3.19c-.57,1.59-2.59,3.51-6.05,3.51-2.64,0-5.05-1.38-5.05-4.05Zm11.09-1.21v-1.73c-1.43-.54-3-.86-5.05-.86-3.05,0-5.45,1.24-5.45,3.73v.05c0,2.38,2.11,3.54,4.48,3.54,3.59,0,6.02-2.35,6.02-4.72Z"/>
      <path class="cls-4" d="M561.37,317.14l4.7-5.56c-2.48-.3-4.05-1.78-4.02-3.94v-.03c0-2.27,1.94-3.97,4.89-3.97h6.61v13.5h-.57v-5.51h-6.26l-4.62,5.51h-.73Zm5.53-13.01c-2.67,0-4.29,1.43-4.29,3.48v.03c0,2.03,1.57,3.51,4.35,3.51h6.02v-7.02h-6.07Z"/>
      <path class="cls-4" d="M248.25,335.65h.57v4.18c.78-2.59,3.1-4.51,6.24-4.51,3.91,0,6.75,3.13,6.75,7.04v.05c0,3.91-2.83,7.05-6.75,7.05-3.13,0-5.45-1.92-6.24-4.51v8.5h-.57v-17.81Zm12.96,6.8v-.05c0-3.59-2.48-6.53-6.18-6.53s-6.24,3-6.24,6.5v.05c0,3.48,2.59,6.51,6.24,6.51s6.18-2.86,6.18-6.48Z"/>
      <path class="cls-4" d="M264.99,342.4v-.05c0-4,2.73-7.02,6.48-7.02,4.26,0,6.21,3.75,6.21,7.13v.11h-12.07c.08,3.89,2.86,6.37,6.15,6.37,2.08,0,3.91-1.21,4.99-2.73l.46,.32c-1.16,1.7-3.1,2.94-5.48,2.94-3.67,0-6.75-2.75-6.75-7.07Zm12.07-.35c-.14-3.08-2.03-6.18-5.62-6.18-3.35,0-5.7,2.65-5.83,6.18h11.45Z"/>
      <path class="cls-4" d="M281.68,335.65h9.66v.51h-9.1v12.98h-.57v-13.5Z"/>
      <path class="cls-4" d="M294.39,335.65h.57v12.63l10.82-12.63h.51v13.5h-.57v-12.63l-10.82,12.63h-.51v-13.5Z"/>
      <path class="cls-4" d="M310.38,342.42v-.05c0-3.81,3-7.04,6.91-7.04,2.48,0,4.02,1.08,5.4,2.51l-.4,.38c-1.21-1.3-2.75-2.35-5.02-2.35-3.59,0-6.29,2.94-6.29,6.48v.05c0,3.54,2.75,6.53,6.32,6.53,2.29,0,3.89-1.13,5.08-2.51l.4,.38c-1.27,1.49-3,2.67-5.51,2.67-3.89,0-6.88-3.24-6.88-7.05Z"/>
      <path class="cls-4" d="M330.3,336.16h-6.18v-.51h12.93v.51h-6.18v12.98h-.57v-12.98Z"/>
      <path class="cls-4" d="M340.13,335.65h.57v4.18c.78-2.59,3.1-4.51,6.24-4.51,3.91,0,6.75,3.13,6.75,7.04v.05c0,3.91-2.83,7.05-6.75,7.05-3.13,0-5.45-1.92-6.24-4.51v8.5h-.57v-17.81Zm12.96,6.8v-.05c0-3.59-2.48-6.53-6.18-6.53s-6.24,3-6.24,6.5v.05c0,3.48,2.59,6.51,6.24,6.51s6.18-2.86,6.18-6.48Z"/>
      <path class="cls-4" d="M356.68,345.42v-.05c0-2.83,2.67-4.29,6.02-4.29,1.92,0,3.7,.32,5.07,.84v-1.13c0-3.27-1.94-4.8-5.1-4.8-1.7,0-3.08,.46-4.48,1.13l-.22-.49c1.51-.73,2.97-1.19,4.72-1.19,1.89,0,3.32,.49,4.32,1.48,.84,.84,1.32,2.13,1.32,3.83v8.39h-.57v-3.19c-.57,1.59-2.59,3.51-6.05,3.51-2.64,0-5.05-1.38-5.05-4.05Zm11.09-1.21v-1.73c-1.43-.54-3-.86-5.05-.86-3.05,0-5.45,1.24-5.45,3.73v.05c0,2.38,2.11,3.54,4.48,3.54,3.59,0,6.02-2.35,6.02-4.72Z"/>
      <path class="cls-4" d="M385.87,349.14h-12.77v-13.5h.57v12.98h10.55v-12.98h.57v12.98h1.65v4.29h-.57v-3.78Z"/>
      <path class="cls-4" d="M390.16,335.65h.57v12.63l10.82-12.63h.51v13.5h-.57v-12.63l-10.82,12.63h-.51v-13.5Z"/>
      <path class="cls-4" d="M405.93,349.14l4.7-5.56c-2.48-.3-4.05-1.78-4.02-3.94v-.03c0-2.27,1.94-3.97,4.89-3.97h6.61v13.5h-.57v-5.51h-6.26l-4.62,5.51h-.73Zm5.53-13.01c-2.67,0-4.29,1.43-4.29,3.48v.03c0,2.03,1.57,3.51,4.35,3.51h6.02v-7.02h-6.07Z"/>
      <path class="cls-4" d="M431.23,335.65h6.94c2.73,0,4.37,1.16,4.37,3.29v.03c0,1.54-1.08,2.86-3,3.21,2.08,.3,3.51,1.51,3.51,3.37v.03c0,2.08-1.67,3.59-4.78,3.56h-7.04v-13.5Zm6.61,6.29c2.48,0,4.08-1.05,4.1-2.97v-.03c.03-1.73-1.3-2.81-3.81-2.78h-6.34v5.78h6.05Zm-6.05,6.69h6.48c2.73,0,4.18-1.24,4.18-3.08v-.03c0-1.75-1.48-3.1-4.62-3.08h-6.05v6.18Z"/>
      <path class="cls-4" d="M446.21,342.45v-.05c0-3.75,2.78-7.07,7.02-7.07s7.02,3.24,7.02,7.02v.05c0,3.81-2.78,7.07-7.02,7.07s-7.02-3.24-7.02-7.02Zm13.44-.03v-.05c0-3.56-2.67-6.5-6.45-6.5s-6.4,2.94-6.4,6.5v.05c0,3.56,2.67,6.51,6.45,6.51s6.4-2.94,6.4-6.51Z"/>
      <path class="cls-4" d="M472.75,348.6l8.34-18.49h.46l8.34,18.49h1.97v4.37h-.57v-3.83h-19.95v3.83h-.57v-4.37h1.97Zm.62,0h15.87l-7.94-17.65-7.94,17.65Z"/>
      <path class="cls-4" d="M495.27,335.65h6.94c2.73,0,4.37,1.16,4.37,3.29v.03c0,1.54-1.08,2.86-3,3.21,2.08,.3,3.51,1.51,3.51,3.37v.03c0,2.08-1.67,3.59-4.78,3.56h-7.04v-13.5Zm6.61,6.29c2.48,0,4.08-1.05,4.1-2.97v-.03c.03-1.73-1.3-2.81-3.81-2.78h-6.34v5.78h6.05Zm-6.05,6.69h6.48c2.73,0,4.18-1.24,4.18-3.08v-.03c0-1.75-1.48-3.1-4.62-3.08h-6.05v6.18Z"/>
      <path class="cls-4" d="M510.26,342.45v-.05c0-3.75,2.78-7.07,7.02-7.07s7.02,3.24,7.02,7.02v.05c0,3.81-2.78,7.07-7.02,7.07s-7.02-3.24-7.02-7.02Zm13.44-.03v-.05c0-3.56-2.67-6.5-6.45-6.5s-6.4,2.94-6.4,6.5v.05c0,3.56,2.67,6.51,6.45,6.51s6.4-2.94,6.4-6.51Z"/>
      <path class="cls-4" d="M528.34,335.65h.57v4.18c.78-2.59,3.1-4.51,6.24-4.51,3.91,0,6.75,3.13,6.75,7.04v.05c0,3.91-2.83,7.05-6.75,7.05-3.13,0-5.45-1.92-6.24-4.51v8.5h-.57v-17.81Zm12.96,6.8v-.05c0-3.59-2.48-6.53-6.18-6.53s-6.24,3-6.24,6.5v.05c0,3.48,2.59,6.51,6.24,6.51s6.18-2.86,6.18-6.48Z"/>
      <path class="cls-4" d="M558.8,349.14h-12.77v-13.5h.57v12.98h10.55v-12.98h.57v12.98h1.65v4.29h-.57v-3.78Z"/>
      <path class="cls-4" d="M561.88,342.4v-.05c0-4,2.73-7.02,6.48-7.02,4.26,0,6.21,3.75,6.21,7.13v.11h-12.07c.08,3.89,2.86,6.37,6.15,6.37,2.08,0,3.91-1.21,4.99-2.73l.46,.32c-1.16,1.7-3.1,2.94-5.48,2.94-3.67,0-6.75-2.75-6.75-7.07Zm12.07-.35c-.14-3.08-2.03-6.18-5.62-6.18-3.35,0-5.7,2.65-5.83,6.18h11.45Z"/>
      <path class="cls-4" d="M303.49,362.25h13.09v.54h-12.5v8.12h6.96c4.54,0,7.04,1.78,7.04,5.02v.05c0,3.37-2.7,5.16-7.21,5.16h-7.4v-18.89Zm7.42,18.35c4.1,0,6.59-1.59,6.59-4.59v-.05c0-2.81-2.21-4.51-6.45-4.51h-6.96v9.15h6.83Z"/>
      <path class="cls-4" d="M322.09,367.65h.57v4.18c.78-2.59,3.1-4.51,6.24-4.51,3.91,0,6.75,3.13,6.75,7.04v.05c0,3.91-2.83,7.05-6.75,7.05-3.13,0-5.45-1.92-6.24-4.51v8.5h-.57v-17.81Zm12.96,6.8v-.05c0-3.59-2.48-6.53-6.18-6.53s-6.24,3-6.24,6.5v.05c0,3.48,2.59,6.51,6.24,6.51s6.18-2.86,6.18-6.48Z"/>
      <path class="cls-4" d="M338.65,377.42v-.05c0-2.83,2.67-4.29,6.02-4.29,1.92,0,3.7,.32,5.07,.84v-1.13c0-3.27-1.94-4.8-5.1-4.8-1.7,0-3.08,.46-4.48,1.13l-.22-.49c1.51-.73,2.97-1.19,4.72-1.19,1.89,0,3.32,.49,4.32,1.48,.84,.84,1.32,2.13,1.32,3.83v8.39h-.57v-3.19c-.57,1.59-2.59,3.51-6.05,3.51-2.64,0-5.05-1.38-5.05-4.05Zm11.09-1.21v-1.73c-1.43-.54-3-.86-5.05-.86-3.05,0-5.45,1.24-5.45,3.73v.05c0,2.38,2.11,3.54,4.48,3.54,3.59,0,6.02-2.35,6.02-4.72Z"/>
      <path class="cls-4" d="M355.63,374.07h3.24l6.34-6.42h.76l-6.64,6.69,7.07,6.8h-.78l-6.8-6.56h-3.19v6.56h-.57v-13.5h.57v6.42Z"/>
      <path class="cls-4" d="M367.91,374.45v-.05c0-3.75,2.78-7.07,7.02-7.07s7.02,3.24,7.02,7.02v.05c0,3.81-2.78,7.07-7.02,7.07s-7.02-3.24-7.02-7.02Zm13.44-.03v-.05c0-3.56-2.67-6.5-6.45-6.5s-6.4,2.94-6.4,6.5v.05c0,3.56,2.67,6.51,6.45,6.51s6.4-2.94,6.4-6.51Z"/>
      <path class="cls-4" d="M385.06,374.42v-.05c0-3.81,3-7.04,6.91-7.04,2.48,0,4.02,1.08,5.4,2.51l-.4,.38c-1.21-1.3-2.75-2.35-5.02-2.35-3.59,0-6.29,2.94-6.29,6.48v.05c0,3.54,2.75,6.53,6.32,6.53,2.29,0,3.89-1.13,5.08-2.51l.4,.38c-1.27,1.49-3,2.67-5.51,2.67-3.89,0-6.88-3.24-6.88-7.05Z"/>
      <path class="cls-4" d="M399.77,374.45v-.05c0-3.75,2.78-7.07,7.02-7.07s7.02,3.24,7.02,7.02v.05c0,3.81-2.78,7.07-7.02,7.07s-7.02-3.24-7.02-7.02Zm13.44-.03v-.05c0-3.56-2.67-6.5-6.45-6.5s-6.4,2.94-6.4,6.5v.05c0,3.56,2.67,6.51,6.45,6.51s6.4-2.94,6.4-6.51Z"/>
      <path class="cls-4" d="M427.55,375.93c-1.4,.41-3,.67-4.72,.67-3.64,0-5.67-1.4-5.67-4.75v-4.21h.57v4.18c0,3.02,1.83,4.24,5.1,4.24,1.65,0,3.24-.27,4.72-.67v-7.75h.57v13.5h-.57v-5.21Z"/>
      <path class="cls-4" d="M432.2,374.4v-.05c0-4,2.73-7.02,6.48-7.02,4.26,0,6.21,3.75,6.21,7.13v.11h-12.07c.08,3.89,2.86,6.37,6.15,6.37,2.08,0,3.91-1.21,4.99-2.73l.46,.32c-1.16,1.7-3.1,2.94-5.48,2.94-3.67,0-6.75-2.75-6.75-7.07Zm12.07-.35c-.14-3.08-2.03-6.18-5.62-6.18-3.35,0-5.7,2.65-5.83,6.18h11.45Z"/>
      <path class="cls-4" d="M452.18,368.16h-6.18v-.51h12.93v.51h-6.18v12.98h-.57v-12.98Z"/>
      <path class="cls-4" d="M460.06,377.42v-.05c0-2.83,2.67-4.29,6.02-4.29,1.92,0,3.7,.32,5.07,.84v-1.13c0-3.27-1.94-4.8-5.1-4.8-1.7,0-3.08,.46-4.48,1.13l-.22-.49c1.51-.73,2.97-1.19,4.72-1.19,1.89,0,3.32,.49,4.32,1.48,.84,.84,1.32,2.13,1.32,3.83v8.39h-.57v-3.19c-.57,1.59-2.59,3.51-6.05,3.51-2.64,0-5.05-1.38-5.05-4.05Zm11.09-1.21v-1.73c-1.43-.54-3-.86-5.05-.86-3.05,0-5.45,1.24-5.45,3.73v.05c0,2.38,2.11,3.54,4.48,3.54,3.59,0,6.02-2.35,6.02-4.72Z"/>
      <path class="cls-4" d="M476.48,367.65h.57v6.42h10.63v-6.42h.57v13.5h-.57v-6.56h-10.63v6.56h-.57v-13.5Z"/>
      <path class="cls-4" d="M493.27,367.65h.57v12.63l10.82-12.63h.51v13.5h-.57v-12.63l-10.82,12.63h-.51v-13.5Z"/>
      <path class="cls-4" d="M509.04,381.14l4.7-5.56c-2.48-.3-4.05-1.78-4.02-3.94v-.03c0-2.27,1.94-3.97,4.89-3.97h6.61v13.5h-.57v-5.51h-6.26l-4.62,5.51h-.73Zm5.53-13.01c-2.67,0-4.29,1.43-4.29,3.48v.03c0,2.03,1.57,3.51,4.35,3.51h6.02v-7.02h-6.07Z"/>
      <path class="cls-4" d="M534.26,362.25h.54l11.93,17.71v-17.71h.57v18.89h-.49l-11.99-17.82v17.82h-.57v-18.89Zm16.3,5.53v-.19c0-3.18,1.94-5.48,4.62-5.48s4.59,2.35,4.59,5.48v.19c0,3.18-1.94,5.48-4.62,5.48s-4.59-2.35-4.59-5.48Zm.16,8.15h8.88v.46h-8.88v-.46Zm8.48-8.15v-.19c0-2.83-1.67-4.97-4.05-4.97s-4.02,2.13-4.02,4.97v.19c0,2.83,1.67,4.97,4.05,4.97s4.02-2.13,4.02-4.97Z"/>
      <path class="cls-4" d="M561.82,378.09l.49-.38c1.38,1.86,3.59,3.21,6.32,3.21,3,0,5.51-1.94,5.51-4.64v-.05c0-3.32-2.86-4.7-7.02-4.7h-.65l-.19-.38,7.34-8.37h-10.77v-.54h11.55v.43l-7.29,8.31c4.67,0,7.61,1.67,7.61,5.21v.05c0,3.02-2.78,5.21-6.13,5.21-2.94,0-5.26-1.4-6.78-3.37Z"/>
      <path class="cls-4" d="M238.83,399.65h9.66v.51h-9.1v12.98h-.57v-13.5Z"/>
      <path class="cls-4" d="M247.79,411.74h.97v1.4h-.97v-1.4Z"/>
      <path class="cls-4" d="M261.4,394.25h14.55v18.89h-.59v-18.36h-13.36v18.36h-.59v-18.89Z"/>
      <path class="cls-4" d="M292.47,399.65h.59l-6.26,13.77c-1.59,3.46-2.56,4.13-4.32,4.13-.94,0-1.92-.32-2.54-.73l.27-.46c.62,.35,1.51,.67,2.27,.67,1.59,0,2.4-.65,3.91-3.89l-6.5-13.5h.62l6.15,12.9,5.8-12.9Z"/>
      <path class="cls-4" d="M296.64,399.65h.57v12.98h9.04v-12.98h.57v12.98h9.04v-12.98h.57v13.5h-19.79v-13.5Z"/>
      <path class="cls-4" d="M322.01,406.07h3.24l6.34-6.42h.76l-6.64,6.69,7.07,6.8h-.78l-6.8-6.56h-3.19v6.56h-.57v-13.5h.57v6.42Z"/>
      <path class="cls-4" d="M335.95,399.65h.57v12.63l10.82-12.63h.51v13.5h-.57v-12.63l-10.82,12.63h-.51v-13.5Z"/>
      <path class="cls-4" d="M352.88,399.65h.57v6.42h10.63v-6.42h.57v13.5h-.57v-6.56h-10.63v6.56h-.57v-13.5Z"/>
      <path class="cls-4" d="M368.67,414.98c.62-.3,.73-.86,.7-1.84h-.49v-1.4h.97v1.24c0,1.54-.27,2.05-1,2.35l-.19-.35Z"/>
      <path class="cls-4" d="M381.66,403.75v-.05c0-5.29,3.89-9.77,9.29-9.77,3.56,0,5.43,1.32,7.18,3l-.41,.41c-1.51-1.43-3.4-2.86-6.8-2.86-5.05,0-8.66,4.26-8.66,9.2v.05c0,4.97,3.7,9.21,8.66,9.21,3.05,0,5.4-1.43,6.88-3.08l.43,.4c-1.65,1.73-4.05,3.21-7.34,3.21-5.32,0-9.23-4.4-9.23-9.72Z"/>
      <path class="cls-4" d="M400.66,409.42v-.05c0-2.83,2.67-4.29,6.02-4.29,1.92,0,3.7,.32,5.07,.84v-1.13c0-3.27-1.94-4.8-5.1-4.8-1.7,0-3.08,.46-4.48,1.13l-.22-.49c1.51-.73,2.97-1.19,4.72-1.19,1.89,0,3.32,.49,4.32,1.48,.84,.84,1.32,2.13,1.32,3.83v8.39h-.57v-3.19c-.57,1.59-2.59,3.51-6.05,3.51-2.64,0-5.05-1.38-5.05-4.05Zm11.09-1.21v-1.73c-1.43-.54-3-.86-5.05-.86-3.05,0-5.45,1.24-5.45,3.73v.05c0,2.38,2.11,3.54,4.48,3.54,3.59,0,6.02-2.35,6.02-4.72Z"/>
      <path class="cls-4" d="M430.09,412.63h1.65v4.29h-.57v-3.78h-15.36v3.78h-.57v-4.29h1.65l6.32-13.09h.54l6.34,13.09Zm-12.61,0h11.99l-5.99-12.39-5.99,12.39Z"/>
      <path class="cls-4" d="M432.88,406.45v-.05c0-3.75,2.78-7.07,7.02-7.07s7.02,3.24,7.02,7.02v.05c0,3.81-2.78,7.07-7.02,7.07s-7.02-3.24-7.02-7.02Zm13.44-.03v-.05c0-3.56-2.67-6.5-6.45-6.5s-6.4,2.94-6.4,6.5v.05c0,3.56,2.67,6.51,6.45,6.51s6.4-2.94,6.4-6.51Z"/>
      <path class="cls-4" d="M450.96,399.65h6.94c2.73,0,4.37,1.16,4.37,3.29v.03c0,1.54-1.08,2.86-3,3.21,2.08,.3,3.51,1.51,3.51,3.37v.03c0,2.08-1.67,3.59-4.78,3.56h-7.04v-13.5Zm6.61,6.29c2.48,0,4.08-1.05,4.1-2.97v-.03c.03-1.73-1.3-2.81-3.81-2.78h-6.34v5.78h6.05Zm-6.05,6.69h6.48c2.73,0,4.18-1.24,4.18-3.08v-.03c0-1.75-1.48-3.1-4.62-3.08h-6.05v6.18Z"/>
      <path class="cls-4" d="M465.79,409.42v-.05c0-2.83,2.67-4.29,6.02-4.29,1.92,0,3.7,.32,5.07,.84v-1.13c0-3.27-1.94-4.8-5.1-4.8-1.7,0-3.08,.46-4.48,1.13l-.22-.49c1.51-.73,2.97-1.19,4.72-1.19,1.89,0,3.32,.49,4.32,1.48,.84,.84,1.32,2.13,1.32,3.83v8.39h-.57v-3.19c-.57,1.59-2.59,3.51-6.05,3.51-2.64,0-5.05-1.38-5.05-4.05Zm11.09-1.21v-1.73c-1.43-.54-3-.86-5.05-.86-3.05,0-5.45,1.24-5.45,3.73v.05c0,2.38,2.11,3.54,4.48,3.54,3.59,0,6.02-2.35,6.02-4.72Z"/>
      <path class="cls-4" d="M481.04,413.14l4.7-5.56c-2.48-.3-4.05-1.78-4.02-3.94v-.03c0-2.27,1.94-3.97,4.89-3.97h6.61v13.5h-.57v-5.51h-6.26l-4.62,5.51h-.73Zm5.53-13.01c-2.67,0-4.29,1.43-4.29,3.48v.03c0,2.03,1.57,3.51,4.35,3.51h6.02v-7.02h-6.07Z"/>
      <path class="cls-4" d="M517.54,399.65h.59l-6.26,13.77c-1.59,3.46-2.56,4.13-4.32,4.13-.94,0-1.92-.32-2.54-.73l.27-.46c.62,.35,1.51,.67,2.27,.67,1.59,0,2.4-.65,3.91-3.89l-6.5-13.5h.62l6.15,12.9,5.8-12.9Z"/>
      <path class="cls-4" d="M531.83,413.14h-.62l-5.99-12.85-5.96,12.85h-.59l6.32-13.6h.49l6.37,13.6Z"/>
      <path class="cls-4" d="M534.64,411.74h.97v1.4h-.97v-1.4Z"/>
      <path class="cls-4" d="M546.52,412.79l8.56-8.29c2.92-2.83,3.37-4.35,3.37-5.72,0-2.29-2.05-4.26-4.99-4.26-2.78,0-4.7,1.62-5.88,3.81l-.51-.3c1.27-2.35,3.38-4.05,6.42-4.05,3.32,0,5.56,2.16,5.56,4.75v.05c0,1.65-.51,3.1-3.62,6.15l-7.94,7.67h11.82v.54h-12.79v-.35Z"/>
      <path class="cls-4" d="M561.83,412.79l8.56-8.29c2.92-2.83,3.37-4.35,3.37-5.72,0-2.29-2.05-4.26-4.99-4.26-2.78,0-4.7,1.62-5.88,3.81l-.51-.3c1.27-2.35,3.38-4.05,6.42-4.05,3.32,0,5.56,2.16,5.56,4.75v.05c0,1.65-.51,3.1-3.62,6.15l-7.94,7.67h11.82v.54h-12.79v-.35Z"/>
    </g>
    <g>
      <path class="cls-4" d="M265.94,546.21h-6.18v-.51h12.93v.51h-6.18v12.98h-.57v-12.98Z"/>
      <path class="cls-4" d="M275.77,545.69h.57v4.18c.78-2.59,3.1-4.51,6.24-4.51,3.91,0,6.75,3.13,6.75,7.04v.05c0,3.91-2.83,7.05-6.75,7.05-3.13,0-5.45-1.92-6.24-4.51v8.5h-.57v-17.81Zm12.96,6.8v-.05c0-3.59-2.48-6.53-6.18-6.53s-6.24,3-6.24,6.5v.05c0,3.48,2.59,6.51,6.24,6.51s6.18-2.86,6.18-6.48Z"/>
      <path class="cls-4" d="M292.32,555.46v-.05c0-2.83,2.67-4.29,6.02-4.29,1.92,0,3.7,.32,5.07,.84v-1.13c0-3.27-1.94-4.8-5.1-4.8-1.7,0-3.08,.46-4.48,1.13l-.22-.49c1.51-.73,2.97-1.19,4.72-1.19,1.89,0,3.32,.49,4.32,1.48,.84,.84,1.32,2.13,1.32,3.83v8.39h-.57v-3.19c-.57,1.59-2.59,3.51-6.05,3.51-2.64,0-5.05-1.38-5.05-4.05Zm11.09-1.21v-1.73c-1.43-.54-3-.86-5.05-.86-3.05,0-5.45,1.24-5.45,3.73v.05c0,2.38,2.11,3.54,4.48,3.54,3.59,0,6.02-2.35,6.02-4.72Z"/>
      <path class="cls-4" d="M308.73,545.69h.57v6.42h10.63v-6.42h.57v13.5h-.57v-6.56h-10.63v6.56h-.57v-13.5Z"/>
      <path class="cls-4" d="M324.58,552.47v-.05c0-3.81,3-7.04,6.91-7.04,2.48,0,4.02,1.08,5.4,2.51l-.4,.38c-1.21-1.3-2.75-2.35-5.02-2.35-3.59,0-6.29,2.94-6.29,6.48v.05c0,3.54,2.75,6.53,6.32,6.53,2.29,0,3.89-1.13,5.08-2.51l.4,.38c-1.27,1.49-3,2.67-5.51,2.67-3.89,0-6.88-3.24-6.88-7.05Z"/>
      <path class="cls-4" d="M348.2,563.51v-4.26c-5.7-.08-8.93-2.73-8.93-6.75v-.05c0-4.02,3.21-6.72,8.93-6.8v-6.15h.57v6.15c5.7,.08,8.91,2.73,8.91,6.75v.05c0,4.08-3.21,6.72-8.91,6.8v4.26h-.57Zm-8.34-11.04c0,3.73,2.92,6.26,8.34,6.26v-12.58c-5.4,.03-8.34,2.46-8.34,6.26v.05Zm17.22-.05c0-3.75-2.89-6.18-8.31-6.26v12.58c5.43-.03,8.31-2.46,8.31-6.26v-.05Z"/>
      <path class="cls-4" d="M360.76,552.44v-.05c0-4,2.73-7.02,6.48-7.02,4.26,0,6.21,3.75,6.21,7.13v.11h-12.07c.08,3.89,2.86,6.37,6.15,6.37,2.08,0,3.91-1.21,4.99-2.73l.46,.32c-1.16,1.7-3.1,2.94-5.48,2.94-3.67,0-6.75-2.75-6.75-7.07Zm12.07-.35c-.14-3.08-2.03-6.18-5.62-6.18-3.35,0-5.7,2.65-5.83,6.18h11.45Z"/>
      <path class="cls-4" d="M377.45,545.69h.57v4.18c.78-2.59,3.1-4.51,6.24-4.51,3.91,0,6.75,3.13,6.75,7.04v.05c0,3.91-2.83,7.05-6.75,7.05-3.13,0-5.45-1.92-6.24-4.51v8.5h-.57v-17.81Zm12.96,6.8v-.05c0-3.59-2.48-6.53-6.18-6.53s-6.24,3-6.24,6.5v.05c0,3.48,2.59,6.51,6.24,6.51s6.18-2.86,6.18-6.48Z"/>
      <path class="cls-4" d="M403.23,545.69h6.94c2.73,0,4.37,1.16,4.37,3.29v.03c0,1.54-1.08,2.86-3,3.21,2.08,.3,3.51,1.51,3.51,3.37v.03c0,2.08-1.67,3.59-4.78,3.56h-7.04v-13.5Zm6.61,6.29c2.48,0,4.08-1.05,4.1-2.97v-.03c.03-1.73-1.3-2.81-3.81-2.78h-6.34v5.78h6.05Zm-6.05,6.69h6.48c2.73,0,4.18-1.24,4.18-3.08v-.03c0-1.75-1.48-3.1-4.62-3.08h-6.05v6.18Z"/>
      <path class="cls-4" d="M426.1,542.62c1.81-1.49,4.32-2.65,7.26-2.65,3.91,0,6.56,2,6.56,4.83v.03c0,2.73-2.13,4.35-4.7,4.78,2.75,.3,5.1,1.86,5.1,4.67v.03c0,3.21-3.27,5.21-7.07,5.21-3.1,0-5.29-.86-7.37-2.46l.38-.43c2.05,1.59,4.21,2.35,6.99,2.35,3.37,0,6.48-1.73,6.48-4.67v-.03c0-2.62-2.24-4.37-6.42-4.37h-3.46v-.54h3.35c3.56,0,6.13-1.7,6.13-4.51v-.03c0-2.51-2.4-4.32-5.96-4.32-2.83,0-5.05,1.11-6.88,2.51l-.38-.4Z"/>
      <path class="cls-4" d="M443.32,555.46v-.05c0-2.83,2.67-4.29,6.02-4.29,1.92,0,3.7,.32,5.07,.84v-1.13c0-3.27-1.94-4.8-5.1-4.8-1.7,0-3.08,.46-4.48,1.13l-.22-.49c1.51-.73,2.97-1.19,4.72-1.19,1.89,0,3.32,.49,4.32,1.48,.84,.84,1.32,2.13,1.32,3.83v8.39h-.57v-3.19c-.57,1.59-2.59,3.51-6.05,3.51-2.64,0-5.05-1.38-5.05-4.05Zm11.09-1.21v-1.73c-1.43-.54-3-.86-5.05-.86-3.05,0-5.45,1.24-5.45,3.73v.05c0,2.38,2.11,3.54,4.48,3.54,3.59,0,6.02-2.35,6.02-4.72Z"/>
      <path class="cls-4" d="M459.74,545.69h.57l6.42,8.96,6.4-8.96h.57v13.5h-.57v-12.52l-6.37,8.83h-.08l-6.37-8.83v12.52h-.57v-13.5Z"/>
      <path class="cls-4" d="M477.75,552.49v-.05c0-3.75,2.78-7.07,7.02-7.07s7.02,3.24,7.02,7.02v.05c0,3.81-2.78,7.07-7.02,7.07s-7.02-3.24-7.02-7.02Zm13.44-.03v-.05c0-3.56-2.67-6.5-6.45-6.5s-6.4,2.94-6.4,6.5v.05c0,3.56,2.67,6.51,6.45,6.51s6.4-2.94,6.4-6.51Z"/>
      <path class="cls-4" d="M496.41,552.12h3.24l6.34-6.42h.76l-6.64,6.69,7.07,6.8h-.78l-6.8-6.56h-3.19v6.56h-.57v-13.5h.57v6.42Z"/>
      <path class="cls-4" d="M518.73,540.29h13.09v.54h-12.5v8.12h6.96c4.54,0,7.04,1.78,7.04,5.02v.05c0,3.37-2.7,5.16-7.21,5.16h-7.4v-18.89Zm7.42,18.35c4.1,0,6.59-1.59,6.59-4.59v-.05c0-2.81-2.21-4.51-6.45-4.51h-6.96v9.15h6.83Z"/>
      <path class="cls-4" d="M552.48,559.19v-17.92l-14.33,17.92h-.51v-18.89h.59v17.92l14.33-17.92h.51v18.89h-.59Z"/>
      <path class="cls-4" d="M558.69,540.29h14.55v18.89h-.59v-18.36h-13.36v18.36h-.59v-18.89Z"/>
    </g>
    <g>
      <path class="cls-4" d="M231.81,714.4v-.05c0-3.81,3-7.04,6.91-7.04,2.48,0,4.02,1.08,5.4,2.51l-.4,.38c-1.21-1.3-2.75-2.35-5.02-2.35-3.59,0-6.29,2.94-6.29,6.48v.05c0,3.54,2.75,6.53,6.32,6.53,2.29,0,3.89-1.13,5.08-2.51l.4,.38c-1.27,1.49-3,2.67-5.51,2.67-3.89,0-6.88-3.24-6.88-7.05Z"/>
      <path class="cls-4" d="M249.25,719.58c-1.32-1.32-2.11-3.29-2.11-5.88v-.08c0-7.48,1.32-10.58,7.8-11.74l4.08-.73,.11,.57-4.05,.7c-5.78,1-7.1,3.54-7.4,9.72,1.08-3.1,3.91-4.43,6.61-4.43,3.81,0,6.61,3.08,6.61,6.77v.05c0,3.81-2.75,6.91-6.91,6.91-1.92,0-3.51-.62-4.75-1.86Zm11.07-5.02v-.05c0-3.43-2.59-6.26-6.05-6.26-3.72,0-6.5,2.83-6.5,5.97v.03c0,3.97,2.73,6.67,6.24,6.67,3.86,0,6.32-2.83,6.32-6.34Z"/>
      <path class="cls-4" d="M264.02,714.43v-.05c0-3.75,2.78-7.07,7.02-7.07s7.02,3.24,7.02,7.02v.05c0,3.81-2.78,7.07-7.02,7.07s-7.02-3.24-7.02-7.02Zm13.44-.03v-.05c0-3.56-2.67-6.5-6.45-6.5s-6.4,2.94-6.4,6.5v.05c0,3.56,2.67,6.51,6.45,6.51s6.4-2.94,6.4-6.51Z"/>
      <path class="cls-4" d="M282.11,707.63h.57v4.18c.78-2.59,3.1-4.51,6.24-4.51,3.91,0,6.75,3.13,6.75,7.04v.05c0,3.91-2.83,7.05-6.75,7.05-3.13,0-5.45-1.92-6.24-4.51v8.5h-.57v-17.81Zm12.96,6.8v-.05c0-3.59-2.48-6.53-6.18-6.53s-6.24,3-6.24,6.5v.05c0,3.48,2.59,6.51,6.24,6.51s6.18-2.86,6.18-6.48Z"/>
      <path class="cls-4" d="M307.89,707.63h9.66v.51h-9.1v12.98h-.57v-13.5Z"/>
      <path class="cls-4" d="M318.42,714.43v-.05c0-3.75,2.78-7.07,7.02-7.07s7.02,3.24,7.02,7.02v.05c0,3.81-2.78,7.07-7.02,7.07s-7.02-3.24-7.02-7.02Zm13.44-.03v-.05c0-3.56-2.67-6.5-6.45-6.5s-6.4,2.94-6.4,6.5v.05c0,3.56,2.67,6.51,6.45,6.51s6.4-2.94,6.4-6.51Z"/>
      <path class="cls-4" d="M335.57,714.4v-.05c0-3.81,3-7.04,6.91-7.04,2.48,0,4.02,1.08,5.4,2.51l-.4,.38c-1.21-1.3-2.75-2.35-5.02-2.35-3.59,0-6.29,2.94-6.29,6.48v.05c0,3.54,2.75,6.53,6.32,6.53,2.29,0,3.89-1.13,5.08-2.51l.4,.38c-1.27,1.49-3,2.67-5.51,2.67-3.89,0-6.88-3.24-6.88-7.05Z"/>
      <path class="cls-4" d="M355.49,708.14h-6.18v-.51h12.93v.51h-6.18v12.98h-.57v-12.98Z"/>
      <path class="cls-4" d="M363.57,714.38v-.05c0-4,2.73-7.02,6.48-7.02,4.26,0,6.21,3.75,6.21,7.13v.11h-12.07c.08,3.89,2.86,6.37,6.15,6.37,2.08,0,3.91-1.21,4.99-2.73l.46,.32c-1.16,1.7-3.1,2.94-5.48,2.94-3.67,0-6.75-2.75-6.75-7.07Zm12.07-.35c-.14-3.08-2.03-6.18-5.62-6.18-3.35,0-5.7,2.65-5.83,6.18h11.45Z"/>
      <path class="cls-4" d="M380.25,707.63h.57v12.63l10.82-12.63h.51v13.5h-.57v-12.63l-10.82,12.63h-.51v-13.5Zm2.56-5.1h.43c.22,1.05,1.16,2.16,2.94,2.16s2.73-1.08,2.94-2.16h.43c-.19,1.51-1.32,2.67-3.37,2.67s-3.19-1.16-3.38-2.67Z"/>
      <path class="cls-4" d="M405.28,707.63h6.94c2.73,0,4.37,1.16,4.37,3.29v.03c0,1.54-1.08,2.86-3,3.21,2.08,.3,3.51,1.51,3.51,3.37v.03c0,2.08-1.67,3.59-4.78,3.56h-7.04v-13.5Zm6.61,6.29c2.48,0,4.08-1.05,4.1-2.97v-.03c.03-1.73-1.3-2.81-3.81-2.78h-6.34v5.78h6.05Zm-6.05,6.69h6.48c2.73,0,4.18-1.24,4.18-3.08v-.03c0-1.75-1.48-3.1-4.62-3.08h-6.05v6.18Z"/>
      <path class="cls-4" d="M428.15,704.55c1.81-1.49,4.32-2.65,7.26-2.65,3.91,0,6.56,2,6.56,4.83v.03c0,2.73-2.13,4.35-4.7,4.78,2.75,.3,5.1,1.86,5.1,4.67v.03c0,3.21-3.27,5.21-7.07,5.21-3.1,0-5.29-.86-7.37-2.46l.38-.43c2.05,1.59,4.21,2.35,6.99,2.35,3.37,0,6.48-1.73,6.48-4.67v-.03c0-2.62-2.24-4.37-6.42-4.37h-3.46v-.54h3.35c3.56,0,6.13-1.7,6.13-4.51v-.03c0-2.51-2.4-4.32-5.96-4.32-2.83,0-5.05,1.11-6.88,2.51l-.38-.4Z"/>
      <path class="cls-4" d="M445.38,717.4v-.05c0-2.83,2.67-4.29,6.02-4.29,1.92,0,3.7,.32,5.07,.84v-1.13c0-3.27-1.94-4.8-5.1-4.8-1.7,0-3.08,.46-4.48,1.13l-.22-.49c1.51-.73,2.97-1.19,4.72-1.19,1.89,0,3.32,.49,4.32,1.48,.84,.84,1.32,2.13,1.32,3.83v8.39h-.57v-3.19c-.57,1.59-2.59,3.51-6.05,3.51-2.64,0-5.05-1.38-5.05-4.05Zm11.09-1.21v-1.73c-1.43-.54-3-.86-5.05-.86-3.05,0-5.45,1.24-5.45,3.73v.05c0,2.38,2.11,3.54,4.48,3.54,3.59,0,6.02-2.35,6.02-4.72Z"/>
      <path class="cls-4" d="M461.79,707.63h.57l6.42,8.96,6.4-8.96h.57v13.5h-.57v-12.52l-6.37,8.83h-.08l-6.37-8.83v12.52h-.57v-13.5Z"/>
      <path class="cls-4" d="M481.34,714.05h3.24l6.34-6.42h.76l-6.64,6.69,7.07,6.8h-.78l-6.8-6.56h-3.19v6.56h-.57v-13.5h.57v6.42Z"/>
      <path class="cls-4" d="M493.65,714.38v-.05c0-4,2.73-7.02,6.48-7.02,4.26,0,6.21,3.75,6.21,7.13v.11h-12.07c.08,3.89,2.86,6.37,6.15,6.37,2.08,0,3.91-1.21,4.99-2.73l.46,.32c-1.16,1.7-3.1,2.94-5.48,2.94-3.67,0-6.75-2.75-6.75-7.07Zm12.07-.35c-.14-3.08-2.03-6.18-5.62-6.18-3.35,0-5.7,2.65-5.83,6.18h11.45Z"/>
      <path class="cls-4" d="M518.73,702.23h13.09v.54h-12.5v8.12h6.96c4.54,0,7.04,1.78,7.04,5.02v.05c0,3.37-2.7,5.16-7.21,5.16h-7.4v-18.89Zm7.42,18.35c4.1,0,6.59-1.59,6.59-4.59v-.05c0-2.81-2.21-4.51-6.45-4.51h-6.96v9.15h6.83Z"/>
      <path class="cls-4" d="M552.48,721.12v-17.92l-14.33,17.92h-.51v-18.89h.59v17.92l14.33-17.92h.51v18.89h-.59Z"/>
      <path class="cls-4" d="M558.69,702.23h14.55v18.89h-.59v-18.36h-13.36v18.36h-.59v-18.89Z"/>
    </g>
    <g>
      <path class="cls-4" d="M222.79,873.52h.57v6.42h10.63v-6.42h.57v13.5h-.57v-6.56h-10.63v6.56h-.57v-13.5Z"/>
      <path class="cls-4" d="M238.45,883.29v-.05c0-2.83,2.67-4.29,6.02-4.29,1.92,0,3.7,.32,5.07,.84v-1.13c0-3.27-1.94-4.8-5.1-4.8-1.7,0-3.08,.46-4.48,1.13l-.22-.49c1.51-.73,2.97-1.19,4.72-1.19,1.89,0,3.32,.49,4.32,1.48,.84,.84,1.32,2.13,1.32,3.83v8.39h-.57v-3.19c-.57,1.59-2.59,3.51-6.05,3.51-2.64,0-5.05-1.38-5.05-4.05Zm11.09-1.21v-1.73c-1.43-.54-3-.86-5.05-.86-3.05,0-5.45,1.24-5.45,3.73v.05c0,2.38,2.11,3.54,4.48,3.54,3.59,0,6.02-2.35,6.02-4.72Z"/>
      <path class="cls-4" d="M264.56,881.81c-1.4,.41-3,.67-4.72,.67-3.64,0-5.67-1.4-5.67-4.75v-4.21h.57v4.18c0,3.02,1.83,4.24,5.1,4.24,1.65,0,3.24-.27,4.72-.67v-7.75h.57v13.5h-.57v-5.21Z"/>
      <path class="cls-4" d="M269.02,883.29v-.05c0-2.83,2.67-4.29,6.02-4.29,1.92,0,3.7,.32,5.07,.84v-1.13c0-3.27-1.94-4.8-5.1-4.8-1.7,0-3.08,.46-4.48,1.13l-.22-.49c1.51-.73,2.97-1.19,4.72-1.19,1.89,0,3.32,.49,4.32,1.48,.84,.84,1.32,2.13,1.32,3.83v8.39h-.57v-3.19c-.57,1.59-2.59,3.51-6.05,3.51-2.64,0-5.05-1.38-5.05-4.05Zm11.09-1.21v-1.73c-1.43-.54-3-.86-5.05-.86-3.05,0-5.45,1.24-5.45,3.73v.05c0,2.38,2.11,3.54,4.48,3.54,3.59,0,6.02-2.35,6.02-4.72Z"/>
      <path class="cls-4" d="M297.17,887.02h-.62l-5.99-12.85-5.96,12.85h-.59l6.32-13.6h.49l6.37,13.6Z"/>
      <path class="cls-4" d="M299.12,880.32v-.05c0-3.75,2.78-7.07,7.02-7.07s7.02,3.24,7.02,7.02v.05c0,3.81-2.78,7.07-7.02,7.07s-7.02-3.24-7.02-7.02Zm13.44-.03v-.05c0-3.56-2.67-6.5-6.45-6.5s-6.4,2.94-6.4,6.5v.05c0,3.56,2.67,6.51,6.45,6.51s6.4-2.94,6.4-6.51Z"/>
      <path class="cls-4" d="M324.36,880.3v-.05c0-3.81,3-7.04,6.91-7.04,2.48,0,4.02,1.08,5.4,2.51l-.4,.38c-1.21-1.3-2.75-2.35-5.02-2.35-3.59,0-6.29,2.94-6.29,6.48v.05c0,3.54,2.75,6.53,6.32,6.53,2.29,0,3.89-1.13,5.08-2.51l.4,.38c-1.27,1.49-3,2.67-5.51,2.67-3.89,0-6.88-3.24-6.88-7.05Z"/>
      <path class="cls-4" d="M340.46,873.52h6.94c2.73,0,4.37,1.16,4.37,3.29v.03c0,1.54-1.08,2.86-3,3.21,2.08,.3,3.51,1.51,3.51,3.37v.03c0,2.08-1.67,3.59-4.78,3.56h-7.04v-13.5Zm6.61,6.29c2.48,0,4.08-1.05,4.1-2.97v-.03c.03-1.73-1.3-2.81-3.81-2.78h-6.34v5.78h6.05Zm-6.05,6.69h6.48c2.73,0,4.18-1.24,4.18-3.08v-.03c0-1.75-1.48-3.1-4.62-3.08h-6.05v6.18Z"/>
      <path class="cls-4" d="M355.28,883.29v-.05c0-2.83,2.67-4.29,6.02-4.29,1.92,0,3.7,.32,5.07,.84v-1.13c0-3.27-1.94-4.8-5.1-4.8-1.7,0-3.08,.46-4.48,1.13l-.22-.49c1.51-.73,2.97-1.19,4.72-1.19,1.89,0,3.32,.49,4.32,1.48,.84,.84,1.32,2.13,1.32,3.83v8.39h-.57v-3.19c-.57,1.59-2.59,3.51-6.05,3.51-2.64,0-5.05-1.38-5.05-4.05Zm11.09-1.21v-1.73c-1.43-.54-3-.86-5.05-.86-3.05,0-5.45,1.24-5.45,3.73v.05c0,2.38,2.11,3.54,4.48,3.54,3.59,0,6.02-2.35,6.02-4.72Z"/>
      <path class="cls-4" d="M384.7,886.5h1.65v4.29h-.57v-3.78h-15.36v3.78h-.57v-4.29h1.65l6.32-13.09h.54l6.34,13.09Zm-12.61,0h11.99l-5.99-12.39-5.99,12.39Z"/>
      <path class="cls-4" d="M387.52,880.27v-.05c0-4,2.73-7.02,6.48-7.02,4.26,0,6.21,3.75,6.21,7.13v.11h-12.07c.08,3.89,2.86,6.37,6.15,6.37,2.08,0,3.91-1.21,4.99-2.73l.46,.32c-1.16,1.7-3.1,2.94-5.48,2.94-3.67,0-6.75-2.75-6.75-7.07Zm12.07-.35c-.14-3.08-2.03-6.18-5.62-6.18-3.35,0-5.7,2.65-5.83,6.18h11.45Z"/>
      <path class="cls-4" d="M405.69,885.48c-1.32-1.32-2.11-3.29-2.11-5.88v-.08c0-7.48,1.32-10.58,7.8-11.74l4.08-.73,.11,.57-4.05,.7c-5.78,1-7.1,3.54-7.4,9.72,1.08-3.1,3.91-4.43,6.61-4.43,3.81,0,6.61,3.08,6.61,6.77v.05c0,3.81-2.75,6.91-6.91,6.91-1.92,0-3.51-.62-4.75-1.86Zm11.07-5.02v-.05c0-3.43-2.59-6.26-6.05-6.26-3.72,0-6.5,2.83-6.5,5.97v.03c0,3.97,2.73,6.67,6.24,6.67,3.86,0,6.32-2.83,6.32-6.34Z"/>
      <path class="cls-4" d="M421.43,873.52h.57v6.42h10.63v-6.42h.57v13.5h-.57v-6.56h-10.63v6.56h-.57v-13.5Z"/>
      <path class="cls-4" d="M437.25,880.32v-.05c0-3.75,2.78-7.07,7.02-7.07s7.02,3.24,7.02,7.02v.05c0,3.81-2.78,7.07-7.02,7.07s-7.02-3.24-7.02-7.02Zm13.44-.03v-.05c0-3.56-2.67-6.5-6.45-6.5s-6.4,2.94-6.4,6.5v.05c0,3.56,2.67,6.51,6.45,6.51s6.4-2.94,6.4-6.51Z"/>
      <path class="cls-4" d="M455.34,873.52h9.66v.51h-9.1v12.98h-.57v-13.5Z"/>
      <path class="cls-4" d="M465.87,880.32v-.05c0-3.75,2.78-7.07,7.02-7.07s7.02,3.24,7.02,7.02v.05c0,3.81-2.78,7.07-7.02,7.07s-7.02-3.24-7.02-7.02Zm13.44-.03v-.05c0-3.56-2.67-6.5-6.45-6.5s-6.4,2.94-6.4,6.5v.05c0,3.56,2.67,6.51,6.45,6.51s6.4-2.94,6.4-6.51Z"/>
      <path class="cls-4" d="M503.26,873.52h.59l-6.26,13.77c-1.59,3.46-2.56,4.13-4.32,4.13-.94,0-1.92-.32-2.54-.73l.27-.46c.62,.35,1.51,.67,2.27,.67,1.59,0,2.4-.65,3.91-3.89l-6.5-13.5h.62l6.15,12.9,5.8-12.9Z"/>
      <path class="cls-4" d="M516.06,879.94h3.02l6.1-6.42h.76l-6.37,6.69,6.78,6.8h-.76l-6.5-6.56h-3.02v6.56h-.57v-6.56h-3.02l-6.5,6.56h-.76l6.77-6.8-6.37-6.69h.76l6.07,6.42h3.05v-6.42h.57v6.42Z"/>
      <path class="cls-4" d="M529.56,873.52h.57v12.63l10.82-12.63h.51v13.5h-.57v-12.63l-10.82,12.63h-.51v-13.5Z"/>
      <path class="cls-4" d="M546.49,873.52h.57v6.42h10.63v-6.42h.57v13.5h-.57v-6.56h-10.63v6.56h-.57v-13.5Z"/>
      <path class="cls-4" d="M562.15,883.29v-.05c0-2.83,2.67-4.29,6.02-4.29,1.92,0,3.7,.32,5.07,.84v-1.13c0-3.27-1.94-4.8-5.1-4.8-1.7,0-3.08,.46-4.48,1.13l-.22-.49c1.51-.73,2.97-1.19,4.72-1.19,1.89,0,3.32,.49,4.32,1.48,.84,.84,1.32,2.13,1.32,3.83v8.39h-.57v-3.19c-.57,1.59-2.59,3.51-6.05,3.51-2.64,0-5.05-1.38-5.05-4.05Zm11.09-1.21v-1.73c-1.43-.54-3-.86-5.05-.86-3.05,0-5.45,1.24-5.45,3.73v.05c0,2.38,2.11,3.54,4.48,3.54,3.59,0,6.02-2.35,6.02-4.72Z"/>
    </g>
    <g>
      <path class="cls-4" d="M300.06,1032.4c1.51,1.11,3.51,1.84,5.78,1.84,3.02,0,5.13-1.27,5.13-3.29v-.03c0-1.92-1.62-3.16-5.18-3.13h-2.92v-.51h2.92c3.05,0,4.8-1.16,4.8-3.1v-.03c0-1.73-1.78-3.02-4.62-3.02-2.29,0-4.08,.76-5.7,1.97l-.35-.43c1.65-1.27,3.56-2.05,6.05-2.05,3.16,0,5.18,1.43,5.18,3.56v.03c0,1.92-1.54,3.02-3.48,3.32,2.38,.3,3.86,1.4,3.86,3.43v.03c0,2.27-2.24,3.78-5.7,3.78-2.38,0-4.51-.73-6.13-1.89l.35-.46Z"/>
      <path class="cls-4" d="M314.53,1030.69v-.05c0-2.83,2.67-4.29,6.02-4.29,1.92,0,3.7,.32,5.07,.84v-1.13c0-3.27-1.94-4.8-5.1-4.8-1.7,0-3.08,.46-4.48,1.13l-.22-.49c1.51-.73,2.97-1.19,4.72-1.19,1.89,0,3.32,.49,4.32,1.48,.84,.84,1.32,2.13,1.32,3.83v8.39h-.57v-3.19c-.57,1.59-2.59,3.51-6.05,3.51-2.64,0-5.05-1.38-5.05-4.05Zm11.09-1.21v-1.73c-1.43-.54-3-.86-5.05-.86-3.05,0-5.45,1.24-5.45,3.73v.05c0,2.38,2.11,3.54,4.48,3.54,3.59,0,6.02-2.35,6.02-4.72Z"/>
      <path class="cls-4" d="M330.95,1020.92h6.94c2.73,0,4.37,1.16,4.37,3.29v.03c0,1.54-1.08,2.86-3,3.21,2.08,.3,3.51,1.51,3.51,3.37v.03c0,2.08-1.67,3.59-4.78,3.56h-7.04v-13.5Zm6.61,6.29c2.48,0,4.08-1.05,4.1-2.97v-.03c.03-1.73-1.3-2.81-3.81-2.78h-6.34v5.78h6.05Zm-6.05,6.69h6.48c2.73,0,4.18-1.24,4.18-3.08v-.03c0-1.75-1.48-3.1-4.62-3.08h-6.05v6.18Z"/>
      <path class="cls-4" d="M345.96,1027.67v-.05c0-4,2.73-7.02,6.48-7.02,4.26,0,6.21,3.75,6.21,7.13v.11h-12.07c.08,3.89,2.86,6.37,6.15,6.37,2.08,0,3.91-1.21,4.99-2.73l.46,.32c-1.16,1.7-3.1,2.94-5.48,2.94-3.67,0-6.75-2.75-6.75-7.07Zm12.07-.35c-.14-3.08-2.03-6.18-5.62-6.18-3.35,0-5.7,2.65-5.83,6.18h11.45Z"/>
      <path class="cls-4" d="M362.65,1020.92h.57v4.18c.78-2.59,3.1-4.51,6.24-4.51,3.91,0,6.75,3.13,6.75,7.04v.05c0,3.91-2.83,7.05-6.75,7.05-3.13,0-5.45-1.92-6.24-4.51v8.5h-.57v-17.81Zm12.96,6.8v-.05c0-3.59-2.48-6.53-6.18-6.53s-6.24,3-6.24,6.5v.05c0,3.48,2.59,6.51,6.24,6.51s6.18-2.86,6.18-6.48Z"/>
      <path class="cls-4" d="M380.33,1020.92h.57v12.98h9.04v-12.98h.57v12.98h9.04v-12.98h.57v13.5h-19.79v-13.5Z"/>
      <path class="cls-4" d="M404.2,1027.67v-.05c0-4,2.73-7.02,6.48-7.02,4.26,0,6.21,3.75,6.21,7.13v.11h-12.07c.08,3.89,2.86,6.37,6.15,6.37,2.08,0,3.91-1.21,4.99-2.73l.46,.32c-1.16,1.7-3.1,2.94-5.48,2.94-3.67,0-6.75-2.75-6.75-7.07Zm12.07-.35c-.14-3.08-2.03-6.18-5.62-6.18-3.35,0-5.7,2.65-5.83,6.18h11.45Z"/>
      <path class="cls-4" d="M420.89,1020.92h.57v6.42h10.63v-6.42h.57v13.5h-.57v-6.56h-10.63v6.56h-.57v-13.5Z"/>
      <path class="cls-4" d="M437.68,1020.92h.57v12.63l10.82-12.63h.51v13.5h-.57v-12.63l-10.82,12.63h-.51v-13.5Z"/>
      <path class="cls-4" d="M453.66,1027.67v-.05c0-4,2.73-7.02,6.48-7.02,4.26,0,6.21,3.75,6.21,7.13v.11h-12.07c.08,3.89,2.86,6.37,6.15,6.37,2.08,0,3.91-1.21,4.99-2.73l.46,.32c-1.16,1.7-3.1,2.94-5.48,2.94-3.67,0-6.75-2.75-6.75-7.07Zm12.07-.35c-.14-3.08-2.03-6.18-5.62-6.18-3.35,0-5.7,2.65-5.83,6.18h11.45Z"/>
      <path class="cls-4" d="M478.45,1020.92h6.94c2.73,0,4.37,1.16,4.37,3.29v.03c0,1.54-1.08,2.86-3,3.21,2.08,.3,3.51,1.51,3.51,3.37v.03c0,2.08-1.67,3.59-4.78,3.56h-7.04v-13.5Zm6.61,6.29c2.48,0,4.08-1.05,4.1-2.97v-.03c.03-1.73-1.3-2.81-3.81-2.78h-6.34v5.78h6.05Zm-6.05,6.69h6.48c2.73,0,4.18-1.24,4.18-3.08v-.03c0-1.75-1.48-3.1-4.62-3.08h-6.05v6.18Z"/>
      <path class="cls-4" d="M493.46,1027.67v-.05c0-4,2.73-7.02,6.48-7.02,4.26,0,6.21,3.75,6.21,7.13v.11h-12.07c.08,3.89,2.86,6.37,6.15,6.37,2.08,0,3.91-1.21,4.99-2.73l.46,.32c-1.16,1.7-3.1,2.94-5.48,2.94-3.67,0-6.75-2.75-6.75-7.07Zm12.07-.35c-.14-3.08-2.03-6.18-5.62-6.18-3.35,0-5.7,2.65-5.83,6.18h11.45Z"/>
      <path class="cls-4" d="M519.84,1029.21c-1.4,.41-3,.67-4.72,.67-3.64,0-5.67-1.4-5.67-4.75v-4.21h.57v4.18c0,3.02,1.83,4.24,5.1,4.24,1.65,0,3.24-.27,4.72-.67v-7.75h.57v13.5h-.57v-5.21Z"/>
      <path class="cls-4" d="M524.49,1027.67v-.05c0-4,2.73-7.02,6.48-7.02,4.26,0,6.21,3.75,6.21,7.13v.11h-12.07c.08,3.89,2.86,6.37,6.15,6.37,2.08,0,3.91-1.21,4.99-2.73l.46,.32c-1.16,1.7-3.1,2.94-5.48,2.94-3.67,0-6.75-2.75-6.75-7.07Zm12.07-.35c-.14-3.08-2.03-6.18-5.62-6.18-3.35,0-5.7,2.65-5.83,6.18h11.45Z"/>
      <path class="cls-4" d="M541.17,1020.92h.57v4.18c.78-2.59,3.1-4.51,6.24-4.51,3.91,0,6.75,3.13,6.75,7.04v.05c0,3.91-2.83,7.05-6.75,7.05-3.13,0-5.45-1.92-6.24-4.51v8.5h-.57v-17.81Zm12.96,6.8v-.05c0-3.59-2.48-6.53-6.18-6.53s-6.24,3-6.24,6.5v.05c0,3.48,2.59,6.51,6.24,6.51s6.18-2.86,6.18-6.48Z"/>
      <path class="cls-4" d="M557.72,1030.69v-.05c0-2.83,2.67-4.29,6.02-4.29,1.92,0,3.7,.32,5.07,.84v-1.13c0-3.27-1.94-4.8-5.1-4.8-1.7,0-3.08,.46-4.48,1.13l-.22-.49c1.51-.73,2.97-1.19,4.72-1.19,1.89,0,3.32,.49,4.32,1.48,.84,.84,1.32,2.13,1.32,3.83v8.39h-.57v-3.19c-.57,1.59-2.59,3.51-6.05,3.51-2.64,0-5.05-1.38-5.05-4.05Zm11.09-1.21v-1.73c-1.43-.54-3-.86-5.05-.86-3.05,0-5.45,1.24-5.45,3.73v.05c0,2.38,2.11,3.54,4.48,3.54,3.59,0,6.02-2.35,6.02-4.72Z"/>
      <path class="cls-4" d="M573.14,1036.26c.62-.3,.73-.86,.7-1.84h-.49v-1.4h.97v1.24c0,1.54-.27,2.05-1,2.35l-.19-.35Z"/>
      <path class="cls-4" d="M301.49,1059.73v-.05c0-3.75,2.78-7.07,7.02-7.07s7.02,3.24,7.02,7.02v.05c0,3.81-2.78,7.07-7.02,7.07s-7.02-3.24-7.02-7.02Zm13.44-.03v-.05c0-3.56-2.67-6.5-6.45-6.5s-6.4,2.94-6.4,6.5v.05c0,3.56,2.67,6.51,6.45,6.51s6.4-2.94,6.4-6.51Z"/>
      <path class="cls-4" d="M321.07,1064.88c-1.32-1.32-2.11-3.29-2.11-5.88v-.08c0-7.48,1.32-10.58,7.8-11.74l4.08-.73,.11,.57-4.05,.7c-5.78,1-7.1,3.54-7.4,9.72,1.08-3.1,3.91-4.43,6.61-4.43,3.81,0,6.61,3.08,6.61,6.77v.05c0,3.81-2.75,6.91-6.91,6.91-1.92,0-3.51-.62-4.75-1.86Zm11.07-5.02v-.05c0-3.43-2.59-6.26-6.05-6.26-3.72,0-6.5,2.83-6.5,5.97v.03c0,3.97,2.73,6.67,6.24,6.67,3.86,0,6.32-2.83,6.32-6.34Z"/>
      <path class="cls-4" d="M336.81,1052.92h.57v4.18c.78-2.59,3.1-4.51,6.24-4.51,3.91,0,6.75,3.13,6.75,7.04v.05c0,3.91-2.83,7.05-6.75,7.05-3.13,0-5.45-1.92-6.24-4.51v8.5h-.57v-17.81Zm12.96,6.8v-.05c0-3.59-2.48-6.53-6.18-6.53s-6.24,3-6.24,6.5v.05c0,3.48,2.59,6.51,6.24,6.51s6.18-2.86,6.18-6.48Z"/>
      <path class="cls-4" d="M353.36,1062.69v-.05c0-2.83,2.67-4.29,6.02-4.29,1.92,0,3.7,.32,5.07,.84v-1.13c0-3.27-1.94-4.8-5.1-4.8-1.7,0-3.08,.46-4.48,1.13l-.22-.49c1.51-.73,2.97-1.19,4.72-1.19,1.89,0,3.32,.49,4.32,1.48,.84,.84,1.32,2.13,1.32,3.83v8.39h-.57v-3.19c-.57,1.59-2.59,3.51-6.05,3.51-2.64,0-5.05-1.38-5.05-4.05Zm11.09-1.21v-1.73c-1.43-.54-3-.86-5.05-.86-3.05,0-5.45,1.24-5.45,3.73v.05c0,2.38,2.11,3.54,4.48,3.54,3.59,0,6.02-2.35,6.02-4.72Z"/>
      <path class="cls-4" d="M373.47,1053.44h-6.18v-.51h12.93v.51h-6.18v12.98h-.57v-12.98Z"/>
      <path class="cls-4" d="M383.3,1052.92h.57v6.42h10.63v-6.42h.57v13.5h-.57v-6.56h-10.63v6.56h-.57v-13.5Z"/>
      <path class="cls-4" d="M400.66,1058.16h5.72c3.02,0,4.94,1.78,4.94,4.1v.03c0,2.38-1.86,4.13-4.97,4.13h-6.26v-13.5h.57v5.24Zm0,7.77h5.7c2.78,0,4.4-1.54,4.4-3.62v-.05c0-2.02-1.62-3.62-4.4-3.62h-5.7v7.29Zm13.85-13.01h.57v13.5h-.57v-13.5Z"/>
      <path class="cls-4" d="M420.1,1052.92h.57v12.63l10.82-12.63h.51v13.5h-.57v-12.63l-10.82,12.63h-.51v-13.5Zm2.56-5.1h.43c.22,1.05,1.16,2.16,2.94,2.16s2.73-1.08,2.94-2.16h.43c-.19,1.51-1.32,2.67-3.37,2.67s-3.19-1.16-3.38-2.67Z"/>
      <path class="cls-4" d="M449.37,1053.44h-6.18v-.51h12.93v.51h-6.18v12.98h-.57v-12.98Z"/>
      <path class="cls-4" d="M459.2,1052.92h.57v4.18c.78-2.59,3.1-4.51,6.24-4.51,3.91,0,6.75,3.13,6.75,7.04v.05c0,3.91-2.83,7.05-6.75,7.05-3.13,0-5.45-1.92-6.24-4.51v8.5h-.57v-17.81Zm12.96,6.8v-.05c0-3.59-2.48-6.53-6.18-6.53s-6.24,3-6.24,6.5v.05c0,3.48,2.59,6.51,6.24,6.51s6.18-2.86,6.18-6.48Z"/>
      <path class="cls-4" d="M475.75,1062.69v-.05c0-2.83,2.67-4.29,6.02-4.29,1.92,0,3.7,.32,5.07,.84v-1.13c0-3.27-1.94-4.8-5.1-4.8-1.7,0-3.08,.46-4.48,1.13l-.22-.49c1.51-.73,2.97-1.19,4.72-1.19,1.89,0,3.32,.49,4.32,1.48,.84,.84,1.32,2.13,1.32,3.83v8.39h-.57v-3.19c-.57,1.59-2.59,3.51-6.05,3.51-2.64,0-5.05-1.38-5.05-4.05Zm11.09-1.21v-1.73c-1.43-.54-3-.86-5.05-.86-3.05,0-5.45,1.24-5.45,3.73v.05c0,2.38,2.11,3.54,4.48,3.54,3.59,0,6.02-2.35,6.02-4.72Z"/>
      <path class="cls-4" d="M492.16,1052.92h.57v6.42h10.63v-6.42h.57v13.5h-.57v-6.56h-10.63v6.56h-.57v-13.5Z"/>
      <path class="cls-4" d="M508.01,1059.7v-.05c0-3.81,3-7.04,6.91-7.04,2.48,0,4.02,1.08,5.4,2.51l-.4,.38c-1.21-1.3-2.75-2.35-5.02-2.35-3.59,0-6.29,2.94-6.29,6.48v.05c0,3.54,2.75,6.53,6.32,6.53,2.29,0,3.89-1.13,5.08-2.51l.4,.38c-1.27,1.49-3,2.67-5.51,2.67-3.89,0-6.88-3.24-6.88-7.05Z"/>
      <path class="cls-4" d="M531.64,1070.74v-4.26c-5.7-.08-8.93-2.73-8.93-6.75v-.05c0-4.02,3.21-6.72,8.93-6.8v-6.15h.57v6.15c5.7,.08,8.91,2.73,8.91,6.75v.05c0,4.08-3.21,6.72-8.91,6.8v4.26h-.57Zm-8.34-11.04c0,3.73,2.92,6.26,8.34,6.26v-12.58c-5.4,.03-8.34,2.46-8.34,6.26v.05Zm17.22-.05c0-3.75-2.89-6.18-8.31-6.26v12.58c5.43-.03,8.31-2.46,8.31-6.26v-.05Z"/>
      <path class="cls-4" d="M544.19,1059.67v-.05c0-4,2.73-7.02,6.48-7.02,4.26,0,6.21,3.75,6.21,7.13v.11h-12.07c.08,3.89,2.86,6.37,6.15,6.37,2.08,0,3.91-1.21,4.99-2.73l.46,.32c-1.16,1.7-3.1,2.94-5.48,2.94-3.67,0-6.75-2.75-6.75-7.07Zm12.07-.35c-.14-3.08-2.03-6.18-5.62-6.18-3.35,0-5.7,2.65-5.83,6.18h11.45Z"/>
      <path class="cls-4" d="M560.88,1052.92h.57v4.18c.78-2.59,3.1-4.51,6.24-4.51,3.91,0,6.75,3.13,6.75,7.04v.05c0,3.91-2.83,7.05-6.75,7.05-3.13,0-5.45-1.92-6.24-4.51v8.5h-.57v-17.81Zm12.96,6.8v-.05c0-3.59-2.48-6.53-6.18-6.53s-6.24,3-6.24,6.5v.05c0,3.48,2.59,6.51,6.24,6.51s6.18-2.86,6.18-6.48Z"/>
      <path class="cls-4" d="M362.11,1091.35h3.24l6.34-6.42h.76l-6.64,6.69,7.07,6.8h-.78l-6.8-6.56h-3.19v6.56h-.57v-13.5h.57v6.42Z"/>
      <path class="cls-4" d="M384.14,1084.92h.57l6.42,8.96,6.4-8.96h.57v13.5h-.57v-12.52l-6.37,8.83h-.08l-6.37-8.83v12.52h-.57v-13.5Z"/>
      <path class="cls-4" d="M402.34,1097.02h.97v1.4h-.97v-1.4Z"/>
      <path class="cls-4" d="M415.95,1079.53h.57l8.23,11.71,8.23-11.71h.54v18.89h-.59v-17.9l-8.18,11.66h-.03l-8.18-11.66v17.9h-.59v-18.89Z"/>
      <path class="cls-4" d="M437.87,1091.73v-.05c0-3.75,2.78-7.07,7.02-7.07s7.02,3.24,7.02,7.02v.05c0,3.81-2.78,7.07-7.02,7.07s-7.02-3.24-7.02-7.02Zm13.44-.03v-.05c0-3.56-2.67-6.5-6.45-6.5s-6.4,2.94-6.4,6.5v.05c0,3.56,2.67,6.51,6.45,6.51s6.4-2.94,6.4-6.51Z"/>
      <path class="cls-4" d="M455.01,1091.7v-.05c0-3.81,3-7.04,6.91-7.04,2.48,0,4.02,1.08,5.4,2.51l-.4,.38c-1.21-1.3-2.75-2.35-5.02-2.35-3.59,0-6.29,2.94-6.29,6.48v.05c0,3.54,2.75,6.53,6.32,6.53,2.29,0,3.89-1.13,5.08-2.51l.4,.38c-1.27,1.49-3,2.67-5.51,2.67-3.89,0-6.88-3.24-6.88-7.05Z"/>
      <path class="cls-4" d="M471.67,1091.35h3.24l6.34-6.42h.76l-6.64,6.69,7.07,6.8h-.78l-6.8-6.56h-3.19v6.56h-.57v-13.5h.57v6.42Z"/>
      <path class="cls-4" d="M483.96,1091.73v-.05c0-3.75,2.78-7.07,7.02-7.07s7.02,3.24,7.02,7.02v.05c0,3.81-2.78,7.07-7.02,7.07s-7.02-3.24-7.02-7.02Zm13.44-.03v-.05c0-3.56-2.67-6.5-6.45-6.5s-6.4,2.94-6.4,6.5v.05c0,3.56,2.67,6.51,6.45,6.51s6.4-2.94,6.4-6.51Z"/>
      <path class="cls-4" d="M502.05,1084.92h6.94c2.73,0,4.37,1.16,4.37,3.29v.03c0,1.54-1.08,2.86-3,3.21,2.08,.3,3.51,1.51,3.51,3.37v.03c0,2.08-1.67,3.59-4.78,3.56h-7.04v-13.5Zm6.61,6.29c2.48,0,4.08-1.05,4.1-2.97v-.03c.03-1.73-1.3-2.81-3.81-2.78h-6.34v5.78h6.05Zm-6.05,6.69h6.48c2.73,0,4.18-1.24,4.18-3.08v-.03c0-1.75-1.48-3.1-4.62-3.08h-6.05v6.18Z"/>
      <path class="cls-4" d="M517.06,1091.7v-.05c0-3.81,3-7.04,6.91-7.04,2.48,0,4.02,1.08,5.4,2.51l-.4,.38c-1.21-1.3-2.75-2.35-5.02-2.35-3.59,0-6.29,2.94-6.29,6.48v.05c0,3.54,2.75,6.53,6.32,6.53,2.29,0,3.89-1.13,5.08-2.51l.4,.38c-1.27,1.49-3,2.67-5.51,2.67-3.89,0-6.88-3.24-6.88-7.05Z"/>
      <path class="cls-4" d="M533.72,1091.35h3.24l6.34-6.42h.76l-6.64,6.69,7.07,6.8h-.78l-6.8-6.56h-3.19v6.56h-.57v-13.5h.57v6.42Z"/>
      <path class="cls-4" d="M546.11,1094.69v-.05c0-2.83,2.67-4.29,6.02-4.29,1.92,0,3.7,.32,5.07,.84v-1.13c0-3.27-1.94-4.8-5.1-4.8-1.7,0-3.08,.46-4.48,1.13l-.22-.49c1.51-.73,2.97-1.19,4.72-1.19,1.89,0,3.32,.49,4.32,1.48,.84,.84,1.32,2.13,1.32,3.83v8.39h-.57v-3.19c-.57,1.59-2.59,3.51-6.05,3.51-2.64,0-5.05-1.38-5.05-4.05Zm11.09-1.21v-1.73c-1.43-.54-3-.86-5.05-.86-3.05,0-5.45,1.24-5.45,3.73v.05c0,2.38,2.11,3.54,4.48,3.54,3.59,0,6.02-2.35,6.02-4.72Z"/>
      <path class="cls-4" d="M561.37,1098.42l4.7-5.56c-2.48-.3-4.05-1.78-4.02-3.94v-.03c0-2.27,1.94-3.97,4.89-3.97h6.61v13.5h-.57v-5.51h-6.26l-4.62,5.51h-.73Zm5.53-13.01c-2.67,0-4.29,1.43-4.29,3.48v.03c0,2.03,1.57,3.51,4.35,3.51h6.02v-7.02h-6.07Z"/>
    </g>
    <g>
      <path class="cls-1" d="M3.97,1014.46v10.62c0,1.42-.18,1.77-1.29,1.77-.92,0-1.11-.35-1.11-1.77v-114.01c0-1.42,.18-1.77,1.11-1.77,1.11,0,1.29,.35,1.29,1.77v10.62H134.71v-10.62c0-1.42,.18-1.77,1.29-1.77,.92,0,1.11,.35,1.11,1.77v51.34c0,1.42-.55,2.12-1.11,2.12-.74,0-1.29-.71-1.29-2.12v-5.31H3.97v21.95H134.71v-7.08c0-1.06,.55-1.77,1.29-1.77,.55,0,1.11,.71,1.11,1.77v53.11c0,1.42-.18,1.77-1.11,1.77-1.11,0-1.29-.35-1.29-1.77v-10.62H3.97Z"/>
      <path class="cls-1" d="M134.71,796.35v-10.62c0-1.42,.18-1.77,1.29-1.77,.92,0,1.11,.35,1.11,1.77v56.65c0,1.42-.18,1.77-1.11,1.77-1.11,0-1.29-.35-1.29-1.77v-10.62H3.97v15.58c0,6.37,1.11,7.44,8.67,7.79l95.34,2.48c18.62,.35,30.24,4.25,30.24,24.79,0,14.52-7.56,24.43-17.89,24.43-8.67,0-14.01-7.08-14.01-18.41,0-4.96,1.84-12.39,6.45-12.39,8.3,0,4.98,22.31,14.57,22.31,3.87,0,8.48-4.96,8.48-16.64,0-15.23-10.14-19.12-28.21-19.47l-94.97-2.48c-4.43,0-8.67,2.83-8.67,17v10.62c0,1.42-.18,1.77-1.29,1.77-.92,0-1.11-.35-1.11-1.77v-101.62c0-1.42,.18-1.77,1.11-1.77,1.11,0,1.29,.35,1.29,1.77v10.62H134.71Z"/>
      <path class="cls-1" d="M134.71,684.11v-7.44c0-1.42,.55-2.12,1.29-2.12,.55,0,1.11,.71,1.11,2.12v48.51c0,1.42-.18,1.77-1.11,1.77-1.11,0-1.29-.35-1.29-1.77v-7.08l-41.31,8.14v26.2l23.6,5.31c3.32,.71,5.35,1.42,9.22,1.42,5.35,0,8.48-4.6,8.48-14.52,0-1.42,.37-1.77,1.29-1.77,.74,0,1.11,.35,1.11,1.77v34.7c0,1.06-.18,1.77-1.11,1.77-1.11,0-1.29-.35-1.29-1.77,0-7.44-4.24-14.52-13.09-16.29l-106.03-21.24-9.96,2.12,.37,4.96c0,.71-.37,1.77-1.47,1.77-.55,0-.74-.35-.92-1.42l-3.13-38.24,134.25-26.91Zm-43.7,42.84l-66.94,12.04,66.94,12.75v-24.79Z"/>
      <path class="cls-1" d="M3.97,661.1v10.62c0,1.42-.18,1.77-1.29,1.77-.92,0-1.11-.35-1.11-1.77v-52.05c0-1.42,.18-1.77,1.11-1.77,1.11,0,1.29,.35,1.29,1.77v6.02H62.98v-21.95H3.97v6.02c0,1.42-.18,1.77-1.29,1.77-.92,0-1.11-.35-1.11-1.77v-52.05c0-1.42,.18-1.77,1.11-1.77,1.11,0,1.29,.35,1.29,1.77v10.62H134.71v-10.62c0-1.42,.18-1.77,1.29-1.77,.92,0,1.11,.35,1.11,1.77v52.05c0,1.42-.18,1.77-1.11,1.77-1.11,0-1.29-.35-1.29-1.77v-6.02H65.37v21.95h69.33v-6.02c0-1.42,.18-1.77,1.29-1.77,.92,0,1.11,.35,1.11,1.77v52.05c0,1.42-.18,1.77-1.11,1.77-1.11,0-1.29-.35-1.29-1.77v-10.62H3.97Z"/>
      <path class="cls-1" d="M134.71,382.8h42.97c.92,0,1.11,.35,1.11,2.12,0,2.12-.18,2.48-1.11,2.48-19.18,0-40.57,15.93-40.57,36.83v33.99c0,20.89,21.39,36.82,40.57,36.82,.92,0,1.11,.35,1.11,2.48,0,1.77-.18,2.12-1.11,2.12h-42.97v-9.21c-5.35-13.46-18.99-20.54-42.04-21.95l-80.03-4.96c-4.43-.35-8.67,2.48-8.67,16.29v10.62c0,1.42-.18,1.77-1.29,1.77-.92,0-1.11-.35-1.11-1.77v-101.62c0-1.42,.18-1.77,1.11-1.77,1.11,0,1.29,.35,1.29,1.77v10.62H134.71v-16.64ZM3.97,434.85v10.98c0,7.08,.74,12.75,8.67,13.1l80.03,4.96c23.42,1.42,34.85,4.6,42.04,10.62v-39.66H3.97Z"/>
      <path class="cls-1" d="M3.97,361.91v10.62c0,1.42-.18,1.77-1.29,1.77-.92,0-1.11-.35-1.11-1.77v-52.05c0-1.42,.18-1.77,1.11-1.77,1.11,0,1.29,.35,1.29,1.77v6.02H62.98v-21.95H3.97v6.02c0,1.42-.18,1.77-1.29,1.77-.92,0-1.11-.35-1.11-1.77v-52.05c0-1.42,.18-1.77,1.11-1.77,1.11,0,1.29,.35,1.29,1.77v10.62H134.71v-10.62c0-1.42,.18-1.77,1.29-1.77,.92,0,1.11,.35,1.11,1.77v52.05c0,1.42-.18,1.77-1.11,1.77-1.11,0-1.29-.35-1.29-1.77v-6.02H65.37v21.95h69.33v-6.02c0-1.42,.18-1.77,1.29-1.77,.92,0,1.11,.35,1.11,1.77v52.05c0,1.42-.18,1.77-1.11,1.77-1.11,0-1.29-.35-1.29-1.77v-10.62H3.97Z"/>
      <path class="cls-1" d="M68.69,174.61v6.37c0,11.68,2.58,15.23,9.4,15.23h43.52c11.8,0,16.78,13.1,16.78,27.97,0,20.18-8.3,29.39-22.87,29.39-1.11,0-1.29-.35-1.29-2.12s.18-2.12,1.29-2.12c12.72,0,16.6-6.73,16.6-12.39,0-3.54-1.29-5.31-4.06-5.31h-32.82c-20.84,0-25.08-24.08-27.66-41.78-2.21,12.75-7.75,43.91-32.46,43.91-19.36,0-33.56-21.25-33.56-50.28v-54.88c0-1.42,.18-1.77,1.11-1.77,1.11,0,1.29,.35,1.29,1.77v10.62H134.71v-10.62c0-1.42,.18-1.77,1.29-1.77,.92,0,1.11,.35,1.11,1.77v56.65c0,1.42-.18,1.77-1.11,1.77-1.11,0-1.29-.35-1.29-1.77v-10.62H68.69Zm-56.61,22.66H57.81c5.16,0,8.48-5.31,8.48-13.81v-8.85H3.97v8.85c0,10.62,2.77,13.81,8.11,13.81Z"/>
    </g>
    <g>
      <path class="cls-1" d="M459.82,57.03v43.32h3.92c.46,0,.58,.06,.58,.42,0,.3-.12,.36-.58,.36h-19.58c-.46,0-.58-.06-.58-.36,0-.36,.12-.42,.58-.42h4.95v-35.34c0-.6,.23-1.2,.58-1.62-1.15,.9-4.38,2.28-5.53,2.28-.35,0-.58-.12-.58-.42,0-.12,.12-.18,.35-.24,5.99-2.28,7.72-4.5,9.1-7.98h6.8Z"/>
      <path class="cls-1" d="M486.54,81.75c0-2.64-1.61-3.96-4.84-3.96h-5.88c-.35,0-.69-.24-.69-.42,0-.24,.35-.36,.69-.36h6.34c2.3,0,3.92-.84,3.92-2.34v-14.16c0-2.04-1.61-3.12-3.8-3.12-4.03,0-8.99,2.46-8.99,5.52,0,2.64,8.06,2.64,8.06,5.22,0,1.32-1.5,2.28-4.61,2.28-3.69,0-5.99-1.8-5.99-4.86,0-5.46,4.84-8.88,12.56-8.88,8.29,0,13.59,4.02,13.59,10.32,0,5.64-3.8,8.7-12.56,10.38,5.3,.78,13.71,2.04,13.71,11.58,0,11.28-12.56,12.54-15.78,12.54-7.37,0-12.44-3.9-12.44-9.6,0-3.84,2.65-6.18,6.91-6.18,2.76,0,4.84,1.08,4.84,2.82,0,3.66-9.22,3.54-9.22,6.3,0,3.3,4.72,5.94,9.33,5.94,2.65,0,4.84-1.44,4.84-3.24v-15.78Z"/>
      <path class="cls-1" d="M513.15,72.81c0,1.92-2.3,3.36-5.07,3.36s-5.07-1.44-5.07-3.36,2.3-3.48,5.07-3.48,5.07,1.56,5.07,3.48Zm0,25.14c0,1.92-2.3,3.36-5.07,3.36s-5.07-1.44-5.07-3.36,2.3-3.48,5.07-3.48,5.07,1.56,5.07,3.48Z"/>
      <path class="cls-1" d="M535.62,57.03v43.32h3.92c.46,0,.58,.06,.58,.42,0,.3-.12,.36-.58,.36h-19.58c-.46,0-.58-.06-.58-.36,0-.36,.12-.42,.58-.42h4.95v-35.34c0-.6,.23-1.2,.58-1.62-1.15,.9-4.38,2.28-5.53,2.28-.35,0-.58-.12-.58-.42,0-.12,.12-.18,.35-.24,5.99-2.28,7.72-4.5,9.1-7.98h6.8Z"/>
      <path class="cls-1" d="M573.98,87.09c0,9-6.34,14.4-14.4,14.4s-13.94-5.4-13.94-14.4v-15.66c0-9.24,5.07-14.76,14.17-14.76s14.17,5.52,14.17,15.06v15.36Zm-17.74,10.2c0,2.76,1.61,3.48,3.69,3.48,1.96,0,3.46-.72,3.46-3.48V59.97c0-1.68-1.38-2.58-3.57-2.58s-3.57,.66-3.57,2.58v37.32Z"/>
    </g>
    <g>
      <path class="cls-1" d="M454.98,230.58v43.32h3.92c.46,0,.58,.06,.58,.42,0,.3-.12,.36-.58,.36h-19.58c-.46,0-.58-.06-.58-.36,0-.36,.12-.42,.58-.42h4.95v-35.34c0-.6,.23-1.2,.58-1.62-1.15,.9-4.38,2.28-5.53,2.28-.35,0-.58-.12-.58-.42,0-.12,.12-.18,.35-.24,5.99-2.28,7.72-4.5,9.1-7.98h6.8Z"/>
      <path class="cls-1" d="M463.16,263.1c14.75-11.1,13.82-16.56,13.82-26.76,0-3.84,2.54-6.12,6.68-6.12,3.57,0,5.18,1.86,5.18,5.52,0,8.16-12.67,18-23.16,26.58h11.29v-2.46c4.95-4.08,8.53-7.56,9.33-11.16h1.38v13.62h5.76c.35,0,.58,.06,.58,.36s-.23,.42-.58,.42h-5.76v10.8h3.57c.69,0,.92,.18,.92,.42s-.23,.36-.92,.36h-19.24c-.35,0-.58-.12-.58-.36s.12-.42,.58-.42h4.95v-10.8h-13.82Z"/>
      <path class="cls-1" d="M508.32,246.36c0,1.92-2.3,3.36-5.07,3.36s-5.07-1.44-5.07-3.36,2.3-3.48,5.07-3.48,5.07,1.56,5.07,3.48Zm0,25.14c0,1.92-2.3,3.36-5.07,3.36s-5.07-1.44-5.07-3.36,2.3-3.48,5.07-3.48,5.07,1.56,5.07,3.48Z"/>
      <path class="cls-1" d="M541.49,260.64c0,9-6.34,14.4-14.4,14.4s-13.94-5.4-13.94-14.4v-15.66c0-9.24,5.07-14.76,14.17-14.76s14.17,5.52,14.17,15.06v15.36Zm-17.74,10.2c0,2.76,1.61,3.48,3.69,3.48,1.96,0,3.46-.72,3.46-3.48v-37.32c0-1.68-1.38-2.58-3.57-2.58s-3.57,.66-3.57,2.58v37.32Z"/>
      <path class="cls-1" d="M573.98,260.64c0,9-6.34,14.4-14.4,14.4s-13.94-5.4-13.94-14.4v-15.66c0-9.24,5.07-14.76,14.17-14.76s14.17,5.52,14.17,15.06v15.36Zm-17.74,10.2c0,2.76,1.61,3.48,3.69,3.48,1.96,0,3.46-.72,3.46-3.48v-37.32c0-1.68-1.38-2.58-3.57-2.58s-3.57,.66-3.57,2.58v37.32Z"/>
    </g>
    <g>
      <path class="cls-1" d="M454.98,472.37v43.32h3.92c.46,0,.58,.06,.58,.42,0,.3-.12,.36-.58,.36h-19.58c-.46,0-.58-.06-.58-.36,0-.36,.12-.42,.58-.42h4.95v-35.34c0-.6,.23-1.2,.58-1.62-1.15,.9-4.38,2.28-5.53,2.28-.35,0-.58-.12-.58-.42,0-.12,.12-.18,.35-.24,5.99-2.28,7.72-4.5,9.1-7.98h6.8Z"/>
      <path class="cls-1" d="M467.88,472.37h22.46l.23-1.08c0-.18,.23-.3,.69-.3,.35,0,.58,.06,.58,.3l-.69,5.88c0,.24-.35,.36-1.04,.36h-20.74l-.69,12.96c3.34-3.78,6.22-5.1,11.06-5.1,2.54,0,4.95,.54,6.68,1.5,5.07,2.64,6.68,6.48,6.68,15.18,0,6.66-1.61,10.08-5.99,12.54-2.53,1.38-5.64,2.16-9.22,2.16-7.37,0-12.44-3.84-12.44-9.54,0-3.84,2.65-6.18,6.91-6.18,2.77,0,4.84,1.08,4.84,2.82,0,3.78-8.99,3.48-8.99,6.36,0,3.42,4.49,5.76,9.1,5.76,2.65,0,4.72-1.26,4.72-3.24v-22.92c0-2.34-1.27-3.54-3.57-3.54-5.65,0-10.14,4.56-10.6,10.62,0,.3-.23,.42-.69,.42-.35,0-.58-.18-.58-.42l1.27-24.54Z"/>
      <path class="cls-1" d="M508.32,488.15c0,1.92-2.3,3.36-5.07,3.36s-5.07-1.44-5.07-3.36,2.3-3.48,5.07-3.48,5.07,1.56,5.07,3.48Zm0,25.14c0,1.92-2.3,3.36-5.07,3.36s-5.07-1.44-5.07-3.36,2.3-3.48,5.07-3.48,5.07,1.56,5.07,3.48Z"/>
      <path class="cls-1" d="M541.49,502.43c0,9-6.34,14.4-14.4,14.4s-13.94-5.4-13.94-14.4v-15.66c0-9.24,5.07-14.76,14.17-14.76s14.17,5.52,14.17,15.06v15.36Zm-17.74,10.2c0,2.76,1.61,3.48,3.69,3.48,1.96,0,3.46-.72,3.46-3.48v-37.32c0-1.68-1.38-2.58-3.57-2.58s-3.57,.66-3.57,2.58v37.32Z"/>
      <path class="cls-1" d="M573.98,502.43c0,9-6.34,14.4-14.4,14.4s-13.94-5.4-13.94-14.4v-15.66c0-9.24,5.07-14.76,14.17-14.76s14.17,5.52,14.17,15.06v15.36Zm-17.74,10.2c0,2.76,1.61,3.48,3.69,3.48,1.96,0,3.46-.72,3.46-3.48v-37.32c0-1.68-1.38-2.58-3.57-2.58s-3.57,.66-3.57,2.58v37.32Z"/>
    </g>
    <g>
      <path class="cls-1" d="M261.78,631.75v43.32h3.92c.46,0,.58,.06,.58,.42,0,.3-.12,.36-.58,.36h-19.58c-.46,0-.58-.06-.58-.36,0-.36,.12-.42,.58-.42h4.95v-35.34c0-.6,.23-1.2,.58-1.62-1.15,.9-4.38,2.28-5.53,2.28-.35,0-.58-.12-.58-.42,0-.12,.12-.18,.35-.24,5.99-2.28,7.72-4.5,9.1-7.98h6.8Z"/>
      <path class="cls-1" d="M274.68,631.75h22.46l.23-1.08c0-.18,.23-.3,.69-.3,.35,0,.58,.06,.58,.3l-.69,5.88c0,.24-.35,.36-1.04,.36h-20.74l-.69,12.96c3.34-3.78,6.22-5.1,11.06-5.1,2.54,0,4.95,.54,6.68,1.5,5.07,2.64,6.68,6.48,6.68,15.18,0,6.66-1.61,10.08-5.99,12.54-2.53,1.38-5.64,2.16-9.22,2.16-7.37,0-12.44-3.84-12.44-9.54,0-3.84,2.65-6.18,6.91-6.18,2.77,0,4.84,1.08,4.84,2.82,0,3.78-8.99,3.48-8.99,6.36,0,3.42,4.49,5.76,9.1,5.76,2.65,0,4.72-1.26,4.72-3.24v-22.92c0-2.34-1.27-3.54-3.57-3.54-5.65,0-10.14,4.56-10.6,10.62,0,.3-.23,.42-.69,.42-.35,0-.58-.18-.58-.42l1.27-24.54Z"/>
      <path class="cls-1" d="M315.12,647.53c0,1.92-2.3,3.36-5.07,3.36s-5.07-1.44-5.07-3.36,2.3-3.48,5.07-3.48,5.07,1.56,5.07,3.48Zm0,25.14c0,1.92-2.3,3.36-5.07,3.36s-5.07-1.44-5.07-3.36,2.3-3.48,5.07-3.48,5.07,1.56,5.07,3.48Z"/>
      <path class="cls-1" d="M336.66,656.47c0-2.64-1.61-3.96-4.84-3.96h-5.88c-.35,0-.69-.24-.69-.42,0-.24,.35-.36,.69-.36h6.34c2.3,0,3.92-.84,3.92-2.34v-14.16c0-2.04-1.61-3.12-3.8-3.12-4.03,0-8.99,2.46-8.99,5.52,0,2.64,8.06,2.64,8.06,5.22,0,1.32-1.5,2.28-4.61,2.28-3.69,0-5.99-1.8-5.99-4.86,0-5.46,4.84-8.88,12.56-8.88,8.29,0,13.59,4.02,13.59,10.32,0,5.64-3.8,8.7-12.56,10.38,5.3,.78,13.71,2.04,13.71,11.58,0,11.28-12.56,12.54-15.78,12.54-7.37,0-12.44-3.9-12.44-9.6,0-3.84,2.65-6.18,6.91-6.18,2.76,0,4.84,1.08,4.84,2.82,0,3.66-9.22,3.54-9.22,6.3,0,3.3,4.72,5.94,9.33,5.94,2.65,0,4.84-1.44,4.84-3.24v-15.78Z"/>
      <path class="cls-1" d="M380.78,661.81c0,9-6.34,14.4-14.4,14.4s-13.94-5.4-13.94-14.4v-15.66c0-9.24,5.07-14.76,14.17-14.76s14.17,5.52,14.17,15.06v15.36Zm-17.74,10.2c0,2.76,1.61,3.48,3.69,3.48,1.96,0,3.46-.72,3.46-3.48v-37.32c0-1.68-1.38-2.58-3.57-2.58s-3.57,.66-3.57,2.58v37.32Z"/>
      <path class="cls-1" d="M401.87,656.35h14.4v3h-14.4v-3Z"/>
      <path class="cls-1" d="M454.98,631.75v43.32h3.92c.46,0,.58,.06,.58,.42,0,.3-.12,.36-.58,.36h-19.58c-.46,0-.58-.06-.58-.36,0-.36,.12-.42,.58-.42h4.95v-35.34c0-.6,.23-1.2,.58-1.62-1.15,.9-4.38,2.28-5.53,2.28-.35,0-.58-.12-.58-.42,0-.12,.12-.18,.35-.24,5.99-2.28,7.72-4.5,9.1-7.98h6.8Z"/>
      <path class="cls-1" d="M476.17,651.85c2.42-1.8,4.61-2.46,7.6-2.46,5.65,0,9.68,4.2,9.68,10.08v4.14c0,6.9-6.22,12.54-13.94,12.54-12.79,0-13.94-9.42-13.94-14.4v-15.78c0-8.1,6.57-14.7,14.86-14.7,5.88,0,11.29,3.78,11.29,7.98,0,2.76-2.42,4.8-5.88,4.8-3.11,0-4.26-1.2-4.26-2.58,0-2.7,6.34-2.76,6.34-5.82,0-1.68-4.26-3.72-7.49-3.72-2.76,0-4.26,1.44-4.26,3.72v16.2Zm6.57,1.44c0-1.26-1.15-2.28-2.3-2.28-1.96,0-3.8,1.8-4.26,3.36v18.24c0,1.5,1.04,2.76,3.23,2.76,2.42,0,3.34-1.26,3.34-2.76v-19.32Z"/>
      <path class="cls-1" d="M508.32,647.53c0,1.92-2.3,3.36-5.07,3.36s-5.07-1.44-5.07-3.36,2.3-3.48,5.07-3.48,5.07,1.56,5.07,3.48Zm0,25.14c0,1.92-2.3,3.36-5.07,3.36s-5.07-1.44-5.07-3.36,2.3-3.48,5.07-3.48,5.07,1.56,5.07,3.48Z"/>
      <path class="cls-1" d="M541.49,661.81c0,9-6.34,14.4-14.4,14.4s-13.94-5.4-13.94-14.4v-15.66c0-9.24,5.07-14.76,14.17-14.76s14.17,5.52,14.17,15.06v15.36Zm-17.74,10.2c0,2.76,1.61,3.48,3.69,3.48,1.96,0,3.46-.72,3.46-3.48v-37.32c0-1.68-1.38-2.58-3.57-2.58s-3.57,.66-3.57,2.58v37.32Z"/>
      <path class="cls-1" d="M573.98,661.81c0,9-6.34,14.4-14.4,14.4s-13.94-5.4-13.94-14.4v-15.66c0-9.24,5.07-14.76,14.17-14.76s14.17,5.52,14.17,15.06v15.36Zm-17.74,10.2c0,2.76,1.61,3.48,3.69,3.48,1.96,0,3.46-.72,3.46-3.48v-37.32c0-1.68-1.38-2.58-3.57-2.58s-3.57,.66-3.57,2.58v37.32Z"/>
    </g>
    <g>
      <path class="cls-1" d="M454.98,795.6v43.32h3.92c.46,0,.58,.06,.58,.42,0,.3-.12,.36-.58,.36h-19.58c-.46,0-.58-.06-.58-.36,0-.36,.12-.42,.58-.42h4.95v-35.34c0-.6,.23-1.2,.58-1.62-1.15,.9-4.38,2.28-5.53,2.28-.35,0-.58-.12-.58-.42,0-.12,.12-.18,.35-.24,5.99-2.28,7.72-4.5,9.1-7.98h6.8Z"/>
      <path class="cls-1" d="M476.17,815.7c2.42-1.8,4.61-2.46,7.6-2.46,5.65,0,9.68,4.2,9.68,10.08v4.14c0,6.9-6.22,12.54-13.94,12.54-12.79,0-13.94-9.42-13.94-14.4v-15.78c0-8.1,6.57-14.7,14.86-14.7,5.88,0,11.29,3.78,11.29,7.98,0,2.76-2.42,4.8-5.88,4.8-3.11,0-4.26-1.2-4.26-2.58,0-2.7,6.34-2.76,6.34-5.82,0-1.68-4.26-3.72-7.49-3.72-2.76,0-4.26,1.44-4.26,3.72v16.2Zm6.57,1.44c0-1.26-1.15-2.28-2.3-2.28-1.96,0-3.8,1.8-4.26,3.36v18.24c0,1.5,1.04,2.76,3.23,2.76,2.42,0,3.34-1.26,3.34-2.76v-19.32Z"/>
      <path class="cls-1" d="M508.31,811.38c0,1.92-2.3,3.36-5.07,3.36s-5.07-1.44-5.07-3.36,2.3-3.48,5.07-3.48,5.07,1.56,5.07,3.48Zm0,25.14c0,1.92-2.3,3.36-5.07,3.36s-5.07-1.44-5.07-3.36,2.3-3.48,5.07-3.48,5.07,1.56,5.07,3.48Z"/>
      <path class="cls-1" d="M541.49,825.66c0,9-6.34,14.4-14.4,14.4s-13.94-5.4-13.94-14.4v-15.66c0-9.24,5.07-14.76,14.17-14.76s14.17,5.52,14.17,15.06v15.36Zm-17.74,10.2c0,2.76,1.61,3.48,3.69,3.48,1.96,0,3.46-.72,3.46-3.48v-37.32c0-1.68-1.38-2.58-3.57-2.58s-3.57,.66-3.57,2.58v37.32Z"/>
      <path class="cls-1" d="M573.98,825.66c0,9-6.34,14.4-14.4,14.4s-13.94-5.4-13.94-14.4v-15.66c0-9.24,5.07-14.76,14.17-14.76s14.17,5.52,14.17,15.06v15.36Zm-17.74,10.2c0,2.76,1.61,3.48,3.69,3.48,1.96,0,3.46-.72,3.46-3.48v-37.32c0-1.68-1.38-2.58-3.57-2.58s-3.57,.66-3.57,2.58v37.32Z"/>
    </g>
    <g>
      <path class="cls-1" d="M432.05,997.48c0-6.84,3.69-11.1,10.37-15.78,6.57-4.56,7.14-7.44,7.14-12.6v-8.88c0-2.58-.46-4.92-5.18-4.92-2.76,0-9.1,1.98-9.1,5.16,0,3.48,8.87,3.12,8.87,6.54,0,1.5-2.3,2.34-5.18,2.34-3.46,0-6.34-2.58-6.34-6.24,0-6.24,7.26-8.7,13.71-8.7,8.18,0,14.4,4.56,14.4,11.7,0,6.12-6.11,9.78-14.29,14.76-8.64,5.28-10.6,8.22-11.98,12.72h24.19l.58-7.92c0-.3,.23-.36,.69-.36s.58,.06,.58,.36l-.92,13.08h-27.53v-1.26Z"/>
      <path class="cls-1" d="M481.7,979.36c0-2.64-1.61-3.96-4.84-3.96h-5.88c-.35,0-.69-.24-.69-.42,0-.24,.35-.36,.69-.36h6.34c2.3,0,3.92-.84,3.92-2.34v-14.16c0-2.04-1.61-3.12-3.8-3.12-4.03,0-8.99,2.46-8.99,5.52,0,2.64,8.06,2.64,8.06,5.22,0,1.32-1.5,2.28-4.61,2.28-3.69,0-5.99-1.8-5.99-4.86,0-5.46,4.84-8.88,12.56-8.88,8.29,0,13.59,4.02,13.59,10.32,0,5.64-3.8,8.7-12.56,10.38,5.3,.78,13.71,2.04,13.71,11.58,0,11.28-12.56,12.54-15.78,12.54-7.37,0-12.44-3.9-12.44-9.6,0-3.84,2.65-6.18,6.91-6.18,2.76,0,4.84,1.08,4.84,2.82,0,3.66-9.22,3.54-9.22,6.3,0,3.3,4.72,5.94,9.33,5.94,2.65,0,4.84-1.44,4.84-3.24v-15.78Z"/>
      <path class="cls-1" d="M508.31,970.42c0,1.92-2.3,3.36-5.07,3.36s-5.07-1.44-5.07-3.36,2.3-3.48,5.07-3.48,5.07,1.56,5.07,3.48Zm0,25.14c0,1.92-2.3,3.36-5.07,3.36s-5.07-1.44-5.07-3.36,2.3-3.48,5.07-3.48,5.07,1.56,5.07,3.48Z"/>
      <path class="cls-1" d="M541.49,984.7c0,9-6.34,14.4-14.4,14.4s-13.94-5.4-13.94-14.4v-15.66c0-9.24,5.07-14.76,14.17-14.76s14.17,5.52,14.17,15.06v15.36Zm-17.74,10.2c0,2.76,1.61,3.48,3.69,3.48,1.96,0,3.46-.72,3.46-3.48v-37.32c0-1.68-1.38-2.58-3.57-2.58s-3.57,.66-3.57,2.58v37.32Z"/>
      <path class="cls-1" d="M573.98,984.7c0,9-6.34,14.4-14.4,14.4s-13.94-5.4-13.94-14.4v-15.66c0-9.24,5.07-14.76,14.17-14.76s14.17,5.52,14.17,15.06v15.36Zm-17.74,10.2c0,2.76,1.61,3.48,3.69,3.48,1.96,0,3.46-.72,3.46-3.48v-37.32c0-1.68-1.38-2.58-3.57-2.58s-3.57,.66-3.57,2.58v37.32Z"/>
    </g>
    <circle class="cls-5" cx="603.3" cy="78.93" r="10.21"/>
    <circle class="cls-5" cx="603.3" cy="251.91" r="10.21"/>
    <circle class="cls-5" cx="603.3" cy="495.99" r="10.21"/>
    <circle class="cls-5" cx="603.3" cy="654.29" r="10.21"/>
    <circle class="cls-5" cx="603.3" cy="819.74" r="10.21"/>
    <circle class="cls-5" cx="603.3" cy="976.5" r="10.21"/>
    <line class="cls-3" x1="603.3" y1="84.93" x2="603.3" y2="966.29"/>
  </g>
</svg>