<?xml version="1.0" encoding="UTF-8"?>
<svg id="_Слой_2" data-name="Слой 2" xmlns="http://www.w3.org/2000/svg" viewBox="0 0 698.55 923.5">
  <defs>
    <style>
      .cls-1 {
        fill: #dbebda;
      }

      .cls-2, .cls-3 {
        fill: #2e5123;
      }

      .cls-3 {
        stroke: #2f5125;
        stroke-miterlimit: 10;
      }
    </style>
  </defs>
  <g id="Layer_1" data-name="Layer 1">
    <rect class="cls-1" width="698.55" height="923.5"/>
    <g>
      <path class="cls-2" d="M297.2,225.49v11.18c0,.24-.09,.29-.55,.29-.55,0-.65-.05-.65-.29,0-4.99-4.15-10.56-9.58-10.56h-8.85c-5.44,0-9.58,5.57-9.58,10.56,0,.24-.09,.29-.64,.29-.46,0-.55-.05-.55-.29v-11.18h2.4c3.5-1.39,5.35-4.94,5.71-10.95l1.29-20.83c.09-1.15-.65-2.26-4.24-2.26h-2.76c-.37,0-.46-.05-.46-.34,0-.24,.09-.29,.46-.29h26.45c.37,0,.46,.05,.46,.29,0,.29-.09,.34-.46,.34h-2.76v34.04h4.33Zm-13.55-34.04h-2.86c-1.84,0-3.32,.19-3.41,2.26l-1.29,20.83c-.37,6.1-1.2,9.07-2.76,10.95h10.32v-34.04Z"/>
      <path class="cls-2" d="M321.25,215.22c0,7.78-4.7,11.14-10.41,11.14s-10.41-3.36-10.41-11.14v-3.36c0-7.54,4.7-11.14,10.41-11.14s10.41,3.6,10.41,11.14v3.36Zm-10.41-13.87c-1.29,0-2.4,.62-2.4,2.88v18.77c0,2.21,1.11,2.74,2.4,2.74s2.4-.53,2.4-2.74v-18.77c0-2.35-1.11-2.88-2.4-2.88Z"/>
      <path class="cls-2" d="M327.33,201.59h-1.84c-.37,0-.46-.05-.46-.34,0-.24,.09-.29,.46-.29h9.31v1.97c1.47-1.63,2.95-2.21,4.88-2.21,4.79,0,8.29,3.26,8.29,12.82,0,7.97-2.58,12.82-8.48,12.82-2.03,0-2.95-.48-4.33-1.73v9.65h2.76c.37,0,.46,.05,.46,.34,0,.24-.09,.29-.46,.29h-12.44c-.37,0-.46-.05-.46-.29,0-.29,.09-.34,.46-.34h1.84v-32.69Zm7.83,20.4c.37,2.02,1.47,3.22,3.04,3.22,1.2,0,1.75-.53,1.75-1.87v-20.02c0-.53-.46-1.68-1.47-1.68-1.75,0-2.86,1.39-3.32,3.46v16.9Z"/>
      <path class="cls-2" d="M373.6,215.22c0,7.78-4.7,11.14-10.41,11.14s-10.41-3.36-10.41-11.14v-3.36c0-7.54,4.7-11.14,10.41-11.14s10.41,3.6,10.41,11.14v3.36Zm-10.41-13.87c-1.29,0-2.4,.62-2.4,2.88v18.77c0,2.21,1.11,2.74,2.4,2.74s2.4-.53,2.4-2.74v-18.77c0-2.35-1.11-2.88-2.4-2.88Z"/>
      <path class="cls-2" d="M379.68,201.59h-1.84c-.37,0-.46-.05-.46-.34,0-.24,.09-.29,.46-.29h19.82v9.46c0,.29-.09,.34-.55,.34-.55,0-.65-.05-.65-.34,0-2.16-2.21-8.83-7.19-8.83h-1.75v23.91h2.03c.37,0,.46,.05,.46,.34,0,.24-.09,.29-.46,.29h-11.71c-.37,0-.46-.05-.46-.29,0-.29,.09-.34,.46-.34h1.84v-23.91Z"/>
      <path class="cls-2" d="M402.45,201.59h-1.84c-.37,0-.46-.05-.46-.34,0-.24,.09-.29,.46-.29h10.69c.37,0,.46,.05,.46,.29,0,.29-.09,.34-.46,.34h-1.01v13.44c0,.48-.09,1.2-.28,1.73h.28l5.71-9.27v-5.9h-1.01c-.37,0-.46-.05-.46-.34,0-.24,.09-.29,.46-.29h10.69c.37,0,.46,.05,.46,.29,0,.29-.09,.34-.46,.34h-1.84v23.91h1.84c.37,0,.46,.05,.46,.34,0,.24-.09,.29-.46,.29h-10.69c-.37,0-.46-.05-.46-.29,0-.29,.09-.34,.46-.34h1.01v-14.69c0-.48,.09-1.2,.28-1.73h-.28l-5.71,9.31v7.1h1.01c.37,0,.46,.05,.46,.34,0,.24-.09,.29-.46,.29h-10.69c-.37,0-.46-.05-.46-.29,0-.29,.09-.34,.46-.34h1.84v-23.91Z"/>
      <path class="cls-2" d="M437.93,213.21v9.12c0,2.5,.74,3.22,3.23,3.22,4.24,0,7.28-4.18,7.28-9.36,0-.24,.09-.34,.65-.34,.46,0,.55,.1,.55,.34,0,5.66-3.5,10.18-9.4,10.18-10.05,0-10.32-6.87-10.32-11.67v-3.46c0-6.34,3.96-10.51,10.41-10.51,5.9,0,10.05,3.84,10.05,9.27v3.22h-12.44Zm4.79-.62v-9.07c0-1.63-.92-2.16-2.4-2.16-1.57,0-2.4,.62-2.4,2.16v9.07h4.79Z"/>
      <path class="cls-2" d="M474.06,226.12c-4.98,0-7.28,6.96-7.28,8.83,0,.19-.09,.24-.55,.24s-.55-.05-.55-.24v-9.46h1.47c2.95-.96,4.33-2.98,4.61-6.96l1.11-15.36c.09-.82-.37-1.58-2.86-1.58h-1.84c-.37,0-.46-.05-.46-.34,0-.24,.09-.29,.46-.29h21.38c.37,0,.46,.05,.46,.29,0,.29-.09,.34-.46,.34h-1.84v23.91h2.86v9.46c0,.19-.09,.24-.55,.24s-.55-.05-.55-.24c0-1.78-2.3-8.83-7.28-8.83h-8.11Zm5.62-24.53h-3.59c-1.57,0-2.03,.14-2.12,1.58l-1.11,15.41c-.28,4.08-.74,5.42-1.84,6.91h8.66v-23.91Z"/>
      <path class="cls-2" d="M494.61,201.59h-1.84c-.37,0-.46-.05-.46-.34,0-.24,.09-.29,.46-.29h9.31v1.97c1.47-1.63,2.95-2.21,4.88-2.21,4.79,0,8.29,3.26,8.29,12.82,0,7.97-2.58,12.82-8.48,12.82-2.03,0-2.95-.48-4.33-1.73v9.65h2.76c.37,0,.46,.05,.46,.34,0,.24-.09,.29-.46,.29h-12.44c-.37,0-.46-.05-.46-.29,0-.29,.09-.34,.46-.34h1.84v-32.69Zm7.83,20.4c.37,2.02,1.47,3.22,3.04,3.22,1.2,0,1.75-.53,1.75-1.87v-20.02c0-.53-.46-1.68-1.47-1.68-1.75,0-2.86,1.39-3.32,3.46v16.9Z"/>
      <path class="cls-2" d="M516.55,201.59c-.37,0-.46-.05-.46-.29,0-.29,.09-.34,.46-.34h11.43c.37,0,.46,.05,.46,.29s-.09,.34-.46,.34h-1.84l6.36,15.7,4.24-12.38c.09-.38,.37-1.63,.37-1.92,0-1.3-2.4-1.39-3.23-1.39-.37,0-.46-.05-.46-.29,0-.29,.09-.34,.46-.34h7.19c.64,0,.74,.05,.74,.29,0,.29-.09,.34-.74,.34-1.57,0-2.49,1.25-3.23,3.26l-8.39,24.19c-1.2,3.46-2.4,5.86-6.54,5.86-3.32,0-5.62-1.49-5.62-3.75s1.57-3.5,4.52-3.5c1.66,0,3.04,.48,3.04,1.34,0,1.82-5.62,1.44-5.62,3.36,0,.96,1.66,1.92,3.87,1.92,2.58,0,4.24-2.06,5.16-5.28l.74-2.5-10.97-24.91h-1.47Z"/>
      <path class="cls-2" d="M560.88,219.78c0,3.89-4.52,6.58-10.42,6.58s-7.37-2.93-7.37-9.22v-1.25c0-.43,.09-.48,.65-.48,.46,0,.55,.05,.55,.48v1.25c0,5.95,2.12,8.54,5.81,8.54,1.66,0,2.67-.96,2.67-1.92v-8.3c0-1.54-.92-2.26-3.23-2.26-.37,0-1.29,.14-1.84,.14-.65,0-1.11-.19-1.11-.43s.46-.48,1.11-.48c.46,0,1.47,.14,1.84,.14,1.93,0,2.95-.62,2.95-1.54v-7.54c0-1.3-.46-2.16-2.21-2.16-4.33,0-5.99,8.5-5.99,9.12,0,.29-.09,.34-.64,.34-.46,0-.55-.05-.55-.34v-9.36c0-.29,.09-.38,.28-.38,.28,0,.37,.14,.46,.24,.37,.38,1.29,.96,1.84,.96,1.01,0,2.58-1.2,5.53-1.2,4.98,0,9.03,2.35,9.03,5.76,0,3.12-1.84,5.33-9.03,6.38,5.99,.77,9.68,2.93,9.68,6.91Z"/>
      <path class="cls-2" d="M565.95,201.59h-1.84c-.37,0-.46-.05-.46-.34,0-.24,.09-.29,.46-.29h11.52c.37,0,.46,.05,.46,.29,0,.29-.09,.34-.46,.34h-1.84v9.89h1.84c6.82,0,10.97,2.64,10.97,7.39,0,4.08-4.15,7.25-11.43,7.25h-11.06c-.37,0-.46-.05-.46-.29,0-.29,.09-.34,.46-.34h1.84v-23.91Zm7.83,23.91h1.29c2.86,0,3.5-1.1,3.5-2.93v-7.49c0-1.92-1.57-2.98-3.41-2.98h-1.38v13.39Z"/>
      <path class="cls-2" d="M605.12,213.54h-1.47c-2.58,0-3.32,.48-3.32,1.73v8.26c0,1.49-2.03,2.83-5.9,2.83-4.42,0-7.19-1.58-7.19-3.98,0-.43,.09-.53,.55-.53,.55,0,.65,.1,.65,.53,0,1.68,1.57,2.83,2.58,2.83,.83,0,1.38-.19,1.38-.86v-6.05c0-3.89,5.44-4.61,9.4-5.09-2.86-.43-9.77-1.44-9.77-6.05,0-3.6,5.16-6.19,11.43-6.19h11.34c.37,0,.46,.05,.46,.34,0,.24-.09,.29-.46,.29h-1.84v23.91h1.84c.37,0,.46,.05,.46,.34,0,.24-.09,.29-.46,.29h-10.69c-.37,0-.46-.05-.46-.29,0-.29,.09-.34,.46-.34h1.01v-11.95Zm0-11.95h-1.94c-2.4,0-3.13,.67-3.13,1.68v7.97c0,.96,1.2,1.68,3.13,1.68h1.94v-11.33Z"/>
      <path class="cls-2" d="M398.39,259.59h-1.84c-.37,0-.46-.05-.46-.34,0-.24,.09-.29,.46-.29h10.69c.37,0,.46,.05,.46,.29,0,.29-.09,.34-.46,.34h-1.01v13.44c0,.48-.09,1.2-.28,1.73h.28l5.71-9.27v-5.9h-1.01c-.37,0-.46-.05-.46-.34,0-.24,.09-.29,.46-.29h10.69c.37,0,.46,.05,.46,.29,0,.29-.09,.34-.46,.34h-1.84v23.91h1.84c.37,0,.46,.05,.46,.34,0,.24-.09,.29-.46,.29h-10.69c-.37,0-.46-.05-.46-.29,0-.29,.09-.34,.46-.34h1.01v-14.69c0-.48,.09-1.2,.28-1.73h-.28l-5.71,9.31v7.1h1.01c.37,0,.46,.05,.46,.34,0,.24-.09,.29-.46,.29h-10.69c-.37,0-.46-.05-.46-.29,0-.29,.09-.34,.46-.34h1.84v-23.91Z"/>
      <path class="cls-2" d="M440.05,259.59h-1.84c-.37,0-.46-.05-.46-.34,0-.24,.09-.29,.46-.29h9.31v1.97c1.47-1.63,2.95-2.21,4.88-2.21,4.79,0,8.29,3.26,8.29,12.82,0,7.97-2.58,12.82-8.48,12.82-2.03,0-2.95-.48-4.33-1.73v9.65h2.76c.37,0,.46,.05,.46,.34,0,.24-.09,.29-.46,.29h-12.44c-.37,0-.46-.05-.46-.29,0-.29,.09-.34,.46-.34h1.84v-32.69Zm7.83,20.4c.37,2.02,1.47,3.22,3.04,3.22,1.2,0,1.75-.53,1.75-1.87v-20.02c0-.53-.46-1.68-1.47-1.68-1.75,0-2.86,1.39-3.32,3.46v16.9Z"/>
      <path class="cls-2" d="M486.32,273.22c0,7.78-4.7,11.14-10.41,11.14s-10.41-3.36-10.41-11.14v-3.36c0-7.54,4.7-11.14,10.41-11.14s10.41,3.6,10.41,11.14v3.36Zm-10.41-13.87c-1.29,0-2.4,.62-2.4,2.88v18.77c0,2.21,1.11,2.74,2.4,2.74s2.4-.53,2.4-2.74v-18.77c0-2.35-1.11-2.88-2.4-2.88Z"/>
      <path class="cls-2" d="M494.34,284.12c-4.98,0-7.28,6.96-7.28,8.83,0,.19-.09,.24-.55,.24s-.55-.05-.55-.24v-9.46h1.47c2.95-.96,4.33-2.98,4.61-6.96l1.11-15.36c.09-.82-.37-1.58-2.86-1.58h-1.84c-.37,0-.46-.05-.46-.34,0-.24,.09-.29,.46-.29h21.38c.37,0,.46,.05,.46,.29,0,.29-.09,.34-.46,.34h-1.84v23.91h2.86v9.46c0,.19-.09,.24-.55,.24s-.55-.05-.55-.24c0-1.78-2.3-8.83-7.28-8.83h-8.11Zm5.62-24.53h-3.59c-1.57,0-2.03,.14-2.12,1.58l-1.11,15.41c-.28,4.08-.74,5.42-1.84,6.91h8.66v-23.91Z"/>
      <path class="cls-2" d="M522.72,283.49h1.01c.37,0,.46,.05,.46,.34,0,.24-.09,.29-.46,.29h-10.69c-.37,0-.46-.05-.46-.29,0-.29,.09-.34,.46-.34h1.84v-23.91h-1.84c-.37,0-.46-.05-.46-.34,0-.24,.09-.29,.46-.29h10.69c.37,0,.46,.05,.46,.29,0,.29-.09,.34-.46,.34h-1.01v10.99h4.79v-10.99h-1.01c-.37,0-.46-.05-.46-.34,0-.24,.09-.29,.46-.29h10.69c.37,0,.46,.05,.46,.29,0,.29-.09,.34-.46,.34h-1.84v23.91h1.84c.37,0,.46,.05,.46,.34,0,.24-.09,.29-.46,.29h-10.69c-.37,0-.46-.05-.46-.29,0-.29,.09-.34,.46-.34h1.01v-12.29h-4.79v12.29Z"/>
      <path class="cls-2" d="M542.72,259.59h-1.84c-.37,0-.46-.05-.46-.34,0-.24,.09-.29,.46-.29h11.52c.37,0,.46,.05,.46,.29,0,.29-.09,.34-.46,.34h-1.84v9.89h1.84c6.82,0,10.97,2.64,10.97,7.39,0,4.08-4.15,7.25-11.43,7.25h-11.06c-.37,0-.46-.05-.46-.29,0-.29,.09-.34,.46-.34h1.84v-23.91Zm7.83,23.91h1.29c2.86,0,3.5-1.1,3.5-2.93v-7.49c0-1.92-1.57-2.98-3.41-2.98h-1.38v13.39Zm15.11-23.91h-1.84c-.37,0-.46-.05-.46-.34,0-.24,.09-.29,.46-.29h11.52c.37,0,.46,.05,.46,.29,0,.29-.09,.34-.46,.34h-1.84v23.91h1.84c.37,0,.46,.05,.46,.34,0,.24-.09,.29-.46,.29h-11.52c-.37,0-.46-.05-.46-.29,0-.29,.09-.34,.46-.34h1.84v-23.91Z"/>
      <path class="cls-2" d="M587.61,271.21v9.12c0,2.5,.74,3.22,3.23,3.22,4.24,0,7.28-4.18,7.28-9.36,0-.24,.09-.34,.65-.34,.46,0,.55,.1,.55,.34,0,5.66-3.5,10.18-9.4,10.18-10.05,0-10.32-6.87-10.32-11.67v-3.46c0-6.34,3.96-10.51,10.41-10.51,5.9,0,10.05,3.84,10.05,9.27v3.22h-12.44Zm4.79-.62v-9.07c0-1.63-.92-2.16-2.4-2.16-1.57,0-2.4,.62-2.4,2.16v9.07h4.79Z"/>
      <path class="cls-2" d="M609.91,275.24c-.28,0-.55-.05-.55-.38v-.48c0-9.55-4.79-16.32-4.79-22.37,0-2.4,2.4-3.6,5.44-3.6,2.86,0,5.25,1.2,5.25,3.6,0,6.05-4.79,12.82-4.79,22.37v.48c0,.34-.28,.38-.55,.38Zm3.96,6.34c0,1.54-1.84,2.69-4.05,2.69s-4.06-1.15-4.06-2.69,1.84-2.78,4.06-2.78,4.05,1.25,4.05,2.78Z"/>
    </g>
    <g>
      <path class="cls-2" d="M24.89,758.68l51.79,9.54,8.17-1.27v19.93l-79.73,16.11v4.45c0,.85-.11,1.06-.77,1.06-.55,0-.66-.21-.66-1.06v-31.38c0-.85,.11-1.06,.66-1.06,.66,0,.77,.21,.77,1.06v6.15l64.71-12.51-51.68-9.54-13.03,2.54v4.88c0,.85-.11,1.06-.77,1.06-.55,0-.66-.21-.66-1.06v-31.38c0-1.06,.11-1.27,.66-1.27,.66,0,.77,.21,.77,1.27v5.72l64.71-12.51-57.09-10.6c-1.66-.21-3.09-.42-3.75-.42-2.54,.21-3.86,1.7-3.86,7,0,.85-.11,1.06-.77,1.06-.55,0-.66-.21-.66-1.06v-17.6c0-.64,.33-1.06,.66-1.06,.44,0,.77,.42,.77,1.06,0,4.03,2.54,7.63,7.62,8.48l63.94,11.66,8.17-1.27v19.93l-59.96,12.09Z"/>
      <path class="cls-2" d="M5.13,698.67v6.36c0,.85-.11,1.06-.77,1.06-.55,0-.66-.21-.66-1.06v-58.31H29.42c.55,0,.66,.21,.66,1.27,0,1.27-.11,1.48-.66,1.48-11.48,0-24.29,9.54-24.29,22.05v5.94H39.25c.88,0,1.21-.64,1.21-1.7,0-6.15-6.41-12.93-15.02-12.93h-1.88c-.55,0-.66-.21-.66-1.27s.11-1.27,.66-1.27H58.91c.44,0,.55,.42,.55,1.27s-.11,1.27-.55,1.27h-1.55c-5.63,0-15.46,4.88-15.46,12.93,0,.85,.66,1.7,1.66,1.7h39.86v-6.79c0-15.9-24.62-21.2-31.8-21.2-.55,0-.66-.42-.66-1.48s.11-1.27,.66-1.27h33.24v58.31c0,.85-.11,1.06-.66,1.06-.66,0-.77-.21-.77-1.06v-6.36H5.13Z"/>
      <path class="cls-2" d="M5.13,629.76v6.36c0,.85-.11,1.06-.77,1.06-.55,0-.66-.21-.66-1.06v-30.96c0-20.14,10.82-31.59,35.45-31.59h7.51c34.01,0,38.21,18.02,38.21,33.5v29.05c0,.85-.11,1.06-.66,1.06-.66,0-.77-.21-.77-1.06v-6.36H5.13Zm78.29-21.2v-2.54c0-5.94-.99-10.81-7.84-10.81H13.85c-6.63,0-8.72,4.24-8.72,9.33v4.03H83.42Z"/>
      <path class="cls-2" d="M5.13,556.61v6.36c0,.85-.11,1.06-.77,1.06-.55,0-.66-.21-.66-1.06v-30.96c0-20.14,10.82-31.59,35.45-31.59h7.51c34.01,0,38.21,18.02,38.21,33.5v29.05c0,.85-.11,1.06-.66,1.06-.66,0-.77-.21-.77-1.06v-6.36H5.13Zm78.29-21.2v-2.54c0-5.94-.99-10.81-7.84-10.81H13.85c-6.63,0-8.72,4.24-8.72,9.33v4.03H83.42Z"/>
      <path class="cls-2" d="M5.13,482.39v6.36c0,.85-.11,1.06-.77,1.06-.55,0-.66-.21-.66-1.06v-33.93c0-.85,.11-1.06,.66-1.06,.66,0,.77,.21,.77,1.06v6.36H83.42v-6.36c0-.85,.11-1.06,.77-1.06,.55,0,.66,.21,.66,1.06v33.93c0,.85-.11,1.06-.66,1.06-.66,0-.77-.21-.77-1.06v-6.36H5.13Z"/>
      <path class="cls-2" d="M5.13,438.93v6.36c0,.85-.11,1.06-.77,1.06-.55,0-.66-.21-.66-1.06v-27.35l59.3-20.99v-.21H10.21c-2.98,0-5.08,2.54-5.08,6.79,0,1.06-.11,1.27-.88,1.27-.44,0-.55-.21-.55-1.27v-16.12c0-1.06,.11-1.27,.55-1.27,.77,0,.88,.21,.88,1.27,0,1.27,.11,1.91,.33,2.76,.66,2.97,2.43,3.82,4.75,3.82H84.86v16.33l-73.88,25.66v.21H76.24c5.63,0,7.18-3.39,7.18-8.27,0-.85,.11-1.06,.77-1.06,.55,0,.66,.21,.66,1.06v17.39c0,.85-.11,1.06-.66,1.06-.66,0-.77-.21-.77-.85s-.22-1.48-.66-2.76c-.88-2.33-2.76-3.82-6.52-3.82H5.13Z"/>
      <path class="cls-2" d="M44.22,322.73v-3.6c0-.85,.11-1.06,.66-1.06,.66,0,.77,.21,.77,1.06v3.6h39.31c.44,0,.77,.21,.77,.85s-.33,1.27-.77,1.48c-2.43,1.91-5.41,5.51-5.41,8.06,0,4.03,6.18,4.24,6.18,15.69,0,16.33-10.05,28.62-41.52,28.62s-41.19-11.24-41.19-27.14c0-5.51,3.2-9.54,3.2-11.66,0-1.91-.99-4.66-2.65-6.36-.44-.42-.55-.64-.55-1.27,0-.42,.11-.85,.77-.85h31.8c.55,0,.88,.64,.88,1.48s-.11,1.48-1.1,1.48c-12.04,0-30.81,8.06-30.81,16.33,0,3.39,1.55,6.15,8.61,6.15h62.39c6.63,0,8.72-3.18,8.72-7s-2.1-6.79-8.72-6.79h-29.93v6.36c0,.85-.11,1.06-.77,1.06-.55,0-.66-.21-.66-1.06v-25.44Z"/>
      <path class="cls-2" d="M5.13,275.66v6.36c0,.85-.11,1.06-.77,1.06-.55,0-.66-.21-.66-1.06v-30.96c0-20.14,10.82-31.59,35.45-31.59h7.51c34.01,0,38.21,18.02,38.21,33.5v29.05c0,.85-.11,1.06-.66,1.06-.66,0-.77-.21-.77-1.06v-6.36H5.13Zm78.29-21.2v-2.54c0-5.94-.99-10.81-7.84-10.81H13.85c-6.63,0-8.72,4.24-8.72,9.33v4.03H83.42Z"/>
      <path class="cls-2" d="M83.42,160.1v-4.45c0-.85,.33-1.27,.77-1.27,.33,0,.66,.42,.66,1.27v29.05c0,.85-.11,1.06-.66,1.06-.66,0-.77-.21-.77-1.06v-4.24l-24.74,4.88v15.69l16.9,3.82c.44,0,1.77,.21,2.76,.21,3.2,0,5.08-2.76,5.08-8.69,0-.85,.22-1.06,.77-1.06,.44,0,.66,.21,.66,1.06v20.78c0,.64-.11,1.06-.66,1.06-.66,0-.77-.21-.77-1.06,0-4.45-2.54-8.69-7.84-9.75l-63.5-12.72-5.96,1.27,.22,2.97c0,.42-.22,1.06-.88,1.06-.33,0-.44-.21-.55-.85l-1.88-22.9,80.39-16.12Zm-26.17,25.66l-40.08,7.21,40.08,7.63v-14.84Z"/>
      <path class="cls-2" d="M44.66,141.86L5.13,158.83v5.3c0,.85-.11,1.06-.66,1.06-.66,0-.77-.21-.77-1.06v-34.77c0-.85,.22-1.06,.77-1.06s.66,.21,.66,1.06v7.21l36.99-14.63v-.21l-28.82-12.09c-1.77-.85-3.2-1.06-4.31-1.06-2.21,0-3.86,1.27-3.86,5.51v2.54c0,.85-.11,1.06-.77,1.06-.55,0-.66-.21-.66-1.06v-18.24c0-1.27,.11-1.48,.66-1.48,.66,0,.77,.21,.77,1.48,0,4.88,5.63,7.63,6.07,7.85l33.46,14.21h38.76v-8.27c0-.85,.11-1.06,.77-1.06,.55,0,.66,.21,.66,1.06v38.38c0,.85-.11,1.06-.66,1.06-.66,0-.77-.21-.77-1.06v-8.69H44.66Z"/>
    </g>
    <g>
      <path class="cls-3" d="M165.18,374.89v-.05c0-5.16,3.67-9.74,9.39-9.74s9.39,4.59,9.39,9.74v.05c0,5.16-3.67,9.75-9.39,9.75s-9.39-4.59-9.39-9.75Zm18.19,.03v-.05c0-4.83-3.54-9.23-8.83-9.23s-8.77,4.32-8.77,9.18v.05c0,4.83,3.54,9.23,8.83,9.23s8.77-4.32,8.77-9.18Z"/>
      <path class="cls-3" d="M187.5,377.59v-.05c0-3.81,3-7.04,6.91-7.04,2.48,0,4.02,1.08,5.4,2.51l-.4,.38c-1.21-1.3-2.75-2.35-5.02-2.35-3.59,0-6.29,2.94-6.29,6.48v.05c0,3.54,2.75,6.53,6.32,6.53,2.29,0,3.89-1.13,5.08-2.51l.4,.38c-1.27,1.48-3,2.67-5.51,2.67-3.89,0-6.88-3.24-6.88-7.05Z"/>
      <path class="cls-3" d="M202.24,377.56v-.05c0-4,2.73-7.02,6.48-7.02,4.26,0,6.21,3.75,6.21,7.13v.11h-12.07c.08,3.89,2.86,6.37,6.15,6.37,2.08,0,3.91-1.21,4.99-2.73l.46,.32c-1.16,1.7-3.1,2.94-5.48,2.94-3.67,0-6.75-2.75-6.75-7.07Zm12.07-.35c-.14-3.08-2.03-6.18-5.62-6.18-3.35,0-5.7,2.65-5.83,6.18h11.45Z"/>
      <path class="cls-3" d="M218.93,370.82h.57v6.42h10.63v-6.42h.57v13.5h-.57v-6.56h-10.63v6.56h-.57v-13.5Z"/>
      <path class="cls-3" d="M235.73,370.82h.57v5.24h5.72c3.02,0,4.94,1.78,4.94,4.1v.03c0,2.38-1.86,4.13-4.97,4.13h-6.26v-13.5Zm6.26,13.01c2.78,0,4.4-1.54,4.4-3.62v-.05c0-2.02-1.62-3.62-4.4-3.62h-5.7v7.29h5.7Z"/>
      <path class="cls-3" d="M251.22,384.31h-.57v-13.5h.57v6.42h4.32c.13-3.64,2.83-6.75,6.8-6.75s6.8,3.35,6.8,7.02v.05c0,3.64-2.7,7.07-6.8,7.07s-6.72-3.29-6.8-6.88h-4.32v6.56Zm17.36-6.72v-.05c0-3.37-2.62-6.5-6.26-6.5s-6.21,2.94-6.21,6.5v.05c0,3.38,2.67,6.51,6.26,6.51s6.21-3.13,6.21-6.51Z"/>
      <path class="cls-3" d="M280.36,377.59v-.05c0-3.81,3-7.04,6.91-7.04,2.48,0,4.02,1.08,5.4,2.51l-.4,.38c-1.21-1.3-2.75-2.35-5.02-2.35-3.59,0-6.29,2.94-6.29,6.48v.05c0,3.54,2.75,6.53,6.32,6.53,2.29,0,3.89-1.13,5.08-2.51l.4,.38c-1.27,1.48-3,2.67-5.51,2.67-3.89,0-6.88-3.24-6.88-7.05Z"/>
      <path class="cls-3" d="M295.07,377.62v-.05c0-3.75,2.78-7.07,7.02-7.07s7.02,3.24,7.02,7.02v.05c0,3.81-2.78,7.07-7.02,7.07s-7.02-3.24-7.02-7.02Zm13.44-.03v-.05c0-3.56-2.67-6.5-6.45-6.5s-6.4,2.94-6.4,6.5v.05c0,3.56,2.67,6.51,6.45,6.51s6.4-2.94,6.4-6.51Z"/>
      <path class="cls-3" d="M312.21,377.59v-.05c0-3.81,3-7.04,6.91-7.04,2.48,0,4.02,1.08,5.4,2.51l-.4,.38c-1.21-1.3-2.75-2.35-5.02-2.35-3.59,0-6.29,2.94-6.29,6.48v.05c0,3.54,2.75,6.53,6.32,6.53,2.29,0,3.89-1.13,5.08-2.51l.4,.38c-1.27,1.48-3,2.67-5.51,2.67-3.89,0-6.88-3.24-6.88-7.05Z"/>
      <path class="cls-3" d="M332.14,371.33h-6.18v-.51h12.93v.51h-6.18v12.98h-.57v-12.98Z"/>
      <path class="cls-3" d="M340.19,377.62v-.05c0-3.75,2.78-7.07,7.02-7.07s7.02,3.24,7.02,7.02v.05c0,3.81-2.78,7.07-7.02,7.07s-7.02-3.24-7.02-7.02Zm13.44-.03v-.05c0-3.56-2.67-6.5-6.45-6.5s-6.4,2.94-6.4,6.5v.05c0,3.56,2.67,6.51,6.45,6.51s6.4-2.94,6.4-6.51Z"/>
      <path class="cls-3" d="M358.28,370.82h.57v12.63l10.82-12.63h.51v13.5h-.57v-12.63l-10.82,12.63h-.51v-13.5Z"/>
      <path class="cls-3" d="M379.44,371.33h-6.18v-.51h12.93v.51h-6.18v12.98h-.57v-12.98Z"/>
      <path class="cls-3" d="M387.52,377.59v-.05c0-3.81,3-7.04,6.91-7.04,2.48,0,4.02,1.08,5.4,2.51l-.4,.38c-1.21-1.3-2.75-2.35-5.02-2.35-3.59,0-6.29,2.94-6.29,6.48v.05c0,3.54,2.75,6.53,6.32,6.53,2.29,0,3.89-1.13,5.08-2.51l.4,.38c-1.27,1.48-3,2.67-5.51,2.67-3.89,0-6.88-3.24-6.88-7.05Z"/>
      <path class="cls-3" d="M402.45,384.31l4.7-5.56c-2.48-.3-4.05-1.78-4.02-3.94v-.03c0-2.27,1.94-3.97,4.89-3.97h6.61v13.5h-.57v-5.51h-6.26l-4.62,5.51h-.73Zm5.53-13.01c-2.67,0-4.29,1.43-4.29,3.48v.03c0,2.02,1.57,3.51,4.35,3.51h6.02v-7.02h-6.07Z"/>
      <path class="cls-3" d="M426.77,377.62v-.05c0-3.75,2.78-7.07,7.02-7.07s7.02,3.24,7.02,7.02v.05c0,3.81-2.78,7.07-7.02,7.07s-7.02-3.24-7.02-7.02Zm13.44-.03v-.05c0-3.56-2.67-6.5-6.45-6.5s-6.4,2.94-6.4,6.5v.05c0,3.56,2.67,6.51,6.45,6.51s6.4-2.94,6.4-6.51Z"/>
      <path class="cls-3" d="M454.55,379.1c-1.4,.41-3,.67-4.72,.67-3.64,0-5.67-1.4-5.67-4.75v-4.21h.57v4.18c0,3.02,1.83,4.24,5.1,4.24,1.65,0,3.24-.27,4.72-.67v-7.75h.57v13.5h-.57v-5.21Z"/>
      <path class="cls-3" d="M459.2,377.56v-.05c0-4,2.73-7.02,6.48-7.02,4.26,0,6.21,3.75,6.21,7.13v.11h-12.07c.08,3.89,2.86,6.37,6.15,6.37,2.08,0,3.91-1.21,4.99-2.73l.46,.32c-1.16,1.7-3.1,2.94-5.48,2.94-3.67,0-6.75-2.75-6.75-7.07Zm12.07-.35c-.14-3.08-2.03-6.18-5.62-6.18-3.35,0-5.7,2.65-5.83,6.18h11.45Z"/>
      <path class="cls-3" d="M475.89,370.82h.57v6.42h10.63v-6.42h.57v13.5h-.57v-6.56h-10.63v6.56h-.57v-13.5Z"/>
      <path class="cls-3" d="M492.68,370.82h.57v5.24h5.72c3.02,0,4.94,1.78,4.94,4.1v.03c0,2.38-1.86,4.13-4.97,4.13h-6.26v-13.5Zm6.26,13.01c2.78,0,4.4-1.54,4.4-3.62v-.05c0-2.02-1.62-3.62-4.4-3.62h-5.7v7.29h5.7Z"/>
      <path class="cls-3" d="M515.71,370.82h6.94c2.73,0,4.37,1.16,4.37,3.29v.03c0,1.54-1.08,2.86-3,3.21,2.08,.3,3.51,1.51,3.51,3.37v.03c0,2.08-1.67,3.59-4.78,3.56h-7.04v-13.5Zm6.61,6.29c2.48,0,4.08-1.05,4.1-2.97v-.03c.03-1.73-1.3-2.81-3.81-2.78h-6.34v5.78h6.05Zm-6.05,6.69h6.48c2.73,0,4.18-1.24,4.18-3.08v-.03c0-1.75-1.48-3.1-4.62-3.08h-6.05v6.18Z"/>
      <path class="cls-3" d="M530.53,380.59v-.05c0-2.83,2.67-4.29,6.02-4.29,1.92,0,3.7,.32,5.07,.84v-1.13c0-3.27-1.94-4.8-5.1-4.8-1.7,0-3.08,.46-4.48,1.13l-.22-.49c1.51-.73,2.97-1.19,4.72-1.19,1.89,0,3.32,.49,4.32,1.48,.84,.84,1.32,2.13,1.32,3.83v8.39h-.57v-3.19c-.57,1.59-2.59,3.51-6.05,3.51-2.64,0-5.05-1.38-5.05-4.05Zm11.09-1.21v-1.73c-1.43-.54-3-.86-5.05-.86-3.05,0-5.45,1.24-5.45,3.73v.05c0,2.38,2.11,3.54,4.48,3.54,3.59,0,6.02-2.35,6.02-4.72Z"/>
      <path class="cls-3" d="M555.99,377.24h3.02l6.1-6.42h.76l-6.37,6.69,6.78,6.8h-.76l-6.5-6.56h-3.02v6.56h-.57v-6.56h-3.02l-6.5,6.56h-.76l6.77-6.8-6.37-6.69h.76l6.07,6.42h3.05v-6.42h.57v6.42Z"/>
      <path class="cls-3" d="M569.49,370.82h.57v6.42h10.63v-6.42h.57v13.5h-.57v-6.56h-10.63v6.56h-.57v-13.5Z"/>
      <path class="cls-3" d="M585.32,377.62v-.05c0-3.75,2.78-7.07,7.02-7.07s7.02,3.24,7.02,7.02v.05c0,3.81-2.78,7.07-7.02,7.07s-7.02-3.24-7.02-7.02Zm13.44-.03v-.05c0-3.56-2.67-6.5-6.45-6.5s-6.4,2.94-6.4,6.5v.05c0,3.56,2.67,6.51,6.45,6.51s6.4-2.94,6.4-6.51Z"/>
      <path class="cls-3" d="M602.46,377.56v-.05c0-4,2.73-7.02,6.48-7.02,4.26,0,6.21,3.75,6.21,7.13v.11h-12.07c.08,3.89,2.86,6.37,6.15,6.37,2.08,0,3.91-1.21,4.99-2.73l.46,.32c-1.16,1.7-3.1,2.94-5.48,2.94-3.67,0-6.75-2.75-6.75-7.07Zm12.07-.35c-.14-3.08-2.03-6.18-5.62-6.18-3.35,0-5.7,2.65-5.83,6.18h11.45Z"/>
      <path class="cls-3" d="M194.34,402.82h.57v12.63l10.82-12.63h.51v13.5h-.57v-12.63l-10.82,12.63h-.51v-13.5Z"/>
      <path class="cls-3" d="M219.36,402.82h.57v4.18c.78-2.59,3.1-4.51,6.24-4.51,3.91,0,6.75,3.13,6.75,7.04v.05c0,3.91-2.83,7.05-6.75,7.05-3.13,0-5.45-1.92-6.24-4.51v8.5h-.57v-17.82Zm12.96,6.8v-.05c0-3.59-2.48-6.53-6.18-6.53s-6.24,3-6.24,6.5v.05c0,3.48,2.59,6.51,6.24,6.51s6.18-2.86,6.18-6.48Z"/>
      <path class="cls-3" d="M235.91,412.59v-.05c0-2.83,2.67-4.29,6.02-4.29,1.92,0,3.7,.32,5.07,.84v-1.13c0-3.27-1.94-4.8-5.1-4.8-1.7,0-3.08,.46-4.48,1.13l-.22-.49c1.51-.73,2.97-1.19,4.72-1.19,1.89,0,3.32,.49,4.32,1.48,.84,.84,1.32,2.13,1.32,3.83v8.39h-.57v-3.19c-.57,1.59-2.59,3.51-6.05,3.51-2.64,0-5.05-1.38-5.05-4.05Zm11.09-1.21v-1.73c-1.43-.54-3-.86-5.05-.86-3.05,0-5.45,1.24-5.45,3.73v.05c0,2.38,2.11,3.54,4.48,3.54,3.59,0,6.02-2.35,6.02-4.72Z"/>
      <path class="cls-3" d="M265.34,415.8h1.65v4.29h-.57v-3.78h-15.36v3.78h-.57v-4.29h1.65l6.32-13.09h.54l6.34,13.09Zm-12.61,0h11.99l-5.99-12.39-5.99,12.39Z"/>
      <path class="cls-3" d="M268.13,409.62v-.05c0-3.75,2.78-7.07,7.02-7.07s7.02,3.24,7.02,7.02v.05c0,3.81-2.78,7.07-7.02,7.07s-7.02-3.24-7.02-7.02Zm13.44-.03v-.05c0-3.56-2.67-6.5-6.45-6.5s-6.4,2.94-6.4,6.5v.05c0,3.56,2.67,6.51,6.45,6.51s6.4-2.94,6.4-6.51Z"/>
      <path class="cls-3" d="M285.27,409.59v-.05c0-3.81,3-7.04,6.91-7.04,2.48,0,4.02,1.08,5.4,2.51l-.4,.38c-1.21-1.3-2.75-2.35-5.02-2.35-3.59,0-6.29,2.94-6.29,6.48v.05c0,3.54,2.75,6.53,6.32,6.53,2.29,0,3.89-1.13,5.08-2.51l.4,.38c-1.27,1.48-3,2.67-5.51,2.67-3.89,0-6.88-3.24-6.88-7.05Z"/>
      <path class="cls-3" d="M305.19,403.33h-6.18v-.51h12.93v.51h-6.18v12.98h-.57v-12.98Z"/>
      <path class="cls-3" d="M315.02,402.82h.57v6.42h10.63v-6.42h.57v13.5h-.57v-6.56h-10.63v6.56h-.57v-13.5Z"/>
      <path class="cls-3" d="M330.85,409.62v-.05c0-3.75,2.78-7.07,7.02-7.07s7.02,3.24,7.02,7.02v.05c0,3.81-2.78,7.07-7.02,7.07s-7.02-3.24-7.02-7.02Zm13.44-.03v-.05c0-3.56-2.67-6.5-6.45-6.5s-6.4,2.94-6.4,6.5v.05c0,3.56,2.67,6.51,6.45,6.51s6.4-2.94,6.4-6.51Z"/>
      <path class="cls-3" d="M347.99,409.56v-.05c0-4,2.73-7.02,6.48-7.02,4.26,0,6.21,3.75,6.21,7.13v.11h-12.07c.08,3.89,2.86,6.37,6.15,6.37,2.08,0,3.91-1.21,4.99-2.73l.46,.32c-1.16,1.7-3.1,2.94-5.48,2.94-3.67,0-6.75-2.75-6.75-7.07Zm12.07-.35c-.14-3.08-2.03-6.18-5.62-6.18-3.35,0-5.7,2.65-5.83,6.18h11.45Z"/>
      <path class="cls-3" d="M385.78,415.8h1.65v4.29h-.57v-3.78h-15.36v3.78h-.57v-4.29h1.65l6.32-13.09h.54l6.34,13.09Zm-12.61,0h11.99l-5.99-12.39-5.99,12.39Z"/>
      <path class="cls-3" d="M402.09,416.31h-.62l-5.99-12.85-5.96,12.85h-.59l6.32-13.6h.49l6.37,13.6Z"/>
      <path class="cls-3" d="M404.12,416.31l4.7-5.56c-2.48-.3-4.05-1.78-4.02-3.94v-.03c0-2.27,1.94-3.97,4.89-3.97h6.61v13.5h-.57v-5.51h-6.26l-4.62,5.51h-.73Zm5.53-13.01c-2.67,0-4.29,1.43-4.29,3.48v.03c0,2.02,1.57,3.51,4.35,3.51h6.02v-7.02h-6.07Z"/>
      <path class="cls-3" d="M429.42,402.82h.57v6.42h10.63v-6.42h.57v13.5h-.57v-6.56h-10.63v6.56h-.57v-13.5Z"/>
      <path class="cls-3" d="M445.08,412.59v-.05c0-2.83,2.67-4.29,6.02-4.29,1.92,0,3.7,.32,5.07,.84v-1.13c0-3.27-1.94-4.8-5.1-4.8-1.7,0-3.08,.46-4.48,1.13l-.22-.49c1.51-.73,2.97-1.19,4.72-1.19,1.89,0,3.32,.49,4.32,1.48,.84,.84,1.32,2.13,1.32,3.83v8.39h-.57v-3.19c-.57,1.59-2.59,3.51-6.05,3.51-2.64,0-5.05-1.38-5.05-4.05Zm11.09-1.21v-1.73c-1.43-.54-3-.86-5.05-.86-3.05,0-5.45,1.24-5.45,3.73v.05c0,2.38,2.11,3.54,4.48,3.54,3.59,0,6.02-2.35,6.02-4.72Z"/>
      <path class="cls-3" d="M460.55,409.59v-.05c0-3.81,3-7.04,6.91-7.04,2.48,0,4.02,1.08,5.4,2.51l-.4,.38c-1.21-1.3-2.75-2.35-5.02-2.35-3.59,0-6.29,2.94-6.29,6.48v.05c0,3.54,2.75,6.53,6.32,6.53,2.29,0,3.89-1.13,5.08-2.51l.4,.38c-1.27,1.48-3,2.67-5.51,2.67-3.89,0-6.88-3.24-6.88-7.05Z"/>
      <path class="cls-3" d="M483.8,409.59v-.05c0-3.81,3-7.04,6.91-7.04,2.48,0,4.02,1.08,5.4,2.51l-.4,.38c-1.21-1.3-2.75-2.35-5.02-2.35-3.59,0-6.29,2.94-6.29,6.48v.05c0,3.54,2.75,6.53,6.32,6.53,2.29,0,3.89-1.13,5.08-2.51l.4,.38c-1.27,1.48-3,2.67-5.51,2.67-3.89,0-6.88-3.24-6.88-7.05Z"/>
      <path class="cls-3" d="M498.51,409.62v-.05c0-3.75,2.78-7.07,7.02-7.07s7.02,3.24,7.02,7.02v.05c0,3.81-2.78,7.07-7.02,7.07s-7.02-3.24-7.02-7.02Zm13.44-.03v-.05c0-3.56-2.67-6.5-6.45-6.5s-6.4,2.94-6.4,6.5v.05c0,3.56,2.67,6.51,6.45,6.51s6.4-2.94,6.4-6.51Z"/>
      <path class="cls-3" d="M518.09,414.77c-1.32-1.32-2.11-3.29-2.11-5.88v-.08c0-7.48,1.32-10.58,7.8-11.74l4.08-.73,.11,.57-4.05,.7c-5.78,1-7.1,3.54-7.4,9.72,1.08-3.1,3.91-4.43,6.61-4.43,3.81,0,6.61,3.08,6.61,6.77v.05c0,3.81-2.75,6.91-6.91,6.91-1.92,0-3.51-.62-4.75-1.86Zm11.07-5.02v-.05c0-3.43-2.59-6.26-6.05-6.26-3.72,0-6.5,2.83-6.5,5.97v.03c0,3.97,2.73,6.67,6.24,6.67,3.86,0,6.32-2.83,6.32-6.34Z"/>
      <path class="cls-3" d="M534.39,408.05h5.72c3.02,0,4.94,1.78,4.94,4.1v.03c0,2.38-1.86,4.13-4.97,4.13h-6.26v-13.5h.57v5.24Zm0,7.77h5.7c2.78,0,4.4-1.54,4.4-3.62v-.05c0-2.02-1.62-3.62-4.4-3.62h-5.7v7.29Zm13.85-13.01h.57v13.5h-.57v-13.5Z"/>
      <path class="cls-3" d="M558.07,403.33h-6.18v-.51h12.93v.51h-6.18v12.98h-.57v-12.98Z"/>
      <path class="cls-3" d="M567.9,402.82h.57v12.63l10.82-12.63h.51v13.5h-.57v-12.63l-10.82,12.63h-.51v-13.5Z"/>
      <path class="cls-3" d="M583.88,409.56v-.05c0-4,2.73-7.02,6.48-7.02,4.26,0,6.21,3.75,6.21,7.13v.11h-12.07c.08,3.89,2.86,6.37,6.15,6.37,2.08,0,3.91-1.21,4.99-2.73l.46,.32c-1.16,1.7-3.1,2.94-5.48,2.94-3.67,0-6.75-2.75-6.75-7.07Zm12.07-.35c-.14-3.08-2.03-6.18-5.62-6.18-3.35,0-5.7,2.65-5.83,6.18h11.45Z"/>
      <path class="cls-3" d="M608.05,408h6.69v.57h-6.69v-.57Z"/>
      <path class="cls-3" d="M306.49,566.49h12.07c-.14-5.05-3.7-8.85-8.58-8.85-2.94,0-5.18,1.24-6.88,2.86l-.41-.41c1.83-1.75,4.13-3,7.29-3,5.32,0,9.18,4.1,9.18,9.72v.05c0,5.48-3.67,9.77-9.21,9.77-3.35,0-5.67-1.49-7.34-3.24l.43-.41c1.59,1.67,3.83,3.1,6.91,3.1,5.13,0,8.53-4,8.61-9.07h-12.07v-.54Z"/>
      <path class="cls-3" d="M327.6,563.33h-6.18v-.51h12.93v.51h-6.18v12.98h-.57v-12.98Z"/>
      <path class="cls-3" d="M335.65,569.62v-.05c0-3.75,2.78-7.07,7.02-7.07s7.02,3.24,7.02,7.02v.05c0,3.81-2.78,7.07-7.02,7.07s-7.02-3.24-7.02-7.02Zm13.44-.03v-.05c0-3.56-2.67-6.5-6.45-6.5s-6.4,2.94-6.4,6.5v.05c0,3.56,2.67,6.51,6.45,6.51s6.4-2.94,6.4-6.51Z"/>
      <path class="cls-3" d="M357.17,563.33h-6.18v-.51h12.93v.51h-6.18v12.98h-.57v-12.98Z"/>
      <path class="cls-3" d="M388.11,575.8h1.65v4.29h-.57v-3.78h-15.36v3.78h-.57v-4.29h1.65l6.32-13.09h.54l6.34,13.09Zm-12.61,0h11.99l-5.99-12.39-5.99,12.39Z"/>
      <path class="cls-3" d="M390.92,569.56v-.05c0-4,2.73-7.02,6.48-7.02,4.26,0,6.21,3.75,6.21,7.13v.11h-12.07c.08,3.89,2.86,6.37,6.15,6.37,2.08,0,3.91-1.21,4.99-2.73l.46,.32c-1.16,1.7-3.1,2.94-5.48,2.94-3.67,0-6.75-2.75-6.75-7.07Zm12.07-.35c-.14-3.08-2.03-6.18-5.62-6.18-3.35,0-5.7,2.65-5.83,6.18h11.45Z"/>
      <path class="cls-3" d="M407.6,562.82h.57v6.42h10.63v-6.42h.57v13.5h-.57v-6.56h-10.63v6.56h-.57v-13.5Z"/>
      <path class="cls-3" d="M424.4,562.82h.57v5.24h5.72c3.02,0,4.94,1.78,4.94,4.1v.03c0,2.38-1.86,4.13-4.97,4.13h-6.26v-13.5Zm6.26,13.01c2.78,0,4.4-1.54,4.4-3.62v-.05c0-2.02-1.62-3.62-4.4-3.62h-5.7v7.29h5.7Z"/>
      <path class="cls-3" d="M447.43,562.82h.57v6.42h10.63v-6.42h.57v13.5h-.57v-6.56h-10.63v6.56h-.57v-13.5Z"/>
      <path class="cls-3" d="M463.28,569.56v-.05c0-4,2.73-7.02,6.48-7.02,4.26,0,6.21,3.75,6.21,7.13v.11h-12.07c.08,3.89,2.86,6.37,6.15,6.37,2.08,0,3.91-1.21,4.99-2.73l.46,.32c-1.16,1.7-3.1,2.94-5.48,2.94-3.67,0-6.75-2.75-6.75-7.07Zm12.07-.35c-.14-3.08-2.03-6.18-5.62-6.18-3.35,0-5.7,2.65-5.83,6.18h11.45Z"/>
      <path class="cls-3" d="M479.96,562.82h6.94c2.73,0,4.37,1.16,4.37,3.29v.03c0,1.54-1.08,2.86-3,3.21,2.08,.3,3.51,1.51,3.51,3.37v.03c0,2.08-1.67,3.59-4.78,3.56h-7.04v-13.5Zm6.61,6.29c2.48,0,4.08-1.05,4.1-2.97v-.03c.03-1.73-1.3-2.81-3.81-2.78h-6.34v5.78h6.05Zm-6.05,6.69h6.48c2.73,0,4.18-1.24,4.18-3.08v-.03c0-1.75-1.48-3.1-4.62-3.08h-6.05v6.18Z"/>
      <path class="cls-3" d="M494.95,569.62v-.05c0-3.75,2.78-7.07,7.02-7.07s7.02,3.24,7.02,7.02v.05c0,3.81-2.78,7.07-7.02,7.07s-7.02-3.24-7.02-7.02Zm13.44-.03v-.05c0-3.56-2.67-6.5-6.45-6.5s-6.4,2.94-6.4,6.5v.05c0,3.56,2.67,6.51,6.45,6.51s6.4-2.94,6.4-6.51Z"/>
      <path class="cls-3" d="M511.66,574.29c1.51,1.11,3.51,1.84,5.78,1.84,3.02,0,5.13-1.27,5.13-3.29v-.03c0-1.92-1.62-3.16-5.18-3.13h-2.92v-.51h2.92c3.05,0,4.8-1.16,4.8-3.1v-.03c0-1.73-1.78-3.02-4.62-3.02-2.29,0-4.08,.76-5.7,1.97l-.35-.43c1.65-1.27,3.56-2.05,6.05-2.05,3.16,0,5.18,1.43,5.18,3.56v.03c0,1.92-1.54,3.02-3.48,3.32,2.38,.3,3.86,1.4,3.86,3.43v.03c0,2.27-2.24,3.78-5.7,3.78-2.38,0-4.51-.73-6.13-1.89l.35-.46Z"/>
      <path class="cls-3" d="M527.27,562.82h.57l6.42,8.96,6.4-8.96h.57v13.5h-.57v-12.52l-6.37,8.83h-.08l-6.37-8.83v12.52h-.57v-13.5Z"/>
      <path class="cls-3" d="M545.28,569.62v-.05c0-3.75,2.78-7.07,7.02-7.07s7.02,3.24,7.02,7.02v.05c0,3.81-2.78,7.07-7.02,7.07s-7.02-3.24-7.02-7.02Zm13.44-.03v-.05c0-3.56-2.67-6.5-6.45-6.5s-6.4,2.94-6.4,6.5v.05c0,3.56,2.67,6.51,6.45,6.51s6.4-2.94,6.4-6.51Z"/>
      <path class="cls-3" d="M571.73,569.24h3.02l6.1-6.42h.76l-6.37,6.69,6.78,6.8h-.76l-6.5-6.56h-3.02v6.56h-.57v-6.56h-3.02l-6.5,6.56h-.76l6.77-6.8-6.37-6.69h.76l6.07,6.42h3.05v-6.42h.57v6.42Z"/>
      <path class="cls-3" d="M585.23,562.82h.57v6.42h10.63v-6.42h.57v13.5h-.57v-6.56h-10.63v6.56h-.57v-13.5Z"/>
      <path class="cls-3" d="M601.06,569.62v-.05c0-3.75,2.78-7.07,7.02-7.07s7.02,3.24,7.02,7.02v.05c0,3.81-2.78,7.07-7.02,7.07s-7.02-3.24-7.02-7.02Zm13.44-.03v-.05c0-3.56-2.67-6.5-6.45-6.5s-6.4,2.94-6.4,6.5v.05c0,3.56,2.67,6.51,6.45,6.51s6.4-2.94,6.4-6.51Z"/>
      <path class="cls-3" d="M199.3,594.82h11.69v13.5h-.57v-12.98h-10.55v12.98h-.57v-13.5Z"/>
      <path class="cls-3" d="M216.02,594.82h.57v4.18c.78-2.59,3.1-4.51,6.24-4.51,3.91,0,6.75,3.13,6.75,7.04v.05c0,3.91-2.83,7.05-6.75,7.05-3.13,0-5.45-1.92-6.24-4.51v8.5h-.57v-17.82Zm12.96,6.8v-.05c0-3.59-2.48-6.53-6.18-6.53s-6.24,3-6.24,6.5v.05c0,3.48,2.59,6.51,6.24,6.51s6.18-2.86,6.18-6.48Z"/>
      <path class="cls-3" d="M232.75,601.56v-.05c0-4,2.73-7.02,6.48-7.02,4.26,0,6.21,3.75,6.21,7.13v.11h-12.07c.08,3.89,2.86,6.37,6.15,6.37,2.08,0,3.91-1.21,4.99-2.73l.46,.32c-1.16,1.7-3.1,2.94-5.48,2.94-3.67,0-6.75-2.75-6.75-7.07Zm12.07-.35c-.14-3.08-2.03-6.18-5.62-6.18-3.35,0-5.7,2.65-5.83,6.18h11.45Z"/>
      <path class="cls-3" d="M248.5,601.59v-.05c0-3.81,3-7.04,6.91-7.04,2.48,0,4.02,1.08,5.4,2.51l-.4,.38c-1.21-1.3-2.75-2.35-5.02-2.35-3.59,0-6.29,2.94-6.29,6.48v.05c0,3.54,2.75,6.53,6.32,6.53,2.29,0,3.89-1.13,5.08-2.51l.4,.38c-1.27,1.48-3,2.67-5.51,2.67-3.89,0-6.88-3.24-6.88-7.05Z"/>
      <path class="cls-3" d="M268.42,595.33h-6.18v-.51h12.93v.51h-6.18v12.98h-.57v-12.98Z"/>
      <path class="cls-3" d="M276.31,604.59v-.05c0-2.83,2.67-4.29,6.02-4.29,1.92,0,3.7,.32,5.07,.84v-1.13c0-3.27-1.94-4.8-5.1-4.8-1.7,0-3.08,.46-4.48,1.13l-.22-.49c1.51-.73,2.97-1.19,4.72-1.19,1.89,0,3.32,.49,4.32,1.48,.84,.84,1.32,2.13,1.32,3.83v8.39h-.57v-3.19c-.57,1.59-2.59,3.51-6.05,3.51-2.64,0-5.05-1.38-5.05-4.05Zm11.09-1.21v-1.73c-1.43-.54-3-.86-5.05-.86-3.05,0-5.45,1.24-5.45,3.73v.05c0,2.38,2.11,3.54,4.48,3.54,3.59,0,6.02-2.35,6.02-4.72Z"/>
      <path class="cls-3" d="M292.72,594.82h6.94c2.73,0,4.37,1.16,4.37,3.29v.03c0,1.54-1.08,2.86-3,3.21,2.08,.3,3.51,1.51,3.51,3.37v.03c0,2.08-1.67,3.59-4.78,3.56h-7.04v-13.5Zm6.61,6.29c2.48,0,4.08-1.05,4.1-2.97v-.03c.03-1.73-1.3-2.81-3.81-2.78h-6.34v5.78h6.05Zm-6.05,6.69h6.48c2.73,0,4.18-1.24,4.18-3.08v-.03c0-1.75-1.48-3.1-4.62-3.08h-6.05v6.18Z"/>
      <path class="cls-3" d="M308.68,594.82h.57v12.63l10.82-12.63h.51v13.5h-.57v-12.63l-10.82,12.63h-.51v-13.5Z"/>
      <path class="cls-3" d="M329.84,595.33h-6.18v-.51h12.93v.51h-6.18v12.98h-.57v-12.98Z"/>
      <path class="cls-3" d="M339.67,594.82h.57v5.24h5.72c3.02,0,4.94,1.78,4.94,4.1v.03c0,2.38-1.86,4.13-4.97,4.13h-6.26v-13.5Zm6.26,13.01c2.78,0,4.4-1.54,4.4-3.62v-.05c0-2.02-1.62-3.62-4.4-3.62h-5.7v7.29h5.7Z"/>
      <path class="cls-3" d="M364.19,606.77c-1.32-1.32-2.11-3.29-2.11-5.88v-.08c0-7.48,1.32-10.58,7.8-11.74l4.08-.73,.11,.57-4.05,.7c-5.78,1-7.1,3.54-7.4,9.72,1.08-3.1,3.91-4.43,6.61-4.43,3.81,0,6.61,3.08,6.61,6.77v.05c0,3.81-2.75,6.91-6.91,6.91-1.92,0-3.51-.62-4.75-1.86Zm11.07-5.02v-.05c0-3.43-2.59-6.26-6.05-6.26-3.72,0-6.5,2.83-6.5,5.97v.03c0,3.97,2.73,6.67,6.24,6.67,3.86,0,6.32-2.83,6.32-6.34Z"/>
      <path class="cls-3" d="M378.98,601.56v-.05c0-4,2.73-7.02,6.48-7.02,4.26,0,6.21,3.75,6.21,7.13v.11h-12.07c.08,3.89,2.86,6.37,6.15,6.37,2.08,0,3.91-1.21,4.99-2.73l.46,.32c-1.16,1.7-3.1,2.94-5.48,2.94-3.67,0-6.75-2.75-6.75-7.07Zm12.07-.35c-.14-3.08-2.03-6.18-5.62-6.18-3.35,0-5.7,2.65-5.83,6.18h11.45Z"/>
      <path class="cls-3" d="M394.43,606.29c1.51,1.11,3.51,1.84,5.78,1.84,3.02,0,5.13-1.27,5.13-3.29v-.03c0-1.92-1.62-3.16-5.18-3.13h-2.92v-.51h2.92c3.05,0,4.8-1.16,4.8-3.1v-.03c0-1.73-1.78-3.02-4.62-3.02-2.29,0-4.08,.76-5.7,1.97l-.35-.43c1.65-1.27,3.56-2.05,6.05-2.05,3.16,0,5.18,1.43,5.18,3.56v.03c0,1.92-1.54,3.02-3.48,3.32,2.38,.3,3.86,1.4,3.86,3.43v.03c0,2.27-2.24,3.78-5.7,3.78-2.38,0-4.51-.73-6.13-1.89l.35-.46Z"/>
      <path class="cls-3" d="M417.19,601.59v-.05c0-3.81,3-7.04,6.91-7.04,2.48,0,4.02,1.08,5.4,2.51l-.4,.38c-1.21-1.3-2.75-2.35-5.02-2.35-3.59,0-6.29,2.94-6.29,6.48v.05c0,3.54,2.75,6.53,6.32,6.53,2.29,0,3.89-1.13,5.08-2.51l.4,.38c-1.27,1.48-3,2.67-5.51,2.67-3.89,0-6.88-3.24-6.88-7.05Z"/>
      <path class="cls-3" d="M432.15,604.59v-.05c0-2.83,2.67-4.29,6.02-4.29,1.92,0,3.7,.32,5.07,.84v-1.13c0-3.27-1.94-4.8-5.1-4.8-1.7,0-3.08,.46-4.48,1.13l-.22-.49c1.51-.73,2.97-1.19,4.72-1.19,1.89,0,3.32,.49,4.32,1.48,.84,.84,1.32,2.13,1.32,3.83v8.39h-.57v-3.19c-.57,1.59-2.59,3.51-6.05,3.51-2.64,0-5.05-1.38-5.05-4.05Zm11.09-1.21v-1.73c-1.43-.54-3-.86-5.05-.86-3.05,0-5.45,1.24-5.45,3.73v.05c0,2.38,2.11,3.54,4.48,3.54,3.59,0,6.02-2.35,6.02-4.72Z"/>
      <path class="cls-3" d="M448.56,594.82h.57l6.42,8.96,6.4-8.96h.57v13.5h-.57v-12.52l-6.37,8.83h-.08l-6.37-8.83v12.52h-.57v-13.5Z"/>
      <path class="cls-3" d="M468.11,600.05h5.72c3.02,0,4.94,1.78,4.94,4.1v.03c0,2.38-1.86,4.13-4.97,4.13h-6.26v-13.5h.57v5.24Zm0,7.77h5.7c2.78,0,4.4-1.54,4.4-3.62v-.05c0-2.02-1.62-3.62-4.4-3.62h-5.7v7.29Zm13.85-13.01h.57v13.5h-.57v-13.5Z"/>
      <path class="cls-3" d="M492.19,601.11l5.37-6.29h.65l-5.7,6.64,5.91,6.86h-.67l-5.56-6.5-5.59,6.5h-.65l5.91-6.86-5.7-6.64h.67l5.34,6.29Z"/>
      <path class="cls-3" d="M511.44,606.77c-1.32-1.32-2.11-3.29-2.11-5.88v-.08c0-7.48,1.32-10.58,7.8-11.74l4.08-.73,.11,.57-4.05,.7c-5.78,1-7.1,3.54-7.4,9.72,1.08-3.1,3.91-4.43,6.61-4.43,3.81,0,6.61,3.08,6.61,6.77v.05c0,3.81-2.75,6.91-6.91,6.91-1.92,0-3.51-.62-4.75-1.86Zm11.07-5.02v-.05c0-3.43-2.59-6.26-6.05-6.26-3.72,0-6.5,2.83-6.5,5.97v.03c0,3.97,2.73,6.67,6.24,6.67,3.86,0,6.32-2.83,6.32-6.34Z"/>
      <path class="cls-3" d="M538.25,608.31h-.62l-5.99-12.85-5.96,12.85h-.59l6.32-13.6h.49l6.37,13.6Z"/>
      <path class="cls-3" d="M541.85,594.82h.57v12.63l10.82-12.63h.51v13.5h-.57v-12.63l-10.82,12.63h-.51v-13.5Z"/>
      <path class="cls-3" d="M557.8,606.29c1.51,1.11,3.51,1.84,5.78,1.84,3.02,0,5.13-1.27,5.13-3.29v-.03c0-1.92-1.62-3.16-5.18-3.13h-2.92v-.51h2.92c3.05,0,4.8-1.16,4.8-3.1v-.03c0-1.73-1.78-3.02-4.62-3.02-2.29,0-4.08,.76-5.7,1.97l-.35-.43c1.65-1.27,3.56-2.05,6.05-2.05,3.16,0,5.18,1.43,5.18,3.56v.03c0,1.92-1.54,3.02-3.48,3.32,2.38,.3,3.86,1.4,3.86,3.43v.03c0,2.27-2.24,3.78-5.7,3.78-2.38,0-4.51-.73-6.13-1.89l.35-.46Z"/>
      <path class="cls-3" d="M573.98,601.24h3.24l6.34-6.42h.76l-6.64,6.69,7.07,6.8h-.78l-6.8-6.56h-3.19v6.56h-.57v-13.5h.57v6.42Z"/>
      <path class="cls-3" d="M587.91,594.82h.57v12.63l10.82-12.63h.51v13.5h-.57v-12.63l-10.82,12.63h-.51v-13.5Z"/>
      <path class="cls-3" d="M609.48,601.11l5.37-6.29h.65l-5.7,6.64,5.91,6.86h-.67l-5.56-6.5-5.59,6.5h-.65l5.91-6.86-5.7-6.64h.67l5.34,6.29Z"/>
      <path class="cls-3" d="M244.93,639.8h1.65v4.29h-.57v-3.78h-15.36v3.78h-.57v-4.29h1.65l6.32-13.09h.54l6.34,13.09Zm-12.61,0h11.99l-5.99-12.39-5.99,12.39Z"/>
      <path class="cls-3" d="M261.24,640.31h-.62l-5.99-12.85-5.96,12.85h-.59l6.32-13.6h.49l6.37,13.6Z"/>
      <path class="cls-3" d="M263.26,640.31l4.7-5.56c-2.48-.3-4.05-1.78-4.02-3.94v-.03c0-2.27,1.94-3.97,4.89-3.97h6.61v13.5h-.57v-5.51h-6.26l-4.62,5.51h-.73Zm5.53-13.01c-2.67,0-4.29,1.43-4.29,3.48v.03c0,2.02,1.57,3.51,4.35,3.51h6.02v-7.02h-6.07Z"/>
      <path class="cls-3" d="M288.56,626.82h.57v6.42h10.63v-6.42h.57v13.5h-.57v-6.56h-10.63v6.56h-.57v-13.5Z"/>
      <path class="cls-3" d="M304.22,636.59v-.05c0-2.83,2.67-4.29,6.02-4.29,1.92,0,3.7,.32,5.07,.84v-1.13c0-3.27-1.94-4.8-5.1-4.8-1.7,0-3.08,.46-4.48,1.13l-.22-.49c1.51-.73,2.97-1.19,4.72-1.19,1.89,0,3.32,.49,4.32,1.48,.84,.84,1.32,2.13,1.32,3.83v8.39h-.57v-3.19c-.57,1.59-2.59,3.51-6.05,3.51-2.64,0-5.05-1.38-5.05-4.05Zm11.09-1.21v-1.73c-1.43-.54-3-.86-5.05-.86-3.05,0-5.45,1.24-5.45,3.73v.05c0,2.38,2.11,3.54,4.48,3.54,3.59,0,6.02-2.35,6.02-4.72Z"/>
      <path class="cls-3" d="M319.69,633.59v-.05c0-3.81,3-7.04,6.91-7.04,2.48,0,4.02,1.08,5.4,2.51l-.4,.38c-1.21-1.3-2.75-2.35-5.02-2.35-3.59,0-6.29,2.94-6.29,6.48v.05c0,3.54,2.75,6.53,6.32,6.53,2.29,0,3.89-1.13,5.08-2.51l.4,.38c-1.27,1.48-3,2.67-5.51,2.67-3.89,0-6.88-3.24-6.88-7.05Z"/>
      <path class="cls-3" d="M355.63,640.31h-.62l-5.99-12.85-5.96,12.85h-.59l6.32-13.6h.49l6.37,13.6Z"/>
      <path class="cls-3" d="M359.79,640.31h-.57v-13.5h.57v6.42h4.32c.13-3.64,2.83-6.75,6.8-6.75s6.8,3.35,6.8,7.02v.05c0,3.64-2.7,7.07-6.8,7.07s-6.72-3.29-6.8-6.88h-4.32v6.56Zm17.36-6.72v-.05c0-3.37-2.62-6.5-6.26-6.5s-6.21,2.94-6.21,6.5v.05c0,3.38,2.67,6.51,6.26,6.51s6.21-3.13,6.21-6.51Z"/>
      <path class="cls-3" d="M393.7,639.8h1.65v4.29h-.57v-3.78h-15.36v3.78h-.57v-4.29h1.65l6.32-13.09h.54l6.34,13.09Zm-12.61,0h11.99l-5.99-12.39-5.99,12.39Z"/>
      <path class="cls-3" d="M396.51,633.56v-.05c0-4,2.73-7.02,6.48-7.02,4.26,0,6.21,3.75,6.21,7.13v.11h-12.07c.08,3.89,2.86,6.37,6.15,6.37,2.08,0,3.91-1.21,4.99-2.73l.46,.32c-1.16,1.7-3.1,2.94-5.48,2.94-3.67,0-6.75-2.75-6.75-7.07Zm12.07-.35c-.14-3.08-2.03-6.18-5.62-6.18-3.35,0-5.7,2.65-5.83,6.18h11.45Z"/>
      <path class="cls-3" d="M413.2,626.82h.57v12.63l10.82-12.63h.51v13.5h-.57v-12.63l-10.82,12.63h-.51v-13.5Zm2.56-5.1h.43c.22,1.05,1.16,2.16,2.94,2.16s2.73-1.08,2.94-2.16h.43c-.19,1.51-1.32,2.67-3.37,2.67s-3.19-1.16-3.38-2.67Z"/>
      <path class="cls-3" d="M429.34,638.91h.97v1.4h-.97v-1.4Z"/>
      <path class="cls-3" d="M442.95,621.42h.57l8.23,11.71,8.23-11.71h.54v18.89h-.59v-17.9l-8.18,11.66h-.03l-8.18-11.66v17.9h-.59v-18.89Z"/>
      <path class="cls-3" d="M466.41,632.05h5.72c3.02,0,4.94,1.78,4.94,4.1v.03c0,2.38-1.86,4.13-4.97,4.13h-6.26v-13.5h.57v5.24Zm0,7.77h5.7c2.78,0,4.4-1.54,4.4-3.62v-.05c0-2.02-1.62-3.62-4.4-3.62h-5.7v7.29Zm13.85-13.01h.57v13.5h-.57v-13.5Z"/>
      <path class="cls-3" d="M495.43,638.77c-1.32-1.32-2.11-3.29-2.11-5.88v-.08c0-7.48,1.32-10.58,7.8-11.74l4.08-.73,.11,.57-4.05,.7c-5.78,1-7.1,3.54-7.4,9.72,1.08-3.1,3.91-4.43,6.61-4.43,3.81,0,6.61,3.08,6.61,6.77v.05c0,3.81-2.75,6.91-6.91,6.91-1.92,0-3.51-.62-4.75-1.86Zm11.07-5.02v-.05c0-3.43-2.59-6.26-6.05-6.26-3.72,0-6.5,2.83-6.5,5.97v.03c0,3.97,2.73,6.67,6.24,6.67,3.86,0,6.32-2.83,6.32-6.34Z"/>
      <path class="cls-3" d="M511.74,632.05h5.72c3.02,0,4.94,1.78,4.94,4.1v.03c0,2.38-1.86,4.13-4.97,4.13h-6.26v-13.5h.57v5.24Zm0,7.77h5.7c2.78,0,4.4-1.54,4.4-3.62v-.05c0-2.02-1.62-3.62-4.4-3.62h-5.7v7.29Zm13.85-13.01h.57v13.5h-.57v-13.5Z"/>
      <path class="cls-3" d="M538.31,633.62v-.05c0-3.75,2.78-7.07,7.02-7.07s7.02,3.24,7.02,7.02v.05c0,3.81-2.78,7.07-7.02,7.07s-7.02-3.24-7.02-7.02Zm13.44-.03v-.05c0-3.56-2.67-6.5-6.45-6.5s-6.4,2.94-6.4,6.5v.05c0,3.56,2.67,6.51,6.45,6.51s6.4-2.94,6.4-6.51Z"/>
      <path class="cls-3" d="M566.09,635.1c-1.4,.41-3,.67-4.72,.67-3.64,0-5.67-1.4-5.67-4.75v-4.21h.57v4.18c0,3.02,1.83,4.24,5.1,4.24,1.65,0,3.24-.27,4.72-.67v-7.75h.57v13.5h-.57v-5.21Z"/>
      <path class="cls-3" d="M570.74,633.56v-.05c0-4,2.73-7.02,6.48-7.02,4.26,0,6.21,3.75,6.21,7.13v.11h-12.07c.08,3.89,2.86,6.37,6.15,6.37,2.08,0,3.91-1.21,4.99-2.73l.46,.32c-1.16,1.7-3.1,2.94-5.48,2.94-3.67,0-6.75-2.75-6.75-7.07Zm12.07-.35c-.14-3.08-2.03-6.18-5.62-6.18-3.35,0-5.7,2.65-5.83,6.18h11.45Z"/>
      <path class="cls-3" d="M587.42,626.82h.57v6.42h10.63v-6.42h.57v13.5h-.57v-6.56h-10.63v6.56h-.57v-13.5Z"/>
      <path class="cls-3" d="M604.22,626.82h.57v5.24h5.72c3.02,0,4.94,1.78,4.94,4.1v.03c0,2.38-1.86,4.13-4.97,4.13h-6.26v-13.5Zm6.26,13.01c2.78,0,4.4-1.54,4.4-3.62v-.05c0-2.02-1.62-3.62-4.4-3.62h-5.7v7.29h5.7Z"/>
      <path class="cls-3" d="M218.15,665.11l5.37-6.29h.65l-5.7,6.64,5.91,6.86h-.67l-5.56-6.5-5.59,6.5h-.65l5.91-6.86-5.7-6.64h.67l5.34,6.29Z"/>
      <path class="cls-3" d="M226.03,665.62v-.05c0-3.75,2.78-7.07,7.02-7.07s7.02,3.24,7.02,7.02v.05c0,3.81-2.78,7.07-7.02,7.07s-7.02-3.24-7.02-7.02Zm13.44-.03v-.05c0-3.56-2.67-6.5-6.45-6.5s-6.4,2.94-6.4,6.5v.05c0,3.56,2.67,6.51,6.45,6.51s6.4-2.94,6.4-6.51Z"/>
      <path class="cls-3" d="M247.55,659.33h-6.18v-.51h12.93v.51h-6.18v12.98h-.57v-12.98Z"/>
      <path class="cls-3" d="M255.62,665.56v-.05c0-4,2.73-7.02,6.48-7.02,4.26,0,6.21,3.75,6.21,7.13v.11h-12.07c.08,3.89,2.86,6.37,6.15,6.37,2.08,0,3.91-1.21,4.99-2.73l.46,.32c-1.16,1.7-3.1,2.94-5.48,2.94-3.67,0-6.75-2.75-6.75-7.07Zm12.07-.35c-.14-3.08-2.03-6.18-5.62-6.18-3.35,0-5.7,2.65-5.83,6.18h11.45Z"/>
      <path class="cls-3" d="M283.51,672.31h-.62l-5.99-12.85-5.96,12.85h-.59l6.32-13.6h.49l6.37,13.6Z"/>
      <path class="cls-3" d="M287.11,658.82h.57v12.63l10.82-12.63h.51v13.5h-.57v-12.63l-10.82,12.63h-.51v-13.5Z"/>
      <path class="cls-3" d="M303.03,674.15c.62-.3,.73-.86,.7-1.84h-.49v-1.4h.97v1.24c0,1.54-.27,2.05-1,2.35l-.19-.35Z"/>
      <path class="cls-3" d="M326.39,667.1c-1.4,.41-3,.67-4.72,.67-3.64,0-5.67-1.4-5.67-4.75v-4.21h.57v4.18c0,3.02,1.83,4.24,5.1,4.24,1.65,0,3.24-.27,4.72-.67v-7.75h.57v13.5h-.57v-5.21Z"/>
      <path class="cls-3" d="M336.22,659.33h-6.18v-.51h12.93v.51h-6.18v12.98h-.57v-12.98Z"/>
      <path class="cls-3" d="M344.26,665.62v-.05c0-3.75,2.78-7.07,7.02-7.07s7.02,3.24,7.02,7.02v.05c0,3.81-2.78,7.07-7.02,7.07s-7.02-3.24-7.02-7.02Zm13.44-.03v-.05c0-3.56-2.67-6.5-6.45-6.5s-6.4,2.94-6.4,6.5v.05c0,3.56,2.67,6.51,6.45,6.51s6.4-2.94,6.4-6.51Z"/>
      <path class="cls-3" d="M363.84,670.77c-1.32-1.32-2.11-3.29-2.11-5.88v-.08c0-7.48,1.32-10.58,7.8-11.74l4.08-.73,.11,.57-4.05,.7c-5.78,1-7.1,3.54-7.4,9.72,1.08-3.1,3.91-4.43,6.61-4.43,3.81,0,6.61,3.08,6.61,6.77v.05c0,3.81-2.75,6.91-6.91,6.91-1.92,0-3.51-.62-4.75-1.86Zm11.07-5.02v-.05c0-3.43-2.59-6.26-6.05-6.26-3.72,0-6.5,2.83-6.5,5.97v.03c0,3.97,2.73,6.67,6.24,6.67,3.86,0,6.32-2.83,6.32-6.34Z"/>
      <path class="cls-3" d="M380.15,664.05h5.72c3.02,0,4.94,1.78,4.94,4.1v.03c0,2.38-1.86,4.13-4.97,4.13h-6.26v-13.5h.57v5.24Zm0,7.77h5.7c2.78,0,4.4-1.54,4.4-3.62v-.05c0-2.02-1.62-3.62-4.4-3.62h-5.7v7.29Zm13.85-13.01h.57v13.5h-.57v-13.5Z"/>
      <path class="cls-3" d="M407.69,658.82h6.94c2.73,0,4.37,1.16,4.37,3.29v.03c0,1.54-1.08,2.86-3,3.21,2.08,.3,3.51,1.51,3.51,3.37v.03c0,2.08-1.67,3.59-4.78,3.56h-7.04v-13.5Zm6.61,6.29c2.48,0,4.08-1.05,4.1-2.97v-.03c.03-1.73-1.3-2.81-3.81-2.78h-6.34v5.78h6.05Zm-6.05,6.69h6.48c2.73,0,4.18-1.24,4.18-3.08v-.03c0-1.75-1.48-3.1-4.62-3.08h-6.05v6.18Z"/>
      <path class="cls-3" d="M424.21,664.05h5.72c3.02,0,4.94,1.78,4.94,4.1v.03c0,2.38-1.86,4.13-4.97,4.13h-6.26v-13.5h.57v5.24Zm0,7.77h5.7c2.78,0,4.4-1.54,4.4-3.62v-.05c0-2.02-1.62-3.62-4.4-3.62h-5.7v7.29Zm13.85-13.01h.57v13.5h-.57v-13.5Z"/>
      <path class="cls-3" d="M451.75,658.82h11.69v13.5h-.57v-12.98h-10.55v12.98h-.57v-13.5Z"/>
      <path class="cls-3" d="M468.46,658.82h.57v4.18c.78-2.59,3.1-4.51,6.24-4.51,3.91,0,6.75,3.13,6.75,7.04v.05c0,3.91-2.83,7.05-6.75,7.05-3.13,0-5.45-1.92-6.24-4.51v8.5h-.57v-17.82Zm12.96,6.8v-.05c0-3.59-2.48-6.53-6.18-6.53s-6.24,3-6.24,6.5v.05c0,3.48,2.59,6.51,6.24,6.51s6.18-2.86,6.18-6.48Z"/>
      <path class="cls-3" d="M485.17,665.62v-.05c0-3.75,2.78-7.07,7.02-7.07s7.02,3.24,7.02,7.02v.05c0,3.81-2.78,7.07-7.02,7.07s-7.02-3.24-7.02-7.02Zm13.44-.03v-.05c0-3.56-2.67-6.5-6.45-6.5s-6.4,2.94-6.4,6.5v.05c0,3.56,2.67,6.51,6.45,6.51s6.4-2.94,6.4-6.51Z"/>
      <path class="cls-3" d="M503.26,658.82h6.94c2.73,0,4.37,1.16,4.37,3.29v.03c0,1.54-1.08,2.86-3,3.21,2.08,.3,3.51,1.51,3.51,3.37v.03c0,2.08-1.67,3.59-4.78,3.56h-7.04v-13.5Zm6.61,6.29c2.48,0,4.08-1.05,4.1-2.97v-.03c.03-1.73-1.3-2.81-3.81-2.78h-6.34v5.78h6.05Zm-6.05,6.69h6.48c2.73,0,4.18-1.24,4.18-3.08v-.03c0-1.75-1.48-3.1-4.62-3.08h-6.05v6.18Z"/>
      <path class="cls-3" d="M518.28,665.56v-.05c0-4,2.73-7.02,6.48-7.02,4.26,0,6.21,3.75,6.21,7.13v.11h-12.07c.08,3.89,2.86,6.37,6.15,6.37,2.08,0,3.91-1.21,4.99-2.73l.46,.32c-1.16,1.7-3.1,2.94-5.48,2.94-3.67,0-6.75-2.75-6.75-7.07Zm12.07-.35c-.14-3.08-2.03-6.18-5.62-6.18-3.35,0-5.7,2.65-5.83,6.18h11.45Z"/>
      <path class="cls-3" d="M546.16,672.31h-.62l-5.99-12.85-5.96,12.85h-.59l6.32-13.6h.49l6.37,13.6Z"/>
      <path class="cls-3" d="M549.76,658.82h.57v12.63l10.82-12.63h.51v13.5h-.57v-12.63l-10.82,12.63h-.51v-13.5Z"/>
      <path class="cls-3" d="M573.84,665.56v-.05c0-4,2.73-7.02,6.48-7.02,4.26,0,6.21,3.75,6.21,7.13v.11h-12.07c.08,3.89,2.86,6.37,6.15,6.37,2.08,0,3.91-1.21,4.99-2.73l.46,.32c-1.16,1.7-3.1,2.94-5.48,2.94-3.67,0-6.75-2.75-6.75-7.07Zm12.07-.35c-.14-3.08-2.03-6.18-5.62-6.18-3.35,0-5.7,2.65-5.83,6.18h11.45Z"/>
      <path class="cls-3" d="M590.53,658.82h9.66v.51h-9.1v12.98h-.57v-13.5Z"/>
      <path class="cls-3" d="M601.06,665.62v-.05c0-3.75,2.78-7.07,7.02-7.07s7.02,3.24,7.02,7.02v.05c0,3.81-2.78,7.07-7.02,7.07s-7.02-3.24-7.02-7.02Zm13.44-.03v-.05c0-3.56-2.67-6.5-6.45-6.5s-6.4,2.94-6.4,6.5v.05c0,3.56,2.67,6.51,6.45,6.51s6.4-2.94,6.4-6.51Z"/>
      <path class="cls-3" d="M420.97,690.82h6.94c2.73,0,4.37,1.16,4.37,3.29v.03c0,1.54-1.08,2.86-3,3.21,2.08,.3,3.51,1.51,3.51,3.37v.03c0,2.08-1.67,3.59-4.78,3.56h-7.04v-13.5Zm6.61,6.29c2.48,0,4.08-1.05,4.1-2.97v-.03c.03-1.73-1.3-2.81-3.81-2.78h-6.34v5.78h6.05Zm-6.05,6.69h6.48c2.73,0,4.18-1.24,4.18-3.08v-.03c0-1.75-1.48-3.1-4.62-3.08h-6.05v6.18Z"/>
      <path class="cls-3" d="M436.93,690.82h.57l6.42,8.96,6.4-8.96h.57v13.5h-.57v-12.52l-6.37,8.83h-.08l-6.37-8.83v12.52h-.57v-13.5Z"/>
      <path class="cls-3" d="M454.96,697.56v-.05c0-4,2.73-7.02,6.48-7.02,4.26,0,6.21,3.75,6.21,7.13v.11h-12.07c.08,3.89,2.86,6.37,6.15,6.37,2.08,0,3.91-1.21,4.99-2.73l.46,.32c-1.16,1.7-3.1,2.94-5.48,2.94-3.67,0-6.75-2.75-6.75-7.07Zm12.07-.35c-.14-3.08-2.03-6.18-5.62-6.18-3.35,0-5.7,2.65-5.83,6.18h11.45Z"/>
      <path class="cls-3" d="M470.7,697.59v-.05c0-3.81,3-7.04,6.91-7.04,2.48,0,4.02,1.08,5.4,2.51l-.4,.38c-1.21-1.3-2.75-2.35-5.02-2.35-3.59,0-6.29,2.94-6.29,6.48v.05c0,3.54,2.75,6.53,6.32,6.53,2.29,0,3.89-1.13,5.08-2.51l.4,.38c-1.27,1.48-3,2.67-5.51,2.67-3.89,0-6.88-3.24-6.88-7.05Z"/>
      <path class="cls-3" d="M490.63,691.33h-6.18v-.51h12.93v.51h-6.18v12.98h-.57v-12.98Z"/>
      <path class="cls-3" d="M498.7,697.56v-.05c0-4,2.73-7.02,6.48-7.02,4.26,0,6.21,3.75,6.21,7.13v.11h-12.07c.08,3.89,2.86,6.37,6.15,6.37,2.08,0,3.91-1.21,4.99-2.73l.46,.32c-1.16,1.7-3.1,2.94-5.48,2.94-3.67,0-6.75-2.75-6.75-7.07Zm12.07-.35c-.14-3.08-2.03-6.18-5.62-6.18-3.35,0-5.7,2.65-5.83,6.18h11.45Z"/>
      <path class="cls-3" d="M522.54,697.59v-.05c0-3.81,3-7.04,6.91-7.04,2.48,0,4.02,1.08,5.4,2.51l-.4,.38c-1.21-1.3-2.75-2.35-5.02-2.35-3.59,0-6.29,2.94-6.29,6.48v.05c0,3.54,2.75,6.53,6.32,6.53,2.29,0,3.89-1.13,5.08-2.51l.4,.38c-1.27,1.48-3,2.67-5.51,2.67-3.89,0-6.88-3.24-6.88-7.05Z"/>
      <path class="cls-3" d="M546.74,690.82h.57v6.42h10.63v-6.42h.57v13.5h-.57v-6.56h-10.63v6.56h-.57v-13.5Z"/>
      <path class="cls-3" d="M562.4,700.59v-.05c0-2.83,2.67-4.29,6.02-4.29,1.92,0,3.7,.32,5.07,.84v-1.13c0-3.27-1.94-4.8-5.1-4.8-1.7,0-3.08,.46-4.48,1.13l-.22-.49c1.51-.73,2.97-1.19,4.72-1.19,1.89,0,3.32,.49,4.32,1.48,.84,.84,1.32,2.13,1.32,3.83v8.39h-.57v-3.19c-.57,1.59-2.59,3.51-6.05,3.51-2.64,0-5.05-1.38-5.05-4.05Zm11.09-1.21v-1.73c-1.43-.54-3-.86-5.05-.86-3.05,0-5.45,1.24-5.45,3.73v.05c0,2.38,2.11,3.54,4.48,3.54,3.59,0,6.02-2.35,6.02-4.72Z"/>
      <path class="cls-3" d="M578.81,690.82h.57l6.42,8.96,6.4-8.96h.57v13.5h-.57v-12.52l-6.37,8.83h-.08l-6.37-8.83v12.52h-.57v-13.5Z"/>
      <path class="cls-3" d="M597.79,690.82h.57v12.63l10.82-12.63h.51v13.5h-.57v-12.63l-10.82,12.63h-.51v-13.5Z"/>
      <path class="cls-3" d="M613.94,702.91h.97v1.4h-.97v-1.4Z"/>
    </g>
    <g>
      <path class="cls-2" d="M263.28,470.62h-2.76c-.37,0-.46-.05-.46-.34,0-.24,.09-.29,.46-.29h13.55c.37,0,.46,.05,.46,.29,0,.29-.09,.34-.46,.34h-1.57v15.36h5.71v-15.36h-1.57c-.37,0-.46-.05-.46-.34,0-.24,.09-.29,.46-.29h13.55c.37,0,.46,.05,.46,.29,0,.29-.09,.34-.46,.34h-2.76v34.04h2.76c.37,0,.46,.05,.46,.34,0,.24-.09,.29-.46,.29h-13.55c-.37,0-.46-.05-.46-.29,0-.29,.09-.34,.46-.34h1.57v-18.05h-5.71v18.05h1.57c.37,0,.46,.05,.46,.34,0,.24-.09,.29-.46,.29h-13.55c-.37,0-.46-.05-.46-.29,0-.29,.09-.34,.46-.34h2.76v-34.04Z"/>
      <path class="cls-2" d="M316.18,504.66h1.94c.37,0,.55,.14,.55,.34,0,.14-.18,.29-.55,.29h-12.63c-.37,0-.46-.05-.46-.29,0-.29,.09-.34,.46-.34h1.84l-2.12-10.75h-6.82l-1.38,6.14c-.18,.86-.37,1.39-.37,2.4,0,1.39,1.2,2.21,3.78,2.21,.37,0,.46,.1,.46,.34,0,.19-.09,.29-.46,.29h-9.03c-.28,0-.46-.05-.46-.29,0-.29,.09-.34,.46-.34,1.94,0,3.78-1.1,4.24-3.41l5.53-27.6-.55-2.59-1.29,.1c-.18,0-.46-.1-.46-.38,0-.14,.09-.19,.37-.24l9.95-.82,7,34.95Zm-11.15-11.38l-3.13-17.43-3.32,17.43h6.45Z"/>
      <path class="cls-2" d="M322.17,470.62h-2.77c-.37,0-.46-.05-.46-.34,0-.24,.09-.29,.46-.29h13.36c.37,0,.46,.05,.46,.29,0,.29-.09,.34-.46,.34h-1.57v34.04h5.53v-34.04h-1.57c-.37,0-.46-.05-.46-.34,0-.24,.09-.29,.46-.29h12.17c.37,0,.46,.05,.46,.29,0,.29-.09,.34-.46,.34h-1.57v34.04h5.53v-34.04h-1.57c-.37,0-.46-.05-.46-.34,0-.24,.09-.29,.46-.29h13.36c.37,0,.46,.05,.46,.29,0,.29-.09,.34-.46,.34h-2.76v34.04h2.76c.37,0,.46,.05,.46,.34,0,.24-.09,.29-.46,.29h-43.69c-.37,0-.46-.05-.46-.29,0-.29,.09-.34,.46-.34h2.77v-34.04Z"/>
      <path class="cls-2" d="M389.08,504.66h1.94c.37,0,.55,.14,.55,.34,0,.14-.18,.29-.55,.29h-12.63c-.37,0-.46-.05-.46-.29,0-.29,.09-.34,.46-.34h1.84l-2.12-10.75h-6.82l-1.38,6.14c-.18,.86-.37,1.39-.37,2.4,0,1.39,1.2,2.21,3.78,2.21,.37,0,.46,.1,.46,.34,0,.19-.09,.29-.46,.29h-9.03c-.28,0-.46-.05-.46-.29,0-.29,.09-.34,.46-.34,1.94,0,3.78-1.1,4.24-3.41l5.53-27.6-.55-2.59-1.29,.1c-.18,0-.46-.1-.46-.38,0-.14,.09-.19,.37-.24l9.95-.82,7,34.95Zm-11.15-11.38l-3.13-17.43-3.32,17.43h6.45Z"/>
      <path class="cls-2" d="M415.63,501.25c0,1.82,.74,3.65,2.95,3.65,4.05,0,6.82-5.18,6.82-12.53v-1.49c0-.29,.09-.34,.64-.34,.46,0,.65,.05,.65,.34v1.34c0,9.22-3.41,13.44-8.76,13.44-6.45,0-11.8-5.42-11.8-18.05,0-13.49,4.88-17.91,11.8-17.91,2.67,0,4.24,1.49,5.25,1.49,.83,0,1.66-.48,2.49-1.2,.18-.19,.37-.29,.64-.29,.18,0,.37,.05,.37,.34v13.83c0,.34-.09,.38-.65,.38-.37,0-.64-.05-.64-.48,0-5.23-3.23-13.39-7.1-13.39-1.47,0-2.67,.67-2.67,3.75v27.12Z"/>
      <path class="cls-2" d="M433.6,505.28h-2.76c-.37,0-.46-.05-.46-.29,0-.29,.09-.34,.46-.34h2.76v-34.04h-2.76c-.37,0-.46-.05-.46-.34,0-.24,.09-.29,.46-.29h13.09c7.56,0,13.73,3.02,13.73,7.97,0,6.53-7.19,7.63-10.6,8.3,5.07,.86,11.06,3.5,11.06,9.07,0,6.24-5.34,9.94-14.65,9.94h-9.86Zm9.22-34.66v15.36h2.4c1.75,0,3.23-.38,3.23-2.11v-10.94c0-1.63-1.29-2.3-3.96-2.3h-1.66Zm0,34.04h1.57c2.3,0,4.24-.53,4.24-2.26v-13.2c0-1.58-1.47-2.59-3.5-2.59h-2.3v18.05Z"/>
      <path class="cls-2" d="M484.2,504.66h1.94c.37,0,.55,.14,.55,.34,0,.14-.18,.29-.55,.29h-12.63c-.37,0-.46-.05-.46-.29,0-.29,.09-.34,.46-.34h1.84l-2.12-10.75h-6.82l-1.38,6.14c-.18,.86-.37,1.39-.37,2.4,0,1.39,1.2,2.21,3.78,2.21,.37,0,.46,.1,.46,.34,0,.19-.09,.29-.46,.29h-9.03c-.28,0-.46-.05-.46-.29,0-.29,.09-.34,.46-.34,1.94,0,3.78-1.1,4.24-3.41l5.53-27.6-.55-2.59-1.29,.1c-.18,0-.46-.1-.46-.38,0-.14,.09-.19,.37-.24l9.95-.82,7,34.95Zm-11.15-11.38l-3.13-17.43-3.32,17.43h6.45Z"/>
      <path class="cls-2" d="M516.36,504.66v11.18c0,.24-.09,.29-.55,.29-.55,0-.65-.05-.65-.29,0-4.99-4.15-10.56-9.58-10.56h-8.85c-5.44,0-9.58,5.57-9.58,10.56,0,.24-.09,.29-.64,.29-.46,0-.55-.05-.55-.29v-11.18h2.4c3.5-1.39,5.35-4.94,5.71-10.95l1.29-20.83c.09-1.15-.65-2.26-4.24-2.26h-2.76c-.37,0-.46-.05-.46-.34,0-.24,.09-.29,.46-.29h26.45c.37,0,.46,.05,.46,.29,0,.29-.09,.34-.46,.34h-2.76v34.04h4.33Zm-13.55-34.04h-2.86c-1.84,0-3.32,.19-3.41,2.26l-1.29,20.83c-.37,6.1-1.2,9.07-2.76,10.95h10.32v-34.04Z"/>
      <path class="cls-2" d="M521.8,470.62h-2.76c-.37,0-.46-.05-.46-.34,0-.24,.09-.29,.46-.29h15.3c.37,0,.46,.05,.46,.29,0,.29-.09,.34-.46,.34h-3.32v14.4h1.84c7.56,0,13.46,4.27,13.46,9.22v1.44c0,5.09-5.53,9.6-13.55,9.6h-13.73c-.37,0-.46-.05-.46-.29,0-.29,.09-.34,.46-.34h2.76v-34.04Zm9.22,34.04h2.4c2.12,0,3.41-.82,3.41-2.35v-14.35c0-1.34-1.2-2.3-3.59-2.3h-2.21v19.01Z"/>
      <path class="cls-2" d="M552.49,470.62h-2.77c-.37,0-.46-.05-.46-.34,0-.24,.09-.29,.46-.29h23.13v12.58c0,.19-.18,.34-.55,.34s-.64-.05-.64-.34c0-.43-2.86-11.95-8.29-11.95h-1.66v14.4h1.84c7.56,0,13.46,4.27,13.46,9.22v1.44c0,5.09-5.53,9.6-13.55,9.6h-13.73c-.37,0-.46-.05-.46-.29,0-.29,.09-.34,.46-.34h2.77v-34.04Zm9.22,34.04h2.4c2.12,0,3.41-.82,3.41-2.35v-14.35c0-1.34-1.2-2.3-3.59-2.3h-2.21v19.01Z"/>
      <path class="cls-2" d="M602.72,504.66h1.94c.37,0,.55,.14,.55,.34,0,.14-.18,.29-.55,.29h-12.63c-.37,0-.46-.05-.46-.29,0-.29,.09-.34,.46-.34h1.84l-2.12-10.75h-6.82l-1.38,6.14c-.18,.86-.37,1.39-.37,2.4,0,1.39,1.2,2.21,3.78,2.21,.37,0,.46,.1,.46,.34,0,.19-.09,.29-.46,.29h-9.03c-.28,0-.46-.05-.46-.29,0-.29,.09-.34,.46-.34,1.94,0,3.78-1.1,4.24-3.41l5.53-27.6-.55-2.59-1.29,.1c-.18,0-.46-.1-.46-.38,0-.14,.09-.19,.37-.24l9.95-.82,7,34.95Zm-11.15-11.38l-3.13-17.43-3.32,17.43h6.45Z"/>
      <path class="cls-2" d="M614.42,502.74c0,1.54-1.84,2.69-4.05,2.69s-4.06-1.15-4.06-2.69,1.84-2.78,4.06-2.78,4.05,1.25,4.05,2.78Z"/>
    </g>
  </g>
</svg>